<?xml version="1.0" encoding="UTF-8"?>
<svg id="Calque_1" data-name="Calque 1" xmlns="http://www.w3.org/2000/svg" xmlns:xlink="http://www.w3.org/1999/xlink" viewBox="0 0 1200 800">
  <defs>
    <style>
      .cls-1 {
        fill: #2d5016;
      }

      .cls-2 {
        fill: #00d400;
      }

      .cls-3 {
        fill: #5aa02c;
      }

      .cls-4 {
        fill: #803300;
        stroke-width: 2.85px;
      }

      .cls-4, .cls-5 {
        stroke: #000;
        stroke-miterlimit: 3;
      }

      .cls-6 {
        fill: none;
        stroke: #6b7280;
        stroke-width: 6px;
      }

      .cls-5 {
        fill: #c87137;
        stroke-width: 3.86px;
      }

      .cls-7 {
        fill: url(#Dégradé_sans_nom);
      }

      .cls-8 {
        opacity: .6;
      }

      .cls-9 {
        fill: #e8e8e8;
      }
    </style>
    <linearGradient id="Dégradé_sans_nom" data-name="Dégradé sans nom" x1="59.95" y1="1075.66" x2="60.95" y2="1074.66" gradientTransform="translate(-71940 860526) scale(1200 -800)" gradientUnits="userSpaceOnUse">
      <stop offset="0" stop-color="#1f2937"/>
      <stop offset="1" stop-color="#0b1020"/>
    </linearGradient>
  </defs>
  <rect class="cls-7" width="1200" height="800"/>
  <g class="cls-8">
    <rect class="cls-6" x="60" y="60" width="1080" height="680" rx="28" ry="28"/>
  </g>
  <g id="layer1">
    <path id="path1" class="cls-9" d="M292.95,215.05c.06-.07.33-7.98.6-17.59s.83-21.92,1.24-27.37c.41-5.45,1.05-15.14,1.42-21.54.98-17.04,2.09-26.25,3.39-28.24,1.46-2.23,4.73-2.32,7-.2,1.8,1.67,1.81,3.26.11,15.69-.37,2.68-.87,10.95-1.11,18.38-.25,7.43-.76,17.21-1.15,21.75-1.42,16.63-.91,80.21.78,99.37.38,4.33.74,13.28.78,19.88.05,6.6.36,16.05.71,21,.34,4.95.83,13.22,1.07,18.38.56,11.75,2.42,35.71,3.48,44.62.44,3.71.93,7.93,1.09,9.38,2.43,21.86,4.78,41.49,5.21,43.5.22,1.03.9,5.76,1.5,10.5.61,4.74,1.64,12,2.29,16.12,1.22,7.66,1.74,11.86,3.7,29.63.61,5.57,2.14,17.89,3.38,27.37s2.78,21.64,3.41,27c.63,5.36,1.47,11.78,1.87,14.25.4,2.47.9,6.86,1.11,9.75.21,2.89.76,9.47,1.21,14.63.45,5.16.93,12.92,1.05,17.25.13,4.33.47,10.74.76,14.25.83,9.97.93,11.68,1.43,23.25.26,5.98.62,11.89.8,13.12.18,1.24.52,3.6.75,5.25.23,1.65.89,6.04,1.47,9.75s1.29,9.45,1.57,12.75c.58,6.9.86,8.66,1.44,9.25.73.73,15.44.45,25.13-.48,5.16-.5,24.06-1.25,42-1.68s35.42-1.08,38.84-1.45,18.27-.72,33-.77c14.73-.06,29.48-.23,32.78-.38,19.28-.89,59.98-1.95,85.5-2.24,23.75-.26,35.73-.73,47.25-1.85,10.4-1.01,17.05-1.54,23.62-1.88,7.64-.4,35.08-2.56,37.87-2.98,1.24-.19,6.81-.56,12.38-.84,5.57-.27,10.33-.62,10.59-.77.46-.27,22.34-.87,51.29-1.41,36.09-.68,52.84-1.33,68.84-2.69,31.85-2.7,38.84-1.76,40.58,5.5.71,2.95-1.41,3.54-12.9,3.58-5.23.02-14.07.37-19.64.78-11.51.85-40.75,1.82-86.63,2.89-27.04.63-58.1,2.21-67.12,3.41-1.44.19-5.32.53-8.63.75-8.94.6-13.6.96-38.25,3-36.93,3.05-40.95,3.24-66.75,3.21-21.9-.03-49.59.83-68.62,2.12-3.51.24-17.34.55-30.75.7-13.41.15-30.11.53-37.12.84s-14.1.59-15.75.61c-1.65.02-3.25.37-3.55.78-.34.46-.56.39-.56-.2,0-.67-.83-.82-2.82-.52-1.55.24-5.17.55-8.06.69-2.89.14-5.25.3-5.25.36s-1.69.25-3.75.43c-2.58.22-3.4.1-2.62-.4,1.38-.88,1.58-.89-9,.38-9.55,1.14-17.76,1.8-28.5,2.27-3.92.17-10.33.64-14.25,1.04-6.33.64-11.55.87-20.27.86-2.23,0-2.77-.34-3.47-2.21-.75-2-1.1-2.18-3.73-1.92-4.54.44-5.35-.07-5.39-3.42-.02-1.63.28-3.16.67-3.4.39-.24.46-.84.16-1.33-.31-.49-.62-2.91-.69-5.39-.16-5.29-.5-6.93-2.1-10.01-.65-1.26-1.18-3.42-1.18-4.8s-.35-2.86-.78-3.29c-.53-.53-.54-1.41-.03-2.75.45-1.18.47-2.14.06-2.4-.38-.23-.53-3.44-.32-7.15.31-5.69.19-6.73-.78-6.73-.63,0-1.15-.34-1.15-.75s.3-.75.66-.75c1.06,0,1.62-4.34.83-6.42-.48-1.27-.48-1.76.02-1.46.41.25.75-.06.75-.71s-.34-1.17-.75-1.17-.75-.86-.75-1.92c0-1.26.3-1.74.87-1.38.52.32.66.21.36-.29-.57-.92-.96-4.15-1.7-13.85-.41-5.36-.3-6.56.55-6.57.75,0,.8-.17.17-.57-.5-.32-1.06-3.43-1.32-7.3-.24-3.71-.7-10.79-1.03-15.74s-.88-9.62-1.23-10.39c-.43-.94-.3-1.61.41-2.06.66-.43.77-.88.3-1.24-.41-.31-.81-1.85-.89-3.43-.08-1.57-.54-3.35-1.03-3.94-.63-.76-.65-1.07-.05-1.07.46,0,.84-.34.84-.75s-.5-.75-1.11-.75c-.84,0-.99-.57-.63-2.37.27-1.35.18-2.19-.21-1.95-.39.24-.65-2.36-.61-6.07.04-3.57-.2-9.19-.53-12.49-.33-3.3-.82-8.36-1.09-11.25-.27-2.89-.81-5.64-1.19-6.11-.45-.56-.35-.98.27-1.19.78-.26.77-.57-.05-1.56-.56-.68-1.07-3.01-1.13-5.18-.06-2.39-.52-4.27-1.16-4.77-.76-.6-.81-.97-.19-1.36,1.27-.78,1.05-3.42-.32-3.95-.96-.37-.99-.58-.19-1.1.71-.46.76-.81.16-1.21-.93-.63-.99-4.07-.08-4.75.32-.24.09-1.4-.52-2.57-.61-1.18-.92-2.44-.7-2.81.67-1.08.69-7.32.03-7.32-.33,0-.4-.33-.15-.73.25-.4.1-2.05-.34-3.67-.43-1.61-.92-5.25-1.09-8.08-.16-2.83-.67-6.1-1.12-7.27-.45-1.17-.63-2.43-.4-2.81.23-.38.15-.69-.18-.69-.33,0-.67-2.22-.75-4.93-.08-2.71-.43-5.32-.8-5.81-.36-.49-.75-3.07-.85-5.73-.11-2.67-.41-5.2-.68-5.62-.27-.43-.51-1.12-.53-1.53-.02-.41-.3-2.1-.61-3.75-.31-1.65-.68-5.4-.81-8.34-.13-2.94-.41-5.64-.62-6-.21-.36-.44-2.52-.5-4.79-.1-3.73-.53-7.88-.81-7.88-.12,0-.45-3.86-1.05-12.56-.22-3.19-.7-6.4-1.06-7.12-.36-.72-.71-3.21-.79-5.53-.07-2.32-.6-5.78-1.18-7.69-.65-2.15-.77-3.64-.32-3.92.87-.54.6-4.04-.42-5.43-.4-.55-.81-4.09-.9-7.88-.09-3.78-.21-6.88-.27-6.88s-.13-3.54-.15-7.88c-.02-4.33-.38-8.3-.8-8.81-.52-.64-.5-.94.05-.94s.69-1.8.43-5.44c-.85-12.23-1.08-17.31-1.39-30.19-.36-15.12-.9-31.81-1.58-49.12-.44-11.09-.83-32.23-.6-32.5h0ZM309.27,111.4c1-1.36,2.12-1.48,15.57-1.59,7.97-.07,16.69-.45,19.37-.86s13.12-.78,23.21-.84c10.08-.06,20.71-.45,23.62-.87,28.92-4.2,53.51-5.48,106.54-5.55,20.17-.03,35.62-.38,39.75-.91,8.15-1.04,132.06-.72,169.88.43,13.41.41,38.04,1.09,54.75,1.5s38.14,1.11,47.62,1.54c24.46,1.11,44.9,1.75,62.25,1.97,13.6.17,15.23.05,17.48-1.25,2.73-1.58,5.34-1.32,7.14.7.69.77,1.29,3.63,1.58,7.55.26,3.47.71,6.67,1.01,7.13,1.15,1.77,2.69,37.66,3.54,82.19.28,14.64.61,26.79.74,27,.13.21.47,11.02.77,24.01s.67,23.85.84,24.13c.16.28.49,6.69.71,14.25.23,7.56.62,14.25.87,14.87.76,1.89.82,179.21.06,184.5-.38,2.68-.84,9.77-1.02,15.75-1.19,40.17-1.51,65.04-1.03,81.15.3,10.19.42,31.24.26,46.79-.28,27.42-.34,28.3-1.82,29.34-.84.59-2.45.96-3.58.83-1.88-.22-2.1-.58-2.59-4.36-.29-2.27-.39-6.99-.22-10.5.65-13.08.65-39.17.01-55.87-1.21-31.59-.59-86.06,1.21-106.5.74-8.43.51-23.31-.63-40.13-.27-3.92-.42-7.97-.34-9,.78-10.09,1.04-48.13.5-70.87-.24-9.9-.58-27.28-.76-38.62-.18-11.34-.52-23.32-.76-26.62-.62-8.62-1.09-22.15-1.46-42.75-.18-9.9-.53-20.03-.78-22.5-.25-2.47-.59-14.46-.76-26.62-.52-37.16-1.04-56.16-1.84-66.75-.42-5.57-.97-14.18-1.23-19.13-.26-4.95-.75-9.35-1.08-9.77-.38-.48-7.22-.86-18.07-1-9.61-.13-17.65-.34-17.87-.47-.22-.14-9.48-.46-20.58-.72-11.1-.26-20.45-.64-20.77-.84-.32-.2-16.38-.73-35.68-1.18-19.3-.45-37.11-.91-39.59-1.01-21.29-.92-54.13-1.35-115.5-1.52-58.47-.16-74.82.02-87,.93-11.46.86-21.02,1.02-40.5.64-15.25-.29-28.97-.18-34.12.27-4.74.41-15.21.94-23.25,1.16-15.83.45-25.41,1.23-37.12,3.04-4.49.69-17.27,1.44-31.87,1.86-13.41.38-26.74,1.04-29.62,1.45-10.86,1.56-22.93.67-26.44-1.94-2.49-1.86-2.72-2.58-1.38-4.41h0ZM349.99,320.87c.45-1.73,3.64-1.71,6.89.03,1.72.92,2.83,2.27,3.53,4.31,1.13,3.29,11.3,13.81,16.44,17,7.11,4.42,23.18,8.19,34.79,8.17,4.69,0,8.68-.16,8.86-.34.18-.18-.12-.69-.66-1.13-8.36-6.81-12.29-11-16.78-17.9-5.2-8.01-6.44-12.24-4.39-15.04,1.54-2.11,4.87-.34,7.06,3.75,2.37,4.43,10.56,16.35,11.23,16.35.28,0,2.17,1.59,4.2,3.54,7.84,7.52,13.02,11.36,19.31,14.35,9.64,4.58,9.51,4.64,9.51-4.38,0-4.12-.4-9.83-.89-12.69-.74-4.33-.71-5.42.16-6.47,1.44-1.74,1.03-10.22-1.06-22.07-1.64-9.29-1.67-9.35-4.32-10.87-1.47-.84-4.49-2.73-6.71-4.19-2.22-1.46-5.56-3.31-7.42-4.1-6.7-2.86-11.32-6.12-19.28-13.57-4.45-4.17-9.28-8.53-10.72-9.69-4.71-3.77-28.51-27.6-32.95-32.98-2.38-2.89-5.56-7.11-7.06-9.37s-3.47-5.04-4.37-6.17c-1.59-1.99-1.59-2.09-.26-3.56,1.49-1.64,4.85-2,7.16-.76.78.42,3.66,3.97,6.4,7.9,5.48,7.86,33.92,37.09,36.09,37.09.56,0,5.18,4.08,11.87,10.47,7.05,6.74,9.83,8.72,17.49,12.52l6.51,3.22.24-1.84c.13-1.01-.31-5.47-.99-9.91-.67-4.44-1.35-8.91-1.5-9.94-.15-1.03-.69-4.24-1.19-7.13-.51-2.89-.95-10.47-.99-16.86l-.07-11.61,2.04-.98c1.78-.86,2.42-.78,5.13.6,2.78,1.42,3.04,1.78,2.56,3.59-.75,2.83-.45,22.54.38,25.26.95,3.11,2.13,11.5,2.71,19.32.27,3.62.76,6.74,1.09,6.95.6.37,5.27-4.98,6.24-7.14.6-1.35,3.15-4.74,8.78-11.71,2.3-2.84,5.51-7.47,7.13-10.29,4.11-7.15,4.15-7.21,6.98-11.28,4.95-7.13,15.09-30.02,15.09-34.05,0-3.36,4.45-4.34,6.38-1.4.64.97,1.36,3.93,1.6,6.56.37,4.11.17,5.32-1.41,8.54-1.01,2.06-3.15,6.62-4.74,10.13-3.51,7.74-17.52,30.76-22.06,36.25-.63.76-1.64,1.98-2.26,2.71s-2.48,2.95-4.13,4.93c-1.65,1.98-3.93,4.68-5.06,6.01-1.13,1.33-2.06,2.65-2.06,2.94s-1.18,1.67-2.63,3.08-2.63,2.71-2.63,2.91.51,4.02,1.13,8.49c.62,4.47,1.32,9.63,1.56,11.46.67,5.32,1.22,16.3,1.14,23.11l-.07,6.27,2.81-.52c7.06-1.32,23.81-14.41,44.63-34.89,9.23-9.08,11.82-12.05,11.81-13.56,0-1.3.61-2.26,1.86-2.93,1.65-.88,2.27-.79,5.25.74,3.55,1.83,4.47,4.21,2.45,6.35-6.77,7.16-13.08,13.4-20.1,19.9-4.68,4.33-10.55,9.76-13.05,12.07-9.91,9.17-26.04,19.43-30.55,19.43-3.97,0-4.67,1.42-4.99,10.1-.27,7.43.24,11.43,2.18,16.9.37,1.03.84,3.06,1.05,4.5.21,1.44.71,4.91,1.11,7.69.4,2.81,1.54,6.49,2.55,8.25,1.81,3.15,2.37,6.2,3.13,17.01.22,3.07.53,5.72.69,5.88.16.16,2.26-.14,4.67-.68,5.34-1.19,17.17-7.19,27.28-13.84,8.57-5.63,10.84-7.77,12.48-11.75.74-1.81,1.64-2.81,2.53-2.81,2.13,0,4.93,3.09,5.48,6.02.45,2.44.2,2.93-3.18,6.26-3.74,3.69-4.19,4.01-9.92,7.12-1.81.98-3.46,2.03-3.66,2.33s-1.33,1.03-2.49,1.64l-2.12,1.1,2.91,2.01c1.6,1.11,4.05,3.2,5.45,4.64s2.98,2.62,3.52,2.62.98.31.98.7c0,1.04,7.56,3.67,12.12,4.22,8.82,1.06,11.23,2.48,9.94,5.86-.81,2.11-3.98,2.26-12.99.6-11.48-2.12-15.42-4.15-24.82-12.82-2.26-2.09-4.46-3.79-4.89-3.8-.42,0-1.61.58-2.62,1.31-2.89,2.05-11.12,4.65-16.38,5.19l-4.78.49.41,7.57c.22,4.16.98,13.31,1.67,20.32.7,7.01,1.32,13.76,1.37,15l.11,2.25,6.49-.27c16.08-.66,31.85,3.01,41.01,9.55,1.37.98,3.6,2.33,4.94,3,2.3,1.15,8.76,8.55,14.79,16.97,1.48,2.06,3.89,6.45,5.35,9.75,2.25,5.06,2.79,7.36,3.44,14.72.84,9.41.49,12.04-2.37,17.9-2.32,4.74-5.21,8.95-9.19,13.38-1.88,2.1-3.76,4.92-4.16,6.28-.4,1.36-1.06,8.2-1.46,15.22-.4,7.01-1.04,16.29-1.43,20.63-.39,4.33-.73,9.83-.75,12.21-.04,4.15.02,4.3,1.5,3.51,1.79-.96,5.92-.26,6.04,1.02.21,2.16-.32,3.99-1.57,5.38-.74.83-1.9,2.6-2.58,3.94-.68,1.34-1.51,2.44-1.85,2.44s-1.59.88-2.79,1.95c-3.3,2.96-13.4,7.46-20.55,9.16-3.51.83-10.15,1.94-14.75,2.45-7.9.88-9.12.82-21.37-1.04-7.15-1.09-15.87-2.69-19.37-3.57s-7.48-1.77-8.82-1.98c-1.34-.21-2.63-.69-2.86-1.06s-1.07-.67-1.87-.67-1.46-.26-1.46-.57c0-.58-5.45-3.18-6.66-3.18-1.55,0-2.58-2.58-2.5-6.23.05-2.14-.38-5.75-.95-8.02-.57-2.27-1.43-6.99-1.91-10.5s-1.39-8.4-2.03-10.87-1.21-5.01-1.28-5.64c-.06-.63-.38-1.56-.7-2.08-.32-.52-.77-2.8-1.01-5.07-.23-2.27-.72-4.31-1.07-4.52-.35-.22-.64-1.52-.64-2.89,0-2.25-.38-2.68-3.94-4.49-2.63-1.34-5.12-3.49-7.5-6.48-1.96-2.46-3.56-4.81-3.56-5.21s-.32-.73-.72-.73-1.71-2.03-2.92-4.52c-1.21-2.48-2.52-4.93-2.9-5.44-1.36-1.8-2.36-7.04-2.84-14.97-.39-6.35-.23-8.94.74-12.28.68-2.33,1.34-5.29,1.48-6.58.5-4.73,1.18-5.7,4.6-6.56,2.48-.62,3.94-1.66,6.08-4.3,8.94-11.03,17.59-17.33,28.72-20.93,3.92-1.27,8.14-2.48,9.38-2.69,1.24-.21,3.94-.78,6-1.26,2.06-.48,5.06-1.14,6.65-1.46s3.12-.93,3.37-1.35c.88-1.41-.22-14.43-1.27-15.08-.54-.33-5-.82-9.9-1.09-8.47-.46-12.59-1.34-22.49-4.82-1.85-.65-5.68-2.84-8.51-4.85-2.83-2.02-6.47-4.36-8.09-5.2-6.2-3.23-6.99-8.12-1.32-8.12,1.49,0,4.92,1.89,6.29,3.47.41.48,2.97,2.4,5.69,4.27,8.96,6.17,20.08,9.69,31.06,9.81l6.75.08-.07-3.75c-.04-2.06-.43-12.69-.88-23.63-.85-20.72-1.26-23.63-6.31-45.38-2.33-10.04-3-11.63-4.9-11.63-1.16,0-1.73-.24-12.57-5.22-7.11-3.27-7.03-3.27-12.01-.53-2.46,1.35-19.24.66-27-1.11-11.87-2.71-19.63-5.56-25.84-9.48-5.89-3.72-14.39-12.63-17.56-18.4-2.69-4.9-2.89-5.62-2.21-8.2h0ZM422.62,537.86c3.36,6.49,12.21,12.57,23.6,16.17,5.78,1.83,23.34,2.58,30.75,1.3,12.92-2.23,17.8-3.47,25.27-6.45,6.54-2.61,9.4-4.34,15.72-9.54.48-.39,1.38-2.94,2-5.66,1.78-7.79-.19-18.89-4.64-26.25-5.94-9.81-11.38-13.02-26.34-15.54-10.67-1.8-14.1-1.46-13.65,1.33.13.8.37,7.87.54,15.71.31,14.6.75,20.96,1.54,22.24.8,1.29-1.38,5.24-3.28,5.96-2.33.89-6.56.13-7.83-1.4-1.13-1.36-1.04-.36-1.66-18.56-.27-7.84-.67-16-.88-18.14l-.39-3.89-5.97,2.52c-5.26,2.22-17.73,10.56-20.16,13.49-.48.58-1.88,1.28-3.11,1.55-1.23.27-3.14,1.34-4.26,2.38-1.12,1.04-2.55,2.27-3.19,2.75-2.2,1.63-5.09,6.11-5.38,8.36-.51,3.92.1,9.33,1.32,11.68h0ZM432.28,580.93c2.11,8.59,3,13.01,4.54,22.5,2.74,16.94,2.84,17.09,12.46,19.59,25.49,6.63,43.71,7.02,60.7,1.3,6.14-2.07,8.33-3.24,11.39-6.08l2.01-1.87-2.2-2.34c-1.72-1.84-2.11-2.83-1.81-4.59.21-1.24.88-9.34,1.5-18,.61-8.66,1.34-18.42,1.61-21.69.47-5.63.42-5.91-.94-5.39-2.21.85-15.32,4.05-18.68,4.56-8.65,1.31-13.11,2.14-16.5,3.08-5.01,1.38-33.09,1.71-41.25.48-3.3-.5-7.52-1.05-9.38-1.23-1.86-.18-4.02-.58-4.81-.88-1.23-.48-1.37-.31-.95,1.25.26,1,1.31,5.19,2.32,9.31h0ZM647.34,600.8c1.56-3.47,3.46-8.64,7.02-19.13,1.12-3.3,2.47-7.01,2.98-8.25.52-1.24,1.35-3.6,1.85-5.25s1.38-4.06,1.96-5.36,1.06-2.67,1.06-3.05.81-2.36,1.8-4.41c.99-2.05,2.32-5.4,2.97-7.45,1.96-6.22,3.96-11.81,5.63-15.74.87-2.06,3.63-10.32,6.13-18.36,11.32-36.49,17.54-55.16,21.68-65.14,1.26-3.03,2.29-5.83,2.29-6.21,0-.78,6.24-16.85,8.08-20.8.89-1.91.97-2.85.35-3.85-1.38-2.2-1.9-6.65-1.04-8.83.45-1.13.91-3.01,1.02-4.19.2-2-.07-2.23-4.29-3.56-6.36-2.02-7.68-3.29-8.12-7.8-.58-5.99-2.06-17.83-2.49-19.88l-.39-1.87-1.37,1.69c-.75.93-1.71,1.69-2.14,1.69s-1.01.76-1.3,1.69c-.29.93-1.66,3.06-3.03,4.74l-2.5,3.06-5.08-.21c-4.3-.18-5.32-.49-6.66-2.04-.87-1-2.23-2.17-3.03-2.6-2.24-1.2-5.27-8.17-6.19-14.22-1.45-9.55-1.08-17.41,1.09-23.19,2.28-6.08,3.01-7.14,5.96-8.64,2.44-1.23,2.91-1.17,7.68.97,1.75.79,3.36,1.43,3.58,1.43s2.55,1.67,5.17,3.7l4.77,3.7,1.77-1.93,1.77-1.93-2.13.51c-2.33.56-4.24-.51-4.24-2.39,0-.63.84-2.26,1.88-3.61,1.03-1.35,1.88-2.66,1.88-2.91s.34-.86.76-1.36c.42-.5,2.43-3.15,4.46-5.89,2.04-2.74,4.9-6.28,6.36-7.87s2.66-3.43,2.66-4.09c0-.66.71-1.84,1.58-2.62,1.47-1.33,3.17-1.44,23.81-1.64,23.98-.23,25.51-.02,26.36,3.59.31,1.32,1.02,1.94,2.41,2.1,1.09.13,2.45.97,3.03,1.88.95,1.49,2.45,11.56,3.3,22.27.18,2.27.67,5.14,1.1,6.38s.95,4.95,1.18,8.25c.23,3.3.73,6.12,1.12,6.27.39.15,1.01,1.04,1.37,1.99.63,1.66-.57,4.89-5.02,13.49-.64,1.24-2.74,6.15-4.67,10.93-3.91,9.67-8.89,16.91-12.03,17.51-1.05.2-2.92.34-4.15.32-4.74-.09-4.53-.38-4.24,6.17.22,4.95.68,6.82,2.53,10.31,1.24,2.35,2.72,4.8,3.29,5.45.57.65,1.04,1.67,1.04,2.27s1.03,2.34,2.29,3.87c2.42,2.93,7.44,12.61,10.8,20.81,1.1,2.68,2.54,6.06,3.21,7.5,1.26,2.75,3.13,7.55,5.41,13.87.74,2.06,2.23,5.59,3.32,7.83,1.09,2.24,1.97,4.49,1.97,4.99,0,.79,5.65,14,7.59,17.75.38.73,1.72,3.93,2.99,7.12s2.91,6.99,3.65,8.43c.74,1.44,1.93,4.14,2.64,6s1.59,3.96,1.96,4.68c.37.72.67,1.77.67,2.35s1.33,3.7,2.94,6.95,3.67,7.76,4.55,10.02c.88,2.27,2.41,5.31,3.39,6.75.98,1.44,2.1,4.03,2.48,5.74.62,2.77.49,3.33-1.12,5.06-2.04,2.2-5.71,2.59-8.01.85-.76-.58-3.75-6.9-6.64-14.04-2.89-7.14-6.86-16.87-8.84-21.61-1.97-4.74-4.92-11.83-6.55-15.75s-4.2-9.73-5.71-12.92c-1.51-3.19-2.75-6-2.75-6.26s-.48-1.53-1.06-2.83c-1.95-4.36-6.29-15.07-7.9-19.54-1.42-3.91-3.8-9.78-9.17-22.58-2.28-5.43-5.07-10.82-7.39-14.25-1.11-1.65-3.09-5.02-4.38-7.5-3.51-6.69-4.97-8.37-6.29-7.28-.87.72-1.22,5.15-1.76,22.09-1.17,36.54-.35,69.71,2.31,94.31.6,5.57,1.45,15.36,1.89,21.75,1.04,15.14,2.77,35.75,4.2,49.99,1.38,13.72,1.05,16.35-2.15,17.47-4.6,1.6-6.82-2.24-7.57-13.08-.2-2.89-1.06-13.35-1.9-23.25-.85-9.9-1.9-23.06-2.33-29.25-.43-6.19-1.15-14.79-1.59-19.13-.44-4.33-1.11-11.08-1.49-15-1.14-11.67-1.54-53.97-.66-68.25.75-12.06,1.14-35.91.59-36.35-.13-.1-1.45-.38-2.94-.6-2.51-.39-2.76-.25-3.52,1.96-.45,1.31-1.68,4.9-2.74,8-1.06,3.09-2.58,7.02-3.38,8.73-.8,1.71-1.69,4.07-1.96,5.25-.28,1.18-1.12,3.33-1.87,4.77-1.75,3.36-4.75,11.21-6.3,16.5-.67,2.27-1.87,6.32-2.68,9-.81,2.68-1.68,6.06-1.94,7.5-.26,1.44-.92,3.47-1.45,4.5s-1.69,4.41-2.56,7.5c-.87,3.09-2.01,6.64-2.53,7.87-.52,1.24-1.89,5.29-3.04,9-2.21,7.12-5.38,16.34-10.32,30-1.64,4.54-3.33,9.43-3.75,10.87s-1.03,2.96-1.35,3.38-2.02,4.97-3.77,10.12-4.25,12.08-5.56,15.38-3,8.02-3.76,10.5-1.65,5.17-1.98,6c-.33.83-.82,2.61-1.09,3.96-.87,4.43-6.67,6.03-8.62,2.38-.94-1.76-.91-1.95.89-5.96h0ZM673.55,367.55c1.76,5.18,2.37,6.13,3.3,5.08,2.69-3.02,3.77-21.31,1.56-26.24-1.3-2.89-3.27-5.51-3.77-5.01-.19.19-.86,1.69-1.48,3.32-1.33,3.5-1.07,18.53.4,22.84h0ZM698.16,339.45c.92-.29,1.94.08,2.82,1.02,2.43,2.61,3.37,7.54,2.98,15.65-.27,5.6-.09,8.04.7,9.56.58,1.12,1.06,3.39,1.06,5.05s.52,6.48,1.15,10.73c.63,4.25,1.07,8,.98,8.35-.44,1.63,1.11,3.88,2.96,4.27,6.94,1.49,33.59,1.05,35.23-.59.24-.24.04-5.42-.45-11.5-.49-6.08-1.39-18.46-2.01-27.5-.61-9.04-1.3-16.63-1.53-16.85s-7.4-.47-15.93-.54c-8.54-.07-17.65-.36-20.26-.65-5.59-.62-8.15-.13-8.62,1.67-.19.72-.38,1.42-.43,1.55-.05.13.56.03,1.35-.22h0ZM724.44,328.93h17.15l1.96-1.84c2.48-2.33,9.11-11.32,8.81-11.94-.13-.26-.8-.39-1.5-.3-.7.09-8.86.2-18.14.25l-16.88.08-5.07,6.09c-3.56,4.27-4.83,6.32-4.28,6.88.51.51,6.9.79,17.94.79h0ZM752.58,343.93c.56,3.71,1.19,10.72,1.42,15.58.22,4.85.55,9.07.72,9.37.18.3.56,3.75.85,7.67.56,7.57.82,8.56,1.63,6.29.28-.78,2.17-4.96,4.2-9.28,3.56-7.57,3.65-7.93,2.51-9.86-.66-1.11-1.31-4.29-1.46-7.14-.15-2.83-.64-6.49-1.07-8.14-.44-1.65-1.02-6.83-1.3-11.52-.28-4.69-.76-9.41-1.06-10.5-.31-1.09-.42-2.37-.26-2.85.16-.48-.04-1.08-.47-1.34-1.03-.64-5.31,5.39-5.31,7.48,0,.92-.53,2.11-1.19,2.65-.8.67-1.03,1.6-.7,2.9.27,1.06.94,4.96,1.5,8.67h0ZM664.55,216.05c.83-7.28,2.43-14.47,4.43-19.88,2.52-6.79,3.49-8.68,7.49-14.59.82-1.22,1.5-2.44,1.5-2.71s1.18-2.1,2.62-4.07c1.44-1.97,2.62-3.77,2.62-4,0-.72,3.45-5.56,5.72-8.02,2.99-3.25,10.59-8.62,14.64-10.36,4.58-1.96,14.1-3.86,19.35-3.86,3.83,0,4.39.2,5.14,1.83.68,1.49.59,2.14-.46,3.44-1.02,1.26-2.26,1.65-5.78,1.81-2.46.11-5.32.41-6.35.66-1.03.25-3.23.74-4.87,1.1-2.65.58-5.2,1.75-9.29,4.28-2.53,1.57-9.64,9.94-12.42,14.62-1.59,2.68-4.02,6.62-5.41,8.75s-2.52,4.07-2.52,4.31-1.01,2.57-2.24,5.17c-4.7,9.95-7.52,27.43-5.98,37.06.44,2.78,1.25,5.57,1.8,6.19s1.53,2.19,2.18,3.49c.65,1.29,2.6,3.65,4.32,5.25,1.72,1.6,3.84,3.7,4.71,4.67,4.08,4.57,11.18,7.87,23.7,11.03,6.07,1.53,29.66,2.18,36.75,1,7.66-1.26,13.5-2.92,18.38-5.22,5.48-2.58,6.82-3.73,10.5-8.98,1.58-2.26,3.41-4.85,4.06-5.77,1.65-2.3,4.51-2.16,6.64.33,2.76,3.22,1.96,4.99-6.72,14.88-4.9,5.58-11.67,9.11-23.11,12.04-6.85,1.75-9.67,2.05-21.75,2.27-17.18.32-26.65-.96-38.68-5.23-9.2-3.27-18.22-10.14-24.16-18.4-7.39-10.28-8.7-16.63-6.83-33.09h0ZM714.81,211.55c.41-1.03,1.45-2.63,2.32-3.54,1.36-1.45,1.68-3.2,2.39-13.37.71-10.02,1.02-11.81,2.19-12.46,1.91-1.07,4.38-.22,6.02,2.06,1.3,1.81,1.33,2.57.49,11.83l-.9,9.9,2.73,4.59c2.49,4.18,3.05,4.67,6.26,5.44,1.94.47,4.87,1.38,6.52,2.04,1.65.66,3.84,1.53,4.88,1.95,1.03.41,2.52,1.08,3.31,1.49.79.41,3.15.83,5.25.93,5.44.27,12.99,4.62,14.16,8.15,1.14,3.45-.3,3.97-9.59,3.42-.82-.05-7.07-2.29-13.87-4.99-12.98-5.14-17.12-5.92-20.17-3.78-3.62,2.53-10.52-1.24-11.99-6.55-.99-3.55-.98-4.63,0-7.11h0ZM740.29,154.52c2.02-1.08,4.62-.41,7.02,1.82,2.32,2.15,2.43,3.89.34,5.01-1.99,1.07-4.95.34-7.17-1.77-2.16-2.05-2.23-3.96-.19-5.05h0ZM760.53,164.12c.99-1.7,4.07-1.68,5.78.03.74.74,2.59,2.11,4.13,3.06,2.7,1.67,3.3,3.13,2.33,5.66-.57,1.49-6.29,1.7-6.29.22,0-.53-1.52-2.24-3.38-3.79-3.63-3.04-3.72-3.21-2.56-5.18h0ZM778.4,186.84c2.16-1.15,2.94-.99,4.98,1.05,2.15,2.15,2.45,5.95.67,8.49-2.4,3.43-5.93.85-6.64-4.86-.42-3.39-.29-4,.99-4.69h0ZM783.52,212.24c1.42-.54,2.32-.34,4.05.89,2.15,1.53,2.21,1.74,1.72,5.82-.62,5.12-2.11,7.14-4.79,6.46-2.66-.67-3.01-1.54-2.9-7.36.08-4.7.24-5.18,1.92-5.82h0Z"/>
    <path id="path1-6" class="cls-1" d="M489.34,425.08c1.53-1.2,4.68-2.84,5.47-2.84.38,0,1.31-.17,2.07-.36,1.76-.45,6.45-.31,9,.26,1.05.24,1.45.49,2.64,1.7.77.78,1.41,1.56,1.43,1.74.01.17.27.45.58.62.88.48,1.65,1.81,2.92,5.03,1.84,4.7,3.49,12.82,3.11,15.34-.13.88-.24,1.89-.23,2.26,0,.36-.58,2.08-1.3,3.81-1.15,2.78-1.49,3.36-2.9,5-.88,1.02-1.91,2.28-2.3,2.79-1.03,1.36-2.68,2.6-4.48,3.38-2.74,1.18-6.02,2.07-7.49,2.05-.78-.01-2.68.31-4.23.72-1.55.41-3.42.74-4.15.74h-1.33s-1.09-1.46-1.09-1.46c-.94-1.24-1.04-1.55-.73-2.16.47-.92.35-4.32-.21-5.93-.33-.95-.97-4.42-.86-4.64.08-.15.07-.36-.02-.47-.09-.11-.29-.92-.45-1.81-.16-.89-.38-1.96-.49-2.39-.9-3.53-1.14-5.8-.87-8.34.37-3.53.74-4.89,2.43-8.9,1.86-4.44,2.28-5.17,3.49-6.12h0ZM489.05,434.78c-.62,1.45-1.24,3.37-1.37,4.28-.13.91-.32,1.81-.42,2-.21.4.23,3.98.73,5.98.44,1.73.97,2.06,1.61.96,1.43-2.44,1.87-3.02,2.76-3.58,1.9-1.19,2.58-2.18,2.98-4.37.2-1.09.66-2.56,1.03-3.26l.67-1.28-1.19.09c-.83.06-1.33-.06-1.67-.41-.48-.5-.67-.66-1.28-1.07-.23-.16-.16-.42.27-.93.4-.48,1.54-.97,3.53-1.53,5.31-1.48,5.45-1.54,5.75-2.56.15-.5.25-1.07.22-1.27-.03-.2.06-.78.2-1.29.3-1.09-.31-1.57-1.78-1.42-1.67.18-4.78.78-5.67,1.1-1.28.46-3.28,2.16-3.8,3.23-.25.5-.64,1.03-.87,1.16-.23.14-.45.54-.5.89-.04.35-.59,1.83-1.21,3.27h0ZM489.52,454.78c.49,2.41.96,4.57,1.05,4.8.09.23.19.84.23,1.35.04.52.22,1.02.41,1.12.19.1,1.25-.07,2.37-.38,1.11-.31,2.4-.56,2.87-.55,2.89,0,5.94-.77,7.66-1.95.3-.2,1.56-1.62,2.81-3.16,4.02-4.95,4.77-8.02,3.79-15.62-.24-1.84-.65-3.97-.91-4.74-1.04-3.04-1.72-4.53-2.02-4.43-.17.05-.62,1-.99,2.11-.66,1.95-.72,2.03-1.88,2.67-1.62.9-3.01,2.08-2.99,2.55,0,.21.16,1.12.34,2.03.18.9.39,2.2.48,2.88.09.68.2,1.4.24,1.6.2.96.4,2.94.41,3.89,0,.87-.11,1.15-.66,1.58-.48.37-.79.41-1.09.13-.24-.21-.69-.35-1-.3-.52.08-.6.29-.86,2.26-.39,2.87-1.59,5.19-2.45,4.75-.18-.09-.58-.07-.88.06-.74.31-2.11-.76-2.33-1.84-.09-.44,0-1.74.22-2.89.52-2.8.62-3.78.4-3.89-.1-.05-.99.15-1.97.45-1.13.35-2.01.43-2.41.22-1.64-.86-1.84.37-.83,5.32h0Z"/>
    <path id="path1-6-6" class="cls-1" d="M440.64,391.75c1.53-1.2,4.68-2.84,5.47-2.84.38,0,1.31-.17,2.07-.36,1.76-.45,6.45-.31,9,.26,1.05.24,1.45.49,2.64,1.7.77.78,1.41,1.56,1.43,1.74.01.17.27.45.58.62.88.48,1.65,1.81,2.92,5.03,1.84,4.7,3.49,12.82,3.11,15.34-.13.88-.24,1.89-.23,2.26,0,.36-.58,2.08-1.3,3.81-1.15,2.78-1.49,3.36-2.9,5-.88,1.02-1.91,2.28-2.3,2.79-1.03,1.36-2.68,2.6-4.48,3.38-2.74,1.18-6.02,2.07-7.49,2.05-.78-.01-2.68.31-4.23.72-1.55.41-3.42.74-4.15.74h-1.33s-1.09-1.46-1.09-1.46c-.94-1.24-1.04-1.55-.73-2.16.47-.92.35-4.32-.21-5.93-.33-.95-.97-4.42-.86-4.64.08-.15.07-.36-.02-.47-.09-.11-.29-.92-.45-1.81-.16-.89-.38-1.96-.49-2.39-.9-3.53-1.14-5.8-.87-8.34.37-3.53.74-4.89,2.43-8.9,1.86-4.44,2.28-5.17,3.49-6.12h0ZM440.35,401.44c-.62,1.45-1.24,3.37-1.37,4.28-.13.91-.32,1.81-.42,2-.21.4.23,3.98.73,5.98.44,1.73.97,2.06,1.61.96,1.43-2.44,1.87-3.02,2.76-3.58,1.9-1.19,2.58-2.18,2.98-4.37.2-1.09.66-2.56,1.03-3.26l.67-1.28-1.19.09c-.83.06-1.33-.06-1.67-.41-.48-.5-.67-.66-1.28-1.07-.23-.16-.16-.42.27-.93.4-.48,1.54-.97,3.53-1.53,5.31-1.48,5.45-1.54,5.75-2.56.15-.5.25-1.07.22-1.27-.03-.2.06-.78.2-1.29.3-1.09-.31-1.57-1.78-1.42-1.67.18-4.78.78-5.67,1.1-1.28.46-3.28,2.16-3.8,3.23-.25.5-.64,1.03-.87,1.16-.23.14-.45.54-.5.89-.04.35-.59,1.83-1.21,3.27h0ZM440.82,421.44c.49,2.41.96,4.57,1.05,4.8.09.23.19.84.23,1.35.04.52.22,1.02.41,1.12.19.1,1.25-.07,2.37-.38,1.11-.31,2.4-.56,2.87-.55,2.89,0,5.94-.77,7.66-1.95.3-.2,1.56-1.62,2.81-3.16,4.02-4.95,4.77-8.02,3.79-15.62-.24-1.84-.65-3.97-.91-4.74-1.04-3.04-1.72-4.53-2.02-4.43-.17.05-.62,1-.99,2.11-.66,1.95-.72,2.03-1.88,2.67-1.62.9-3.01,2.08-2.99,2.55,0,.21.16,1.12.34,2.03.18.9.39,2.2.48,2.88.09.68.2,1.4.24,1.6.2.96.4,2.94.41,3.89,0,.87-.11,1.15-.66,1.58-.48.37-.79.41-1.09.13-.24-.21-.69-.35-1-.3-.52.08-.6.29-.86,2.26-.39,2.87-1.59,5.19-2.45,4.75-.18-.09-.58-.07-.88.06-.74.31-2.11-.76-2.33-1.84-.09-.44,0-1.74.22-2.89.52-2.8.62-3.78.4-3.89-.1-.05-.99.15-1.97.45-1.13.35-2.01.43-2.41.22-1.64-.86-1.84.37-.83,5.32h0Z"/>
    <path id="path1-6-6-5" class="cls-3" d="M403.26,441.91c1.53-1.2,4.68-2.84,5.47-2.84.38,0,1.31-.17,2.07-.36,1.76-.45,6.45-.31,9,.26,1.05.24,1.45.49,2.64,1.7.77.78,1.41,1.56,1.43,1.74.01.17.27.45.58.62.88.48,1.65,1.81,2.92,5.03,1.84,4.7,3.49,12.82,3.11,15.34-.13.88-.24,1.89-.23,2.26,0,.36-.58,2.08-1.3,3.81-1.15,2.78-1.49,3.36-2.9,5-.88,1.02-1.91,2.28-2.3,2.79-1.03,1.36-2.68,2.6-4.48,3.38-2.74,1.18-6.02,2.07-7.49,2.05-.78-.01-2.68.31-4.23.72-1.55.41-3.42.74-4.15.74h-1.33s-1.09-1.46-1.09-1.46c-.94-1.24-1.04-1.55-.73-2.16.47-.92.35-4.32-.21-5.93-.33-.95-.97-4.42-.86-4.64.08-.15.07-.36-.02-.47-.09-.11-.29-.92-.45-1.81-.16-.89-.38-1.96-.49-2.39-.9-3.53-1.14-5.8-.87-8.34.37-3.53.74-4.89,2.43-8.9,1.86-4.44,2.28-5.17,3.49-6.12h0ZM402.97,451.6c-.62,1.45-1.24,3.37-1.37,4.28-.13.91-.32,1.81-.42,2-.21.4.23,3.98.73,5.98.44,1.73.97,2.06,1.61.96,1.43-2.44,1.87-3.02,2.76-3.58,1.9-1.19,2.58-2.18,2.98-4.37.2-1.09.66-2.56,1.03-3.26l.67-1.28-1.19.09c-.83.06-1.33-.06-1.67-.41-.48-.5-.67-.66-1.28-1.07-.23-.16-.16-.42.27-.93.4-.48,1.54-.97,3.53-1.53,5.31-1.48,5.45-1.54,5.75-2.56.15-.5.25-1.07.22-1.27-.03-.2.06-.78.2-1.29.3-1.09-.31-1.57-1.78-1.42-1.67.18-4.78.78-5.67,1.1-1.28.46-3.28,2.16-3.8,3.23-.25.5-.64,1.03-.87,1.16-.23.14-.45.54-.5.89-.04.35-.59,1.83-1.21,3.27h0ZM403.45,471.6c.49,2.41.96,4.57,1.05,4.8.09.23.19.84.23,1.35.04.52.22,1.02.41,1.12.19.1,1.25-.07,2.37-.38,1.11-.31,2.4-.56,2.87-.55,2.89,0,5.94-.77,7.66-1.95.3-.2,1.56-1.62,2.81-3.16,4.02-4.95,4.77-8.02,3.79-15.62-.24-1.84-.65-3.97-.91-4.74-1.04-3.04-1.72-4.53-2.02-4.43-.17.05-.62,1-.99,2.11-.66,1.95-.72,2.03-1.88,2.67-1.62.9-3.01,2.08-2.99,2.55,0,.21.16,1.12.34,2.03.18.9.39,2.2.48,2.88.09.68.2,1.4.24,1.6.2.96.4,2.94.41,3.89,0,.87-.11,1.15-.66,1.58-.48.37-.79.41-1.09.13-.24-.21-.69-.35-1-.3-.52.08-.6.29-.86,2.26-.39,2.87-1.59,5.19-2.45,4.75-.18-.09-.58-.07-.88.06-.74.31-2.11-.76-2.33-1.84-.09-.44,0-1.74.22-2.89.52-2.8.62-3.78.4-3.89-.1-.05-.99.15-1.97.45-1.13.35-2.01.43-2.41.22-1.64-.86-1.84.37-.83,5.32h0Z"/>
    <path id="path1-6-6-5-0" class="cls-3" d="M366.16,352.29c1.53-1.2,4.68-2.84,5.47-2.84.38,0,1.31-.17,2.07-.36,1.76-.45,6.45-.31,9,.26,1.05.24,1.45.49,2.64,1.7.77.78,1.41,1.56,1.43,1.74.01.17.27.45.58.62.88.48,1.65,1.81,2.92,5.03,1.84,4.7,3.49,12.82,3.11,15.34-.13.88-.24,1.89-.23,2.26,0,.36-.58,2.08-1.3,3.81-1.15,2.78-1.49,3.36-2.9,5-.88,1.02-1.91,2.28-2.3,2.79-1.03,1.36-2.68,2.6-4.48,3.38-2.74,1.18-6.02,2.07-7.49,2.05-.78-.01-2.68.31-4.23.72-1.55.41-3.42.74-4.15.74h-1.33s-1.09-1.46-1.09-1.46c-.94-1.24-1.04-1.55-.73-2.16.47-.92.35-4.32-.21-5.93-.33-.95-.97-4.42-.86-4.64.08-.15.07-.36-.02-.46-.09-.11-.29-.92-.45-1.81-.16-.89-.38-1.96-.49-2.39-.9-3.53-1.14-5.8-.87-8.34.37-3.53.74-4.89,2.43-8.9,1.86-4.44,2.28-5.17,3.49-6.12h0ZM365.88,361.99c-.62,1.45-1.24,3.37-1.37,4.28-.13.91-.32,1.81-.42,2-.21.4.23,3.98.73,5.98.44,1.73.97,2.06,1.61.96,1.43-2.44,1.87-3.02,2.76-3.58,1.9-1.19,2.58-2.18,2.98-4.37.2-1.09.66-2.56,1.03-3.26l.67-1.28-1.19.09c-.83.06-1.33-.06-1.67-.41-.48-.5-.67-.66-1.28-1.07-.23-.16-.16-.42.27-.93.4-.48,1.54-.97,3.53-1.53,5.31-1.48,5.45-1.54,5.75-2.56.15-.5.25-1.07.22-1.27-.03-.2.06-.78.2-1.29.3-1.09-.31-1.57-1.78-1.42-1.67.18-4.78.78-5.67,1.1-1.28.46-3.28,2.16-3.8,3.23-.25.5-.64,1.03-.87,1.16-.23.14-.45.54-.5.89-.04.35-.59,1.83-1.21,3.27h0ZM366.35,381.99c.49,2.41.96,4.57,1.05,4.8.09.23.19.84.23,1.35.04.52.22,1.02.41,1.12.19.1,1.25-.07,2.37-.38,1.11-.31,2.4-.56,2.87-.55,2.89,0,5.94-.77,7.66-1.95.3-.2,1.56-1.62,2.81-3.16,4.02-4.95,4.77-8.02,3.79-15.62-.24-1.84-.65-3.97-.91-4.74-1.04-3.04-1.72-4.53-2.02-4.43-.17.05-.62,1-.99,2.11-.66,1.95-.72,2.03-1.88,2.67-1.62.9-3.01,2.08-2.99,2.55,0,.21.16,1.12.34,2.03.18.9.39,2.2.48,2.88.09.68.2,1.4.24,1.6.2.96.4,2.94.41,3.89,0,.87-.11,1.15-.66,1.58-.48.37-.79.41-1.09.13-.24-.21-.69-.35-1-.3-.52.08-.6.29-.86,2.26-.39,2.87-1.59,5.19-2.45,4.75-.18-.09-.58-.07-.88.06-.74.31-2.11-.76-2.33-1.84-.09-.44,0-1.74.22-2.89.52-2.8.62-3.78.4-3.89-.1-.05-.99.15-1.97.45-1.13.35-2.01.43-2.41.22-1.64-.86-1.84.37-.83,5.32h0Z"/>
    <path id="path1-6-6-5-0-0" class="cls-3" d="M423.11,296.99c1.53-1.2,4.68-2.84,5.47-2.84.38,0,1.31-.17,2.07-.36,1.76-.45,6.45-.31,9,.26,1.05.24,1.45.49,2.64,1.7.77.78,1.41,1.56,1.43,1.74.01.17.27.45.58.62.88.48,1.65,1.81,2.92,5.03,1.84,4.7,3.49,12.82,3.11,15.34-.13.88-.24,1.89-.23,2.26,0,.36-.58,2.08-1.3,3.81-1.15,2.78-1.49,3.36-2.9,5-.88,1.02-1.91,2.28-2.3,2.79-1.03,1.36-2.68,2.6-4.48,3.38-2.74,1.18-6.02,2.07-7.49,2.05-.78-.01-2.68.31-4.23.72-1.55.41-3.42.74-4.15.74h-1.33s-1.09-1.46-1.09-1.46c-.94-1.24-1.04-1.55-.73-2.16.47-.92.35-4.32-.21-5.93-.33-.95-.97-4.42-.86-4.64.08-.15.07-.36-.02-.46-.09-.11-.29-.92-.45-1.81-.16-.89-.38-1.96-.49-2.39-.9-3.53-1.14-5.8-.87-8.34.37-3.53.74-4.89,2.43-8.9,1.86-4.44,2.28-5.17,3.49-6.12h0ZM422.83,306.69c-.62,1.45-1.24,3.37-1.37,4.28-.13.91-.32,1.81-.42,2-.21.4.23,3.98.73,5.98.44,1.73.97,2.06,1.61.96,1.43-2.44,1.87-3.02,2.76-3.58,1.9-1.19,2.58-2.18,2.98-4.37.2-1.09.66-2.56,1.03-3.26l.67-1.28-1.19.09c-.83.06-1.33-.06-1.67-.41-.48-.5-.67-.66-1.28-1.07-.23-.16-.16-.42.27-.93.4-.48,1.54-.97,3.53-1.53,5.31-1.48,5.45-1.54,5.75-2.56.15-.5.25-1.07.22-1.27-.03-.2.06-.78.2-1.29.3-1.09-.31-1.57-1.78-1.42-1.67.18-4.78.78-5.67,1.1-1.28.46-3.28,2.16-3.8,3.23-.25.5-.64,1.03-.87,1.16-.23.14-.45.54-.5.89-.04.35-.59,1.83-1.21,3.27h0ZM423.3,326.69c.49,2.41.96,4.57,1.05,4.8.09.23.19.84.23,1.35.04.52.22,1.02.41,1.12.19.1,1.25-.07,2.37-.38,1.11-.31,2.4-.56,2.87-.55,2.89,0,5.94-.77,7.66-1.95.3-.2,1.56-1.62,2.81-3.16,4.02-4.95,4.77-8.02,3.79-15.62-.24-1.84-.65-3.97-.91-4.74-1.04-3.04-1.72-4.53-2.02-4.43-.17.05-.62,1-.99,2.11-.66,1.95-.72,2.03-1.88,2.67-1.62.9-3.01,2.08-2.99,2.55,0,.21.16,1.12.34,2.03.18.9.39,2.2.48,2.88.09.68.2,1.4.24,1.6.2.96.4,2.94.41,3.89,0,.87-.11,1.15-.66,1.58-.48.37-.79.41-1.09.13-.24-.21-.69-.35-1-.3-.52.08-.6.29-.86,2.26-.39,2.87-1.59,5.19-2.45,4.75-.18-.09-.58-.07-.88.06-.74.31-2.11-.76-2.33-1.84-.09-.44,0-1.74.22-2.89.52-2.8.62-3.78.4-3.89-.1-.05-.99.15-1.97.45-1.13.35-2.01.43-2.41.22-1.64-.86-1.84.37-.83,5.32h0Z"/>
    <path id="path1-6-6-5-6" class="cls-3" d="M405.74,310.12c1.32,1.43,3.21,4.43,3.29,5.22.04.37.27,1.29.53,2.03.59,1.71.84,6.4.49,9-.15,1.07-.37,1.48-1.48,2.77-.72.83-1.44,1.54-1.61,1.56-.17.03-.43.31-.57.63-.41.92-1.67,1.8-4.77,3.32-4.53,2.23-12.48,4.54-15.03,4.37-.89-.06-1.91-.08-2.27-.04-.36.03-2.12-.4-3.9-.97-2.86-.92-3.47-1.21-5.22-2.47-1.09-.79-2.43-1.72-2.98-2.06-1.45-.92-2.82-2.45-3.74-4.18-1.4-2.64-2.56-5.83-2.66-7.29-.05-.78-.53-2.65-1.07-4.16-.54-1.51-1.02-3.34-1.08-4.07l-.1-1.33,1.35-1.21c1.16-1.03,1.46-1.17,2.1-.91.95.39,4.33-.01,5.89-.7.92-.41,4.33-1.34,4.55-1.24.16.07.36.04.46-.05.1-.1.89-.37,1.77-.6.87-.23,1.93-.54,2.34-.69,3.44-1.19,5.68-1.62,8.24-1.56,3.54.08,4.93.33,9.08,1.68,4.58,1.49,5.34,1.84,6.39,2.97h0ZM396.05,310.64c-1.49-.5-3.46-.95-4.38-1.01-.92-.05-1.83-.17-2.03-.25-.42-.18-3.95.56-5.9,1.22-1.69.58-1.97,1.14-.82,1.68,2.55,1.22,3.17,1.62,3.8,2.46,1.34,1.79,2.39,2.39,4.6,2.61,1.1.11,2.6.45,3.34.76l1.34.56-.19-1.18c-.13-.83-.05-1.33.27-1.7.46-.52.6-.72.96-1.36.14-.24.4-.19.95.19.51.36,1.1,1.46,1.81,3.39,1.91,5.16,1.99,5.3,3.03,5.52.51.11,1.09.16,1.28.11.19-.05.78,0,1.3.09,1.11.21,1.54-.44,1.26-1.89-.31-1.65-1.17-4.7-1.57-5.56-.57-1.23-2.43-3.09-3.53-3.52-.52-.2-1.08-.55-1.23-.77-.15-.22-.57-.41-.93-.42-.36-.01-1.87-.43-3.36-.93h0ZM376.16,312.77c-2.36.69-4.48,1.34-4.7,1.44-.22.11-.82.26-1.33.34-.51.08-1,.31-1.08.51-.08.2.17,1.24.57,2.33.4,1.08.75,2.35.79,2.82.23,2.88,1.26,5.85,2.58,7.47.22.28,1.75,1.42,3.39,2.54,5.27,3.6,8.39,4.08,15.88,2.48,1.81-.39,3.9-.97,4.65-1.3,2.94-1.29,4.37-2.09,4.25-2.39-.07-.17-1.05-.54-2.18-.82-1.99-.49-2.08-.54-2.82-1.65-1.03-1.54-2.33-2.83-2.79-2.76-.21.03-1.11.25-1.99.5-.89.25-2.16.57-2.83.72-.67.15-1.38.31-1.57.37-.94.28-2.9.65-3.85.73-.87.08-1.16-.02-1.63-.53-.41-.44-.47-.75-.22-1.08.19-.25.29-.71.22-1.02-.12-.51-.34-.57-2.32-.67-2.89-.15-5.31-1.15-4.93-2.04.08-.19.02-.58-.13-.87-.37-.71.59-2.16,1.64-2.47.43-.13,1.74-.14,2.9-.02,2.84.29,3.82.3,3.91.08.04-.11-.23-.97-.61-1.92-.44-1.1-.59-1.97-.42-2.38.72-1.71-.52-1.8-5.37-.39h0Z"/>
    <path id="path1-6-6-5-6-2" class="cls-3" d="M489.86,304.86c1.36,1.39,4.27,3.42,5.05,3.54.37.05,1.27.34,2,.63,1.68.67,6.36,1.15,8.96.92,1.07-.1,1.5-.3,2.84-1.34.87-.67,1.61-1.36,1.64-1.53.03-.17.33-.41.66-.54.94-.36,1.88-1.58,3.55-4.6,2.44-4.41,5.14-12.25,5.1-14.8-.02-.89.01-1.91.07-2.27.05-.36-.3-2.14-.78-3.95-.78-2.9-1.04-3.53-2.22-5.34-.73-1.13-1.6-2.51-1.92-3.07-.84-1.49-2.31-2.93-4-3.93-2.57-1.53-5.7-2.84-7.16-3.01-.77-.09-2.62-.66-4.1-1.27-1.48-.61-3.29-1.18-4.02-1.27l-1.32-.16-1.28,1.29c-1.09,1.11-1.24,1.4-1.01,2.05.34.97-.22,4.33-.98,5.85-.45.9-1.54,4.26-1.46,4.49.06.16.02.37-.08.46-.1.09-.41.87-.69,1.73-.28.86-.64,1.9-.8,2.3-1.36,3.38-1.89,5.6-1.96,8.15-.09,3.54.09,4.94,1.24,9.15,1.26,4.64,1.58,5.42,2.66,6.52h0ZM490.84,295.21c-.43-1.52-.78-3.51-.79-4.42,0-.92-.08-1.83-.15-2.04-.15-.43.75-3.92,1.51-5.83.66-1.66,1.23-1.91,1.72-.74,1.09,2.61,1.46,3.24,2.27,3.91,1.73,1.42,2.27,2.5,2.38,4.72.05,1.1.32,2.62.59,3.37l.49,1.36-1.17-.24c-.82-.17-1.33-.11-1.71.19-.54.43-.75.56-1.41.89-.25.12-.21.39.15.95.33.53,1.4,1.17,3.3,1.97,5.07,2.16,5.2,2.24,5.37,3.29.08.52.11,1.1.05,1.29-.06.19-.04.78.03,1.31.16,1.12-.51,1.52-1.95,1.17-1.64-.39-4.64-1.4-5.48-1.84-1.2-.62-2.97-2.58-3.34-3.7-.18-.53-.5-1.1-.71-1.27-.21-.16-.38-.59-.38-.95,0-.36-.34-1.89-.77-3.4h0ZM493.93,275.44c.8-2.33,1.55-4.41,1.67-4.62.12-.21.3-.8.41-1.31.11-.51.36-.98.56-1.05.2-.07,1.23.23,2.3.68,1.06.45,2.31.87,2.77.93,2.86.37,5.79,1.54,7.34,2.94.27.24,1.33,1.82,2.37,3.5,3.34,5.44,3.67,8.58,1.71,15.98-.48,1.79-1.16,3.85-1.52,4.58-1.43,2.87-2.3,4.27-2.59,4.13-.16-.08-.48-1.08-.71-2.22-.4-2.02-.44-2.1-1.52-2.9-1.49-1.1-2.71-2.46-2.63-2.92.04-.21.31-1.09.6-1.96.29-.87.68-2.13.86-2.79.18-.66.38-1.36.45-1.56.32-.93.79-2.86.92-3.81.12-.87.04-1.15-.45-1.65-.42-.43-.73-.51-1.07-.27-.26.18-.73.26-1.03.17-.5-.15-.56-.37-.56-2.35,0-2.9-.89-5.36-1.8-5.03-.19.07-.58,0-.86-.17-.69-.41-2.19.48-2.55,1.51-.15.42-.22,1.73-.16,2.9.15,2.85.12,3.83-.11,3.91-.11.04-.96-.28-1.89-.71-1.07-.49-1.94-.69-2.36-.53-1.74.63-1.77-.6-.13-5.38h0Z"/>
    <path id="path1-6-6-5-6-2-3" class="cls-3" d="M512.77,432.48c1.36-1.39,4.27-3.43,5.05-3.54.37-.05,1.27-.34,2-.63,1.68-.67,6.36-1.15,8.96-.92,1.07.1,1.5.3,2.84,1.34.87.67,1.61,1.36,1.64,1.53.03.17.33.41.66.54.94.36,1.88,1.58,3.55,4.6,2.44,4.41,5.14,12.25,5.1,14.8-.02.89.01,1.91.07,2.27.05.36-.3,2.14-.78,3.95-.78,2.9-1.04,3.53-2.22,5.34-.73,1.13-1.6,2.51-1.92,3.07-.84,1.49-2.31,2.93-4,3.93-2.57,1.53-5.7,2.84-7.16,3.01-.77.09-2.62.66-4.1,1.27-1.48.61-3.29,1.18-4.02,1.27l-1.32.16-1.28-1.29c-1.09-1.11-1.24-1.4-1.01-2.05.34-.97-.22-4.33-.98-5.85-.45-.9-1.54-4.26-1.46-4.49.06-.16.02-.37-.08-.46-.1-.09-.41-.87-.69-1.73-.28-.86-.64-1.9-.8-2.3-1.36-3.38-1.89-5.6-1.96-8.15-.09-3.54.09-4.94,1.24-9.15,1.26-4.64,1.58-5.42,2.66-6.52h0ZM513.76,442.13c-.43,1.52-.78,3.51-.79,4.42,0,.92-.08,1.83-.15,2.04-.15.43.75,3.92,1.51,5.83.66,1.66,1.23,1.91,1.72.74,1.09-2.61,1.46-3.24,2.27-3.91,1.73-1.42,2.27-2.5,2.38-4.72.05-1.1.32-2.62.59-3.37l.49-1.36-1.17.24c-.82.17-1.33.11-1.71-.19-.54-.43-.75-.56-1.41-.89-.25-.12-.21-.39.15-.95.33-.53,1.4-1.17,3.3-1.97,5.07-2.16,5.2-2.24,5.37-3.29.08-.52.11-1.1.05-1.29-.06-.19-.04-.78.03-1.31.16-1.12-.51-1.52-1.95-1.17-1.64.39-4.64,1.4-5.48,1.84-1.2.62-2.97,2.58-3.34,3.7-.18.53-.5,1.1-.71,1.27-.21.16-.38.59-.38.95,0,.36-.34,1.89-.77,3.4h0ZM516.85,461.9c.8,2.33,1.55,4.41,1.67,4.62.12.21.3.8.41,1.31.11.51.36.98.56,1.05.2.07,1.23-.23,2.3-.68,1.06-.45,2.31-.87,2.77-.93,2.86-.37,5.79-1.54,7.34-2.94.27-.24,1.33-1.82,2.37-3.5,3.34-5.44,3.67-8.58,1.71-15.98-.48-1.79-1.16-3.85-1.52-4.58-1.43-2.87-2.3-4.27-2.59-4.13-.16.08-.48,1.08-.71,2.22-.4,2.02-.44,2.1-1.52,2.9-1.49,1.1-2.71,2.46-2.63,2.92.04.21.31,1.09.6,1.96.29.87.68,2.13.86,2.79.18.66.38,1.36.45,1.56.32.93.79,2.86.92,3.81.12.87.04,1.15-.45,1.65-.42.43-.73.51-1.07.27-.26-.18-.73-.26-1.03-.17-.5.15-.56.37-.56,2.35,0,2.9-.89,5.36-1.8,5.03-.19-.07-.58,0-.86.17-.69.41-2.19-.48-2.55-1.51-.15-.42-.22-1.73-.16-2.9.15-2.85.12-3.83-.11-3.91-.11-.04-.96.28-1.89.71-1.07.49-1.94.69-2.36.53-1.74-.63-1.77.6-.13,5.38h0Z"/>
    <path id="path1-2-0" class="cls-1" d="M501.79,344.65c-1.76-.4-4.25-1.16-5.53-1.7-1.28-.53-3.08-1.24-3.99-1.57-.92-.33-1.9-.72-2.18-.87-.28-.15-1.5-.68-2.7-1.18-1.68-.7-2.37-1.17-2.98-2.04-.44-.62-.8-1.24-.81-1.37-.01-.37-1.06-1.55-1.37-1.55-.15,0-.51-.49-.8-1.09s-.64-1.32-.77-1.6c-.39-.79-.29-1.83.26-2.89.28-.53.58-1.03.67-1.11.09-.08.76-.94,1.5-1.91.74-.97,1.78-2.11,2.31-2.53s1.56-1.31,2.28-1.97c1.55-1.43,6.49-3.91,8.74-4.38.87-.18,2.34-.65,3.26-1.03.92-.38,2.42-.75,3.35-.83.92-.07,2.61-.22,3.75-.33,3.59-.34,8.03.51,11.36,2.18.99.5,1.87.9,1.95.9,1.01,0,6.09,4.9,7.86,7.57.69,1.04,1.86,2.39,2.59,2.99s1.55,1.45,1.8,1.88c.53.9,2.26,2.21,3.33,2.53,1.86.56,2.69,2.69,1.53,3.91-.67.7-2.27,1.39-3.71,1.6-1.75.25-5.31,1.45-7.85,2.64-1.24.58-2.67,1.13-3.17,1.22-.5.09-1.89.53-3.09.98-6.37,2.38-11.84,2.86-17.6,1.55h0ZM514.3,339.81c5.59-1.53,7.83-2.31,10.55-3.69,1.56-.78,3.19-1.51,3.63-1.62.44-.11.88-.32.97-.48.09-.15-.62-1.03-1.59-1.94-1.59-1.51-2.98-3.22-3.28-4.05-.23-.66-3.93-4.51-4.72-4.92-.92-.48-1.33-.33-.81.29.46.56.09,2.18-.59,2.55-.3.16-1.5.6-2.65.98-1.15.38-2.14.86-2.18,1.08-.04.22.38.64.93.94,1.62.87,2.2,1.56,2.2,2.61,0,.85-.8,2.16-1.39,2.26-1.77.32-3.57-.34-5.36-1.96-1.74-1.57-4.4-2.38-6.51-1.98-1.28.24-1.25.53.1,1.1,1.93.81,2.51,1.51,2.53,3.04.02,1.34,0,1.36-.96,1.46-.54.05-1.65-.16-2.47-.46-.82-.31-2.22-.79-3.1-1.07-2.18-.7-2.83-1.16-3.05-2.19-.24-1.09-.8-1.13-2.86-.19-1.76.8-5.9,2.22-6.49,2.22-.22,0-.4.18-.4.4,0,.44,1.14.95,4.95,2.23,3,1.01,5.9,2.07,7.27,2.67.56.24,2.13.65,3.49.9,1.36.25,2.73.52,3.05.6,1.4.33,6.23-.1,8.73-.79h0ZM491.11,327.28c1.43-.72,5.12-1.9,6.9-2.19.96-.16,3.63-.37,5.94-.47,2.5-.11,4.5-.33,4.95-.55.74-.37,3.27-1.01,6.51-1.63,2.14-.41,1.88-.84-1.05-1.75-2.47-.77-7.43-.95-10.24-.37-3.07.63-7.69,2.15-8.78,2.88-.58.39-1.24.71-1.47.71-.57,0-2.63,1.47-3.85,2.74-.94.98-.96,1.05-.35,1.05.36,0,1.01-.18,1.44-.4h0Z"/>
    <path id="path1-2-0-63" class="cls-3" d="M525.36,415.25c-1.76-.4-4.25-1.16-5.53-1.7s-3.08-1.24-3.99-1.57c-.92-.33-1.9-.72-2.18-.87-.28-.15-1.5-.68-2.7-1.18-1.68-.7-2.37-1.17-2.98-2.04-.44-.62-.8-1.24-.81-1.37-.01-.37-1.06-1.55-1.37-1.55-.15,0-.51-.49-.8-1.09-.29-.6-.64-1.32-.77-1.6-.39-.79-.29-1.83.26-2.89.28-.53.58-1.03.67-1.11.09-.08.76-.94,1.5-1.91.74-.97,1.78-2.11,2.31-2.53s1.56-1.31,2.28-1.97c1.55-1.43,6.49-3.91,8.74-4.38.87-.18,2.34-.65,3.26-1.03.92-.38,2.42-.75,3.35-.83.92-.07,2.61-.22,3.75-.33,3.59-.34,8.03.51,11.36,2.18.99.5,1.87.9,1.95.9,1.01,0,6.09,4.9,7.86,7.57.69,1.04,1.86,2.39,2.59,2.99.73.6,1.55,1.45,1.8,1.88.53.9,2.26,2.21,3.33,2.53,1.86.56,2.69,2.69,1.53,3.91-.67.7-2.27,1.39-3.71,1.6-1.75.25-5.31,1.45-7.85,2.64-1.24.58-2.67,1.13-3.17,1.22-.5.09-1.89.53-3.09.98-6.37,2.38-11.84,2.86-17.6,1.55h0ZM537.87,410.41c5.59-1.53,7.83-2.31,10.55-3.69,1.56-.78,3.19-1.51,3.63-1.62.44-.11.88-.32.97-.48.09-.15-.62-1.03-1.59-1.94-1.59-1.51-2.98-3.22-3.28-4.05-.23-.66-3.93-4.51-4.72-4.92-.92-.48-1.33-.33-.81.29.46.56.09,2.18-.59,2.55-.3.16-1.5.6-2.65.98-1.15.38-2.14.86-2.18,1.08-.04.22.38.64.93.94,1.62.87,2.2,1.56,2.2,2.61,0,.85-.8,2.16-1.39,2.26-1.77.32-3.57-.34-5.36-1.96-1.74-1.57-4.4-2.38-6.51-1.98-1.28.24-1.25.53.1,1.1,1.93.81,2.51,1.51,2.53,3.04.02,1.34,0,1.36-.96,1.46-.54.05-1.65-.16-2.47-.46-.82-.31-2.22-.79-3.1-1.07-2.18-.7-2.83-1.16-3.05-2.19-.24-1.09-.8-1.13-2.86-.19-1.76.8-5.9,2.22-6.49,2.22-.22,0-.4.18-.4.4,0,.44,1.14.95,4.95,2.23,3,1.01,5.9,2.07,7.27,2.67.56.24,2.13.65,3.49.9,1.36.25,2.73.52,3.05.6,1.4.33,6.23-.1,8.73-.79h0ZM514.68,397.88c1.43-.72,5.12-1.9,6.9-2.19.96-.16,3.63-.37,5.94-.47,2.5-.11,4.5-.33,4.95-.55.74-.37,3.27-1.01,6.51-1.63,2.14-.41,1.88-.84-1.05-1.75-2.47-.77-7.43-.95-10.24-.37-3.07.63-7.69,2.15-8.78,2.88-.58.39-1.24.71-1.47.71-.57,0-2.63,1.47-3.85,2.74-.94.98-.96,1.05-.35,1.05.36,0,1.01-.18,1.44-.4h0Z"/>
    <path id="path1-2-0-63-2" class="cls-3" d="M398.66,294.3c1.76-.4,4.25-1.16,5.53-1.7,1.28-.53,3.08-1.24,3.99-1.57.92-.33,1.9-.72,2.18-.87.28-.15,1.5-.68,2.7-1.18,1.68-.7,2.37-1.17,2.98-2.04.44-.62.8-1.24.81-1.37.01-.37,1.06-1.55,1.37-1.55.15,0,.51-.49.8-1.09s.64-1.32.77-1.6c.39-.79.29-1.83-.26-2.89-.28-.53-.58-1.03-.67-1.11-.09-.08-.76-.94-1.5-1.91-.74-.97-1.78-2.11-2.31-2.53-.53-.42-1.56-1.31-2.28-1.97-1.55-1.43-6.49-3.91-8.74-4.38-.87-.18-2.34-.65-3.26-1.03-.92-.38-2.42-.75-3.35-.83-.92-.07-2.61-.22-3.75-.33-3.59-.34-8.03.51-11.36,2.18-.99.5-1.87.9-1.95.9-1,0-6.09,4.9-7.86,7.57-.69,1.04-1.86,2.39-2.59,2.99s-1.55,1.45-1.8,1.88c-.53.9-2.26,2.21-3.33,2.53-1.86.56-2.69,2.69-1.53,3.91.67.7,2.27,1.39,3.71,1.6,1.75.25,5.31,1.45,7.85,2.64,1.24.58,2.67,1.13,3.17,1.22.5.09,1.89.53,3.09.98,6.37,2.38,11.84,2.86,17.6,1.55h0ZM386.15,289.46c-5.59-1.53-7.83-2.31-10.55-3.69-1.56-.78-3.19-1.51-3.63-1.62-.44-.11-.88-.32-.97-.48-.09-.15.62-1.03,1.59-1.94,1.59-1.51,2.98-3.22,3.28-4.05.23-.66,3.93-4.51,4.72-4.92.92-.48,1.33-.33.81.29-.46.56-.09,2.18.59,2.55.3.16,1.5.6,2.65.98,1.15.38,2.14.86,2.18,1.08.04.22-.38.64-.93.94-1.62.87-2.2,1.56-2.2,2.61,0,.85.8,2.16,1.39,2.26,1.77.32,3.57-.34,5.36-1.96,1.74-1.57,4.4-2.38,6.51-1.98,1.28.24,1.25.53-.1,1.1-1.93.81-2.51,1.51-2.53,3.04-.02,1.34,0,1.36.96,1.46.54.05,1.65-.16,2.47-.46.82-.31,2.22-.79,3.1-1.07,2.18-.7,2.83-1.16,3.05-2.19.24-1.09.8-1.13,2.86-.19,1.76.8,5.9,2.22,6.49,2.22.22,0,.4.18.4.4,0,.44-1.14.95-4.95,2.23-3,1.01-5.9,2.07-7.27,2.67-.56.24-2.13.65-3.49.9-1.36.25-2.73.52-3.05.6-1.4.33-6.23-.1-8.73-.79h0ZM409.34,276.93c-1.43-.72-5.12-1.9-6.9-2.19-.96-.16-3.63-.37-5.94-.47-2.5-.11-4.5-.33-4.95-.55-.74-.37-3.27-1.01-6.51-1.63-2.14-.41-1.88-.84,1.05-1.75,2.47-.77,7.43-.95,10.24-.37,3.07.63,7.69,2.15,8.78,2.88.58.39,1.24.71,1.47.71.57,0,2.63,1.47,3.85,2.74.94.98.96,1.05.35,1.05-.36,0-1.01-.18-1.44-.4Z"/>
    <path id="path1-2-0-6" class="cls-1" d="M444.11,382.58c.84-1.6,1.89-3.98,2.32-5.3.43-1.32,1.07-3.14,1.41-4.05.35-.91.69-1.91.76-2.22.07-.31.46-1.58.86-2.82.56-1.73.66-2.56.4-3.59-.18-.74-.41-1.42-.51-1.51-.27-.25-.48-1.82-.28-2.05.1-.11-.04-.7-.31-1.32-.27-.61-.58-1.34-.71-1.63-.35-.81-1.2-1.42-2.36-1.69-.59-.14-1.16-.23-1.28-.22-.12.01-1.21-.03-2.43-.11-1.22-.07-2.76-.03-3.43.1-.67.13-2.01.33-2.98.44-2.1.24-7.2,2.38-9.02,3.77-.71.54-2.02,1.35-2.91,1.8-.89.45-2.15,1.35-2.81,2-.65.65-1.87,1.84-2.69,2.63-2.6,2.5-4.85,6.42-5.76,10.03-.27,1.08-.53,2.01-.59,2.07-.66.76-.26,7.81.61,10.9.34,1.21.6,2.97.58,3.92-.02.95.09,2.12.25,2.6.33.99.2,3.15-.26,4.18-.79,1.77.28,3.8,1.96,3.71.97-.05,2.53-.81,3.63-1.77,1.33-1.16,4.56-3.08,7.12-4.23,1.25-.56,2.6-1.29,2.99-1.61.39-.32,1.63-1.09,2.76-1.7,5.96-3.27,9.89-7.11,12.65-12.33h0ZM432.28,388.9c-4.81,3.24-6.86,4.43-9.68,5.6-1.61.67-3.23,1.43-3.6,1.69-.37.26-.82.46-1,.43-.18-.03-.37-1.14-.44-2.47-.1-2.19-.5-4.36-.93-5.12-.35-.61-.85-5.92-.65-6.79.24-1,.62-1.22.75-.43.12.72,1.6,1.49,2.32,1.21.32-.12,1.43-.74,2.47-1.37,1.04-.63,2.04-1.06,2.24-.95.19.11.24.7.1,1.32-.4,1.8-.25,2.69.54,3.37.64.55,2.16.8,2.62.42,1.39-1.13,2.07-2.93,2.02-5.34-.05-2.35,1.06-4.89,2.74-6.23,1.02-.81,1.22-.6.77.79-.64,1.99-.49,2.89.66,3.9,1,.89,1.03.89,1.73.22.39-.37.96-1.35,1.26-2.18.3-.82.85-2.19,1.21-3.04.9-2.11.97-2.9.33-3.74-.67-.9-.34-1.35,1.72-2.29,1.76-.81,5.53-3.03,5.91-3.47.14-.17.4-.19.57-.04.33.29-.02,1.49-1.53,5.21-1.19,2.93-2.28,5.83-2.72,7.26-.18.58-.9,2.04-1.59,3.24-.7,1.2-1.39,2.41-1.54,2.71-.66,1.28-4.14,4.65-6.29,6.1h0ZM437.9,363.15c-1.48.61-4.78,2.64-6.16,3.8-.75.62-2.65,2.51-4.23,4.2-1.71,1.83-3.18,3.2-3.65,3.39-.77.32-2.9,1.82-5.48,3.87-1.71,1.35-1.87.88-.65-1.94,1.03-2.37,4.13-6.25,6.39-8.01,2.48-1.92,6.64-4.43,7.91-4.77.67-.18,1.35-.47,1.5-.65.37-.43,2.83-1.04,4.59-1.13,1.36-.07,1.42-.05,1.02.42-.23.27-.79.65-1.24.83h0Z"/>
    <path id="path1-4" class="cls-1" d="M454.68,465.52c0-.6.07-1.33.17-1.62.29-.87.42-4.7.23-6.53-.18-1.72-.41-2.45-1.11-3.56-2.73-4.35-5.39-6.35-9.56-7.22-2.17-.45-2.71-.44-4.99.13-1.41.35-3.2.88-3.99,1.18-3.2,1.21-6.76,3.84-8.26,6.1-.39.59-.88,1.3-1.08,1.56-.39.53-2.21,5.54-2.42,6.7-.08.4-.13,1.47-.11,2.39.03,1.71-.34,3.77-1.49,8.48-.36,1.49-.79,3.42-.95,4.3-1.01,5.64-1.42,7.44-2.27,10.17-1.04,3.34-1.16,4.54-.51,5.27.59.66,3.92,1.45,4.8,1.14.71-.25,2.29-2.02,3.98-4.46.51-.74,1.57-1.94,2.34-2.66,2.01-1.87,7.65-5.46,11.61-7.39,1.87-.91,3.56-1.86,3.76-2.11.2-.25.46-.42.59-.38.13.05.4-.13.6-.38.2-.26,1.18-.98,2.18-1.6,1-.62,2.24-1.52,2.74-1.99,1.62-1.5,3.76-5.78,3.75-7.51h0ZM448.46,468.71c-.52.68-1.61,1.61-2.41,2.06-1.92,1.08-4.67,2.84-4.74,3.04-.03.09-1.48.85-3.23,1.7-4.9,2.38-10.38,5.91-12.14,7.83-.46.5-.87.81-.93.7-.05-.11.12-1.15.39-2.3,2.88-12.28,3.41-15,3.37-17.3-.04-1.99,1.64-6.47,3.04-8.08,1.4-1.62,4.02-3.5,5.33-3.83.6-.15,2.15-.54,3.45-.87,2.34-.59,4.57-.57,5.06.05.31.39-.36,1.52-1.79,3.05-.54.58-1.72,1.96-2.62,3.08-4.53,5.65-4.19,5.36-6.2,5.41-.99.02-1.95-.01-2.13-.08-.18-.07-.8.15-1.37.48-.87.5-1.07.78-1.22,1.63-.37,2.24,1.16,3.64,3.18,2.9,1.83-.67,2.18-.09,1.65,2.68-.13.65-.08,1.49.09,1.87.37.79,1.7,1.38,2.29,1.02.33-.2,2.55-5.07,3.65-8.04.57-1.53.85-1.58,1.02-.19.26,2.14,1.7,3.17,3.12,2.24.46-.3,1-.64,1.21-.76.24-.14.27-.45.08-.91-.37-.88-.33-3.51.07-3.96.16-.19.16-.39,0-.45-.17-.06-.24-.29-.16-.5.08-.21-.12-.53-.44-.7-.48-.26-.51-.45-.2-1.1.21-.43.65-.99.97-1.23.32-.24,1.09-1.08,1.69-1.86.68-.87,1.29-1.39,1.59-1.34.27.04.42.25.34.47-.08.22-.02.6.12.85.5.86.65,5.14.27,7.71-.14.95-1.39,3.39-2.42,4.73h0Z"/>
    <path id="path1-4-1" class="cls-1" d="M472.73,368.7c-.54.25-1.23.49-1.54.52-.91.1-4.45,1.58-6.03,2.53-1.48.88-2.05,1.4-2.77,2.5-2.8,4.3-3.51,7.55-2.55,11.7.5,2.16.74,2.64,2.21,4.47.91,1.13,2.14,2.54,2.75,3.13,2.44,2.39,6.32,4.53,9,4.95.7.11,1.54.26,1.87.32.65.13,5.96-.32,7.1-.6.39-.1,1.39-.5,2.22-.9,1.55-.74,3.56-1.27,8.33-2.2,1.5-.29,3.44-.71,4.3-.94,5.54-1.44,7.35-1.83,10.18-2.19,3.47-.45,4.61-.85,5-1.74.35-.81-.33-4.17-.98-4.83-.53-.54-2.79-1.23-5.72-1.75-.89-.16-2.42-.61-3.39-1.01-2.54-1.04-8.16-4.66-11.57-7.45-1.61-1.32-3.18-2.45-3.49-2.53-.31-.07-.58-.24-.59-.38,0-.14-.28-.31-.6-.38-.32-.07-1.38-.66-2.37-1.31-.99-.65-2.32-1.39-2.96-1.66-2.04-.85-6.82-.99-8.38-.26h0ZM478.24,373c.84.19,2.14.79,2.88,1.33,1.78,1.3,4.53,3.05,4.75,3.03.09,0,1.4.99,2.89,2.22,4.21,3.46,9.72,6.95,12.2,7.75.64.21,1.1.45,1.02.55-.08.1-1.1.37-2.26.61-12.36,2.52-15.05,3.18-17.12,4.19-1.8.87-6.56,1.21-8.61.62-2.06-.59-4.86-2.18-5.71-3.24-.39-.48-1.39-1.73-2.24-2.76-1.52-1.87-2.43-3.91-2.07-4.62.22-.44,1.54-.31,3.52.35.75.25,2.5.74,3.9,1.08,7.03,1.74,6.62,1.56,7.5,3.36.44.89.8,1.77.82,1.96.02.19.47.66,1.01,1.04.81.58,1.16.65,1.99.42,2.19-.6,2.82-2.58,1.31-4.1-1.37-1.38-.99-1.94,1.74-2.62.64-.16,1.39-.55,1.66-.87.56-.66.54-2.12-.03-2.51-.32-.22-5.68-.19-8.83.05-1.63.12-1.79-.11-.6-.85,1.84-1.13,2.17-2.87.73-3.77-.47-.29-1-.64-1.2-.78-.23-.16-.53-.05-.86.31-.64.7-3.05,1.77-3.63,1.6-.24-.07-.42.02-.41.19.01.18-.16.34-.39.36-.23.02-.43.33-.45.69-.03.54-.2.66-.92.64-.48-.01-1.17-.18-1.53-.37-.36-.19-1.44-.53-2.4-.76-1.08-.25-1.8-.59-1.88-.88-.07-.26.05-.49.29-.51.23-.02.56-.23.72-.47.57-.82,4.4-2.74,6.89-3.47.92-.27,3.66-.16,5.31.21h0Z"/>
    <path id="path1-4-1-2" class="cls-3" d="M398.54,356.8c.58-.14,1.27-.4,1.53-.56.77-.5,4.45-1.57,6.28-1.83,1.71-.25,2.48-.21,3.73.2,4.89,1.57,7.48,3.65,9.35,7.48.97,1.99,1.09,2.52,1.1,4.87,0,1.45-.07,3.32-.16,4.16-.38,3.4-2.06,7.5-3.87,9.51-.48.53-1.04,1.17-1.25,1.43-.42.51-4.83,3.51-5.9,4.01-.37.17-1.4.49-2.29.7-1.67.4-3.57,1.26-7.85,3.54-1.35.72-3.12,1.61-3.93,1.98-5.21,2.37-6.86,3.21-9.29,4.71-2.97,1.84-4.11,2.25-4.98,1.8-.78-.41-2.37-3.45-2.29-4.37.07-.75,1.39-2.72,3.34-4.96.59-.68,1.49-2,2-2.92,1.32-2.41,3.4-8.76,4.29-13.08.42-2.04.92-3.91,1.12-4.16.2-.25.3-.55.22-.67-.08-.11.02-.42.22-.67.2-.26.66-1.39,1.02-2.51.36-1.12.92-2.54,1.25-3.15,1.05-1.94,4.67-5.07,6.35-5.48h0ZM396.98,363.61c-.53.68-1.16,1.96-1.4,2.85-.57,2.13-1.59,5.22-1.77,5.35-.08.05-.46,1.65-.85,3.54-1.09,5.34-3.17,11.52-4.59,13.7-.37.57-.57,1.05-.45,1.07.12.02,1.08-.4,2.13-.95,11.18-5.83,13.69-7.01,15.94-7.54,1.94-.46,5.86-3.19,7.08-4.94,1.22-1.76,2.4-4.76,2.39-6.11,0-.62,0-2.22,0-3.55,0-2.41-.58-4.57-1.3-4.89-.45-.2-1.39.73-2.51,2.49-.42.67-1.48,2.15-2.34,3.3-4.36,5.78-4.16,5.38-3.71,7.34.22.96.49,1.88.6,2.04.11.16.05.81-.13,1.45-.27.96-.49,1.23-1.28,1.58-2.08.91-3.81-.23-3.6-2.36.19-1.93-.45-2.14-3-.93-.6.28-1.43.45-1.84.37-.85-.16-1.76-1.31-1.56-1.97.11-.37,4.29-3.73,6.88-5.53,1.34-.93,1.32-1.22-.07-1.04-2.14.28-3.49-.86-2.94-2.47.18-.52.38-1.13.44-1.36.08-.27.37-.37.86-.3.94.14,3.48-.55,3.82-1.04.14-.21.34-.25.44-.11.1.15.34.16.53.03.19-.13.54-.01.79.25.37.4.57.39,1.11-.08.37-.31.8-.87.95-1.25.16-.37.78-1.32,1.38-2.1.68-.88,1.02-1.59.9-1.87-.11-.25-.35-.35-.54-.21-.19.13-.58.17-.86.09-.96-.27-5.14.64-7.54,1.65-.88.37-2.94,2.18-3.99,3.51h0Z"/>
    <path id="path1-4-4" class="cls-1" d="M484.77,338.7c-.59-.12-1.28-.35-1.55-.5-.79-.46-4.51-1.39-6.34-1.58-1.72-.18-2.48-.11-3.72.35-4.82,1.77-7.33,3.95-9.05,7.85-.89,2.03-.99,2.56-.91,4.91.05,1.45.2,3.32.33,4.15.52,3.38,2.35,7.41,4.24,9.35.5.51,1.08,1.13,1.31,1.38.44.5,4.96,3.31,6.05,3.77.37.16,1.42.43,2.32.61,1.68.33,3.62,1.11,7.98,3.22,1.38.67,3.18,1.49,4.01,1.82,5.3,2.16,6.98,2.93,9.47,4.34,3.04,1.72,4.2,2.08,5.05,1.6.77-.44,2.23-3.54,2.11-4.46-.1-.75-1.5-2.66-3.53-4.82-.62-.66-1.57-1.94-2.11-2.84-1.41-2.35-3.75-8.62-4.81-12.9-.5-2.02-1.08-3.87-1.29-4.11-.21-.25-.32-.54-.24-.66.08-.12-.04-.42-.25-.67-.21-.25-.71-1.36-1.12-2.47-.4-1.11-1.02-2.5-1.38-3.1-1.13-1.9-4.87-4.88-6.56-5.23h0ZM486.6,345.44c.56.65,1.24,1.91,1.51,2.79.65,2.11,1.8,5.16,1.99,5.27.08.05.53,1.63.99,3.51,1.31,5.29,3.62,11.39,5.13,13.51.39.55.61,1.02.49,1.05-.12.03-1.1-.36-2.17-.87-11.41-5.37-13.96-6.46-16.22-6.9-1.96-.38-5.98-2.95-7.27-4.66-1.29-1.71-2.59-4.66-2.64-6.01-.02-.62-.08-2.22-.14-3.55-.09-2.41.39-4.59,1.1-4.94.44-.22,1.42.67,2.61,2.39.45.65,1.56,2.09,2.47,3.2,4.59,5.6,4.37,5.21,4,7.19-.18.97-.42,1.9-.52,2.06-.1.16-.02.81.19,1.44.31.95.54,1.21,1.34,1.53,2.11.83,3.8-.38,3.5-2.5-.27-1.93.37-2.15,2.96-1.05.61.26,1.44.39,1.85.3.85-.19,1.7-1.37,1.48-2.03-.13-.37-4.43-3.55-7.1-5.25-1.38-.88-1.37-1.16.03-1.04,2.15.19,3.46-1,2.84-2.59-.2-.51-.42-1.12-.49-1.34-.09-.27-.39-.36-.87-.27-.94.18-3.5-.41-3.86-.89-.15-.2-.35-.24-.44-.09-.09.15-.33.17-.52.05-.19-.12-.54,0-.78.28-.35.41-.55.41-1.12-.04-.38-.3-.83-.84-1-1.21-.17-.37-.83-1.29-1.47-2.04-.71-.85-1.09-1.55-.98-1.83.1-.26.33-.36.53-.23.2.12.58.15.86.06.95-.31,5.17.43,7.6,1.34.9.34,3.03,2.07,4.13,3.35h0Z"/>
    <path id="path1-4-4-7" class="cls-3" d="M477.87,280.89c-.59-.12-1.28-.35-1.55-.5-.79-.46-4.51-1.39-6.34-1.58-1.72-.18-2.48-.11-3.72.35-4.82,1.77-7.33,3.95-9.05,7.85-.89,2.03-.99,2.56-.91,4.91.05,1.45.2,3.32.33,4.15.52,3.38,2.35,7.41,4.24,9.35.5.51,1.08,1.13,1.31,1.38.44.5,4.96,3.31,6.05,3.77.37.16,1.42.43,2.32.61,1.68.33,3.62,1.11,7.98,3.22,1.38.67,3.18,1.49,4.01,1.82,5.3,2.16,6.98,2.93,9.47,4.34,3.04,1.72,4.2,2.08,5.05,1.6.77-.44,2.23-3.54,2.11-4.46-.1-.75-1.5-2.66-3.53-4.82-.62-.66-1.57-1.94-2.11-2.84-1.41-2.35-3.75-8.62-4.81-12.9-.5-2.02-1.08-3.87-1.29-4.11-.21-.25-.32-.54-.24-.66.08-.12-.04-.42-.25-.67-.21-.25-.71-1.36-1.12-2.47-.4-1.11-1.02-2.5-1.38-3.1-1.13-1.9-4.87-4.88-6.56-5.23h0ZM479.7,287.63c.56.65,1.24,1.91,1.51,2.79.65,2.11,1.8,5.16,1.99,5.27.08.05.53,1.63.99,3.51,1.31,5.29,3.62,11.39,5.13,13.51.39.55.61,1.02.49,1.05-.12.03-1.1-.36-2.17-.87-11.41-5.37-13.96-6.46-16.22-6.9-1.96-.38-5.98-2.95-7.27-4.66-1.29-1.71-2.59-4.66-2.64-6.01-.02-.62-.08-2.22-.14-3.55-.09-2.41.39-4.59,1.1-4.94.44-.22,1.42.67,2.61,2.39.45.65,1.56,2.09,2.47,3.2,4.59,5.6,4.37,5.21,4,7.19-.18.97-.42,1.9-.52,2.06-.1.16-.02.81.19,1.44.31.95.54,1.21,1.34,1.53,2.11.83,3.8-.38,3.5-2.5-.27-1.93.37-2.15,2.96-1.05.61.26,1.44.39,1.85.3.85-.19,1.7-1.37,1.48-2.03-.13-.37-4.43-3.55-7.1-5.25-1.38-.88-1.37-1.16.03-1.04,2.15.19,3.46-1,2.84-2.59-.2-.51-.42-1.12-.49-1.34-.09-.27-.39-.36-.87-.27-.94.18-3.5-.41-3.86-.89-.15-.2-.35-.24-.44-.09-.09.15-.33.17-.52.05-.19-.12-.54,0-.78.28-.35.41-.55.41-1.12-.04-.38-.3-.83-.84-1-1.21-.17-.37-.83-1.29-1.47-2.04-.71-.85-1.09-1.55-.98-1.83.1-.26.33-.36.53-.23.2.12.58.15.86.06.95-.31,5.17.43,7.6,1.34.9.34,3.03,2.07,4.13,3.35h0Z"/>
    <path id="path1-4-4-7-4" class="cls-3" d="M537.11,299.94c-.59-.12-1.28-.35-1.55-.5-.79-.46-4.51-1.39-6.34-1.58-1.72-.18-2.48-.11-3.72.35-4.82,1.77-7.33,3.95-9.05,7.85-.89,2.03-.99,2.56-.91,4.91.05,1.45.2,3.32.33,4.15.52,3.38,2.35,7.41,4.24,9.35.5.51,1.08,1.13,1.31,1.38.44.5,4.96,3.31,6.05,3.77.37.16,1.42.43,2.32.61,1.68.33,3.62,1.11,7.98,3.22,1.38.67,3.18,1.49,4.01,1.82,5.3,2.16,6.98,2.93,9.47,4.34,3.04,1.72,4.2,2.08,5.05,1.6.77-.44,2.23-3.54,2.11-4.46-.1-.75-1.5-2.66-3.53-4.82-.62-.66-1.57-1.94-2.11-2.84-1.41-2.35-3.75-8.62-4.81-12.9-.5-2.02-1.08-3.87-1.29-4.11-.21-.25-.32-.54-.24-.66.08-.12-.04-.42-.25-.67-.21-.25-.71-1.36-1.12-2.47-.4-1.11-1.02-2.5-1.38-3.1-1.13-1.9-4.87-4.88-6.56-5.23h0ZM538.94,306.68c.56.65,1.24,1.91,1.51,2.79.65,2.11,1.8,5.16,1.99,5.27.08.05.53,1.63.99,3.51,1.31,5.29,3.62,11.39,5.13,13.51.39.55.61,1.02.49,1.05-.12.03-1.1-.36-2.17-.87-11.41-5.37-13.96-6.46-16.22-6.9-1.96-.38-5.98-2.95-7.27-4.66-1.29-1.71-2.59-4.66-2.64-6.01-.02-.62-.08-2.22-.14-3.55-.09-2.41.39-4.59,1.1-4.94.44-.22,1.42.67,2.61,2.39.45.65,1.56,2.09,2.47,3.2,4.59,5.6,4.37,5.21,4,7.19-.18.97-.42,1.9-.52,2.06-.1.16-.02.81.19,1.44.31.95.54,1.21,1.34,1.53,2.11.83,3.8-.38,3.5-2.5-.27-1.93.37-2.15,2.96-1.05.61.26,1.44.39,1.85.3.85-.19,1.7-1.37,1.48-2.03-.13-.37-4.43-3.55-7.1-5.25-1.38-.88-1.37-1.16.03-1.04,2.15.19,3.46-1,2.84-2.59-.2-.51-.42-1.12-.49-1.34-.09-.27-.39-.36-.87-.27-.94.18-3.5-.41-3.86-.89-.15-.2-.35-.24-.44-.09-.09.15-.33.17-.52.05-.19-.12-.54,0-.78.28-.35.41-.55.41-1.12-.04-.38-.3-.83-.84-1-1.21-.17-.37-.83-1.29-1.47-2.04-.71-.85-1.09-1.55-.98-1.83.1-.26.33-.36.53-.23.2.12.58.15.86.06.95-.31,5.17.43,7.6,1.34.9.34,3.03,2.07,4.13,3.35h0Z"/>
    <path id="path1-4-4-9" class="cls-1" d="M486.21,464.05c-.58-.15-1.27-.4-1.53-.57-.77-.5-4.44-1.59-6.27-1.86-1.71-.25-2.47-.22-3.73.18-4.89,1.55-7.5,3.62-9.38,7.44-.98,1.99-1.1,2.51-1.12,4.86-.01,1.45.05,3.32.14,4.16.37,3.4,2.03,7.51,3.83,9.53.47.53,1.03,1.18,1.24,1.43.42.52,4.81,3.53,5.88,4.03.37.17,1.4.49,2.29.71,1.67.41,3.56,1.27,7.84,3.57,1.35.73,3.11,1.62,3.92,2,5.2,2.4,6.84,3.24,9.27,4.75,2.97,1.85,4.1,2.26,4.97,1.82.78-.4,2.39-3.44,2.3-4.36-.07-.75-1.38-2.72-3.32-4.97-.59-.68-1.48-2-1.99-2.93-1.31-2.41-3.37-8.77-4.24-13.1-.41-2.04-.91-3.91-1.1-4.17-.2-.25-.29-.55-.22-.67.08-.11-.02-.42-.22-.68-.2-.26-.65-1.39-1.01-2.51-.35-1.12-.91-2.55-1.24-3.16-1.04-1.95-4.65-5.09-6.33-5.51h0ZM487.75,470.87c.53.68,1.16,1.96,1.39,2.85.56,2.13,1.57,5.23,1.75,5.35.08.05.45,1.65.83,3.55,1.07,5.34,3.12,11.53,4.54,13.72.37.57.57,1.05.44,1.07-.12.02-1.08-.41-2.13-.96-11.16-5.87-13.66-7.06-15.91-7.6-1.94-.46-5.85-3.21-7.06-4.97-1.22-1.76-2.38-4.77-2.37-6.12,0-.62.01-2.22.02-3.55.01-2.41.59-4.57,1.32-4.89.45-.2,1.39.73,2.5,2.5.42.67,1.47,2.16,2.33,3.31,4.34,5.8,4.14,5.4,3.68,7.35-.23.96-.5,1.88-.61,2.04-.11.16-.05.81.12,1.45.26.96.48,1.24,1.27,1.59,2.07.92,3.81-.21,3.61-2.35-.19-1.94.46-2.13,3.01-.92.6.29,1.43.46,1.84.38.85-.16,1.76-1.3,1.56-1.96-.11-.37-4.27-3.74-6.86-5.55-1.34-.93-1.32-1.22.07-1.04,2.14.29,3.5-.85,2.95-2.46-.18-.52-.37-1.13-.44-1.36-.08-.27-.37-.37-.86-.3-.94.14-3.48-.56-3.82-1.06-.14-.21-.34-.26-.44-.11-.1.15-.34.16-.53.03-.19-.13-.54-.02-.79.25-.37.4-.57.38-1.11-.08-.37-.31-.79-.88-.95-1.25-.16-.37-.77-1.32-1.38-2.11-.67-.88-1.02-1.6-.9-1.87.11-.25.35-.34.54-.21.19.13.58.17.86.09.96-.27,5.14.66,7.53,1.68.88.38,2.93,2.2,3.98,3.53h0Z"/>
    <path id="path1-3-1" class="cls-2" d="M335.14,352.87c-2.73-.45-5.48-1.81-8.39-4.14-.79-.63-2.11-.78-4.1-.46-.81.13-1.19-1.46-.61-2.57.24-.46.44-1,.44-1.19,0-.39.64-1.21,2.42-3.11.61-.65,1.3-1.54,1.53-1.98.97-1.82,1.99-3.1,3.98-4.98,3.08-2.91,6.93-4.56,10.66-4.56,2.04,0,6.77.76,8.05,1.3.61.26,2.23.66,3.6.9,1.37.24,3.28.68,4.24.99.96.31,2.72.64,3.9.73,1.55.13,2.27.32,2.54.67.52.68.5,2.53-.04,2.97-.24.2-.44.53-.44.73s.2.53.44.73c.9.74.24,3.78-.82,3.78-.72,0-7.32,3.55-10.46,5.63-3.72,2.46-5.95,3.69-7.64,4.2-1.33.4-7.56.63-9.31.34h0ZM343.57,348.37c1.59-.31,3.55-1.24,4.95-2.34.64-.5,1.36-.99,1.6-1.07.24-.08,1.21-.78,2.15-1.55,1.6-1.3,1.67-1.41,1.07-1.63-.56-.21-1.39-.11-4.02.49-.44.1-.65.36-.65.81,0,.92-.73,1.86-1.98,2.55-.59.32-1.5.86-2.02,1.19-.8.51-1.03.54-1.41.22-.68-.56-.93-1.45-.67-2.36.13-.44.12-.86,0-.94-.13-.08-1.13.09-2.23.37-1.1.28-2.2.5-2.44.48-.24-.02-.64-.06-.9-.08-1.21-.12-1.28-2.95-.08-3.73.38-.25.7-.67.7-.93.02-.86,1.09-1.87,1.81-1.69.36.09,1.27.32,2.02.51,1.17.3,1.82.26,4.62-.29,3.33-.65,4.34-1,4.34-1.5,0-.15-.33-.28-.72-.28s-1.87-.34-3.27-.76c-3.42-1.02-8.89-1.16-10.67-.27-1.5.75-4.21,3.46-5.08,5.11-.38.72-1.08,1.71-1.54,2.21l-.85.9,1.98,1.62c1.93,1.58,4.04,2.63,6.17,3.08,1.27.27,5.56.21,7.15-.1h0Z"/>
    <path id="path1-3-1-9" class="cls-2" d="M407.15,250.17c-2.31-1.52-4.28-3.87-6-7.17-.47-.9-1.61-1.56-3.56-2.07-.8-.21-.5-1.81.48-2.6.4-.32.8-.73.88-.92.16-.35,1.08-.85,3.47-1.86.82-.35,1.81-.89,2.2-1.19,1.62-1.27,3.07-2.03,5.65-2.95,3.99-1.42,8.18-1.37,11.59.14,1.87.83,5.88,3.43,6.84,4.44.46.48,1.78,1.51,2.93,2.28,1.16.77,2.72,1.95,3.47,2.62.75.67,2.23,1.68,3.27,2.25,1.36.74,1.94,1.2,2.05,1.64.2.84-.57,2.51-1.24,2.7-.3.09-.61.31-.69.49-.08.18-.03.56.11.84.52,1.04-1.31,3.56-2.28,3.13-.66-.29-8.13.29-11.84.93-4.39.75-6.93.97-8.68.76-1.38-.17-7.17-2.48-8.65-3.45h0ZM416.69,249.46c1.58.36,3.74.3,5.47-.14.79-.2,1.64-.35,1.9-.33.25.02,1.42-.23,2.59-.55,1.98-.54,2.1-.62,1.64-1.06-.43-.42-1.22-.66-3.88-1.18-.44-.09-.75.07-.92.47-.37.84-1.42,1.4-2.84,1.53-.67.06-1.72.18-2.33.27-.94.14-1.16.08-1.38-.37-.39-.79-.26-1.71.34-2.43.29-.35.46-.74.38-.87-.09-.12-1.07-.38-2.19-.56-1.12-.19-2.21-.43-2.42-.55-.21-.12-.57-.31-.79-.44-1.06-.6.02-3.21,1.43-3.45.45-.07.91-.33,1.02-.57.36-.78,1.76-1.27,2.34-.81.29.23,1.03.81,1.64,1.29.95.75,1.56.97,4.34,1.61,3.3.75,4.38.84,4.58.38.06-.14-.18-.39-.55-.55-.36-.16-1.57-1.07-2.69-2.02-2.72-2.32-7.66-4.65-9.65-4.56-1.68.07-5.25,1.47-6.71,2.62-.64.5-1.68,1.13-2.3,1.4l-1.14.48,1.16,2.28c1.13,2.22,2.63,4.04,4.4,5.31,1.06.76,5,2.44,6.58,2.8h0Z"/>
    <path id="path1-3-1-8" class="cls-2" d="M340.93,244.9c-2.55,1.07-5.6,1.4-9.3.98-1-.11-2.2.47-3.71,1.8-.62.55-1.78-.59-1.89-1.85-.04-.51-.16-1.07-.27-1.24-.2-.33-.1-1.36.39-3.92.17-.88.27-2,.24-2.49-.15-2.05.03-3.68.71-6.34,1.05-4.1,3.43-7.56,6.57-9.54,1.73-1.09,6.13-2.97,7.5-3.2.65-.11,2.24-.64,3.52-1.17,1.29-.53,3.13-1.17,4.11-1.42.98-.25,2.64-.91,3.69-1.46,1.37-.72,2.08-.94,2.5-.79.81.3,1.77,1.87,1.55,2.53-.1.3-.09.68.02.85.11.17.45.34.76.38,1.15.15,2.22,3.07,1.33,3.63-.61.39-4.29,6.91-5.83,10.35-1.83,4.07-3.06,6.3-4.21,7.63-.91,1.05-6.06,4.57-7.69,5.26h0ZM345.66,236.59c1.18-1.11,2.34-2.94,2.93-4.62.27-.77.62-1.56.78-1.76.16-.2.6-1.31.99-2.46.65-1.95.66-2.09.03-1.95-.59.12-1.23.65-3.14,2.57-.32.32-.36.66-.12,1.03.49.78.38,1.96-.32,3.21-.33.59-.81,1.53-1.08,2.09-.41.86-.58,1-1.08.94-.87-.11-1.56-.73-1.83-1.64-.13-.44-.36-.8-.51-.79-.15,0-.91.68-1.69,1.51-.78.83-1.59,1.59-1.8,1.7-.21.11-.58.29-.8.41-1.09.55-2.66-1.81-2.06-3.11.19-.41.23-.94.1-1.16-.45-.74-.07-2.16.63-2.39.35-.12,1.24-.4,1.98-.64,1.15-.37,1.68-.75,3.75-2.71,2.46-2.33,3.14-3.17,2.87-3.59-.08-.13-.42-.06-.76.15-.34.21-1.76.71-3.17,1.11-3.44.97-8.14,3.77-9.17,5.47-.87,1.43-1.71,5.18-1.57,7.03.06.81,0,2.02-.12,2.69l-.23,1.21,2.54.31c2.47.3,4.82.07,6.86-.69,1.22-.45,4.81-2.8,5.99-3.91h0Z"/>
    <path id="path1-3-1-0" class="cls-2" d="M377.11,187.67c2.46-1.26,5.48-1.81,9.2-1.68,1.01.04,2.15-.63,3.56-2.08.58-.59,1.82.46,2.02,1.7.08.51.24,1.06.36,1.22.23.31.2,1.35-.09,3.94-.1.89-.12,2.01-.05,2.5.31,2.04.25,3.68-.23,6.37-.74,4.17-2.85,7.79-5.84,10.01-1.64,1.22-5.89,3.42-7.24,3.76-.64.16-2.19.8-3.43,1.43-1.24.63-3.04,1.4-3.99,1.73-.95.33-2.56,1.11-3.57,1.74-1.32.82-2.01,1.1-2.44.97-.83-.24-1.91-1.73-1.74-2.41.07-.3.04-.68-.08-.84-.12-.16-.47-.31-.78-.32-1.16-.06-2.45-2.89-1.6-3.52.58-.43,3.76-7.22,5.04-10.76,1.51-4.19,2.57-6.51,3.62-7.93.82-1.11,5.69-5.01,7.27-5.82h0ZM373.02,196.31c-1.09,1.19-2.11,3.11-2.58,4.83-.21.79-.5,1.6-.65,1.82-.14.21-.5,1.35-.8,2.53-.51,1.99-.5,2.13.11,1.95.58-.17,1.18-.74,2.94-2.79.29-.34.31-.68.05-1.04-.55-.74-.52-1.93.07-3.23.28-.61.69-1.58.91-2.16.34-.88.5-1.04,1.01-1.02.88.05,1.61.61,1.95,1.5.16.43.42.77.57.75.15-.01.86-.75,1.57-1.63.71-.88,1.47-1.71,1.67-1.83.2-.13.55-.34.77-.47,1.04-.63,2.78,1.6,2.29,2.95-.16.43-.16.95,0,1.16.5.7.24,2.15-.45,2.43-.34.14-1.21.5-1.93.79-1.12.46-1.62.87-3.54,2.98-2.28,2.5-2.89,3.39-2.59,3.79.09.12.43.03.75-.21s1.71-.84,3.08-1.34c3.36-1.22,7.83-4.37,8.73-6.14.76-1.5,1.31-5.29,1.03-7.13-.12-.81-.16-2.02-.08-2.69l.14-1.23-2.56-.12c-2.49-.12-4.81.3-6.79,1.2-1.18.54-4.59,3.15-5.68,4.35h0Z"/>
    <path id="path1-3-1-0-1" class="cls-2" d="M391.31,206.69c2.41-1.35,5.41-2.01,9.13-2.01,1.01,0,2.13-.71,3.48-2.21.55-.61,1.84.39,2.08,1.62.1.51.28,1.05.41,1.2.24.3.25,1.34.05,3.94-.07.89-.05,2.02.04,2.5.38,2.02.38,3.66,0,6.38-.59,4.2-2.56,7.89-5.47,10.22-1.6,1.28-5.76,3.64-7.09,4.02-.64.18-2.16.88-3.37,1.55-1.22.67-2.98,1.51-3.93,1.87-.94.36-2.52,1.2-3.51,1.87-1.29.87-1.97,1.17-2.4,1.06-.83-.21-1.97-1.66-1.83-2.34.06-.31.01-.68-.11-.84-.13-.16-.48-.29-.8-.29-1.16-.02-2.55-2.8-1.73-3.46.57-.45,3.49-7.35,4.64-10.93,1.36-4.24,2.34-6.6,3.33-8.06.78-1.14,5.51-5.22,7.05-6.08h0ZM387.54,215.48c-1.05,1.23-2,3.18-2.4,4.92-.18.79-.44,1.62-.58,1.84-.14.22-.45,1.37-.71,2.56-.43,2.01-.42,2.15.18,1.95.57-.19,1.15-.78,2.83-2.9.28-.35.28-.69,0-1.04-.58-.72-.59-1.91-.04-3.23.26-.62.63-1.61.84-2.19.31-.9.46-1.06.97-1.05.88.02,1.63.55,2,1.42.18.42.44.75.59.73.15-.02.83-.78,1.51-1.68.68-.91,1.4-1.76,1.6-1.89.2-.13.54-.36.75-.5,1.02-.67,2.84,1.5,2.4,2.86-.14.43-.13.96.03,1.16.53.68.31,2.14-.36,2.45-.34.15-1.19.54-1.9.86-1.11.5-1.58.93-3.43,3.11-2.19,2.59-2.76,3.5-2.45,3.89.1.12.43.02.74-.23.31-.25,1.67-.9,3.03-1.45,3.31-1.34,7.66-4.65,8.5-6.46.71-1.52,1.12-5.33.77-7.16-.15-.8-.23-2.01-.18-2.69l.1-1.23-2.56-.03c-2.49-.03-4.8.47-6.74,1.45-1.16.59-4.47,3.32-5.52,4.55h0Z"/>
    <path id="path1-3-1-1" class="cls-2" d="M518.74,221.35c2.76.24,5.61,1.38,8.68,3.47.83.57,2.16.61,4.12.14.8-.19,1.3,1.36.81,2.51-.2.48-.36,1.03-.34,1.22.03.39-.55,1.25-2.17,3.29-.56.7-1.17,1.64-1.37,2.09-.82,1.89-1.74,3.25-3.58,5.27-2.84,3.14-6.56,5.08-10.27,5.37-2.04.16-6.81-.23-8.13-.67-.63-.21-2.28-.48-3.66-.61-1.38-.13-3.32-.43-4.3-.66-.98-.23-2.76-.42-3.95-.43-1.55,0-2.28-.14-2.58-.47-.57-.64-.69-2.48-.19-2.97.22-.22.39-.56.38-.76-.02-.2-.24-.51-.49-.69-.95-.67-.53-3.75.52-3.83.72-.06,7.02-4.11,9.99-6.43,3.51-2.74,5.64-4.15,7.28-4.79,1.29-.51,7.49-1.22,9.25-1.06h0ZM510.68,226.49c-1.56.43-3.44,1.51-4.75,2.72-.6.55-1.28,1.09-1.51,1.19-.23.1-1.14.87-2.02,1.71-1.49,1.42-1.55,1.54-.94,1.71.58.16,1.39,0,3.97-.8.43-.13.62-.41.59-.85-.07-.92.58-1.91,1.78-2.69.56-.37,1.43-.97,1.92-1.34.76-.57.98-.62,1.39-.33.72.51,1.04,1.38.85,2.3-.09.45-.06.87.08.94.13.07,1.12-.17,2.2-.54,1.07-.37,2.15-.67,2.39-.66.24,0,.65,0,.9.01,1.22.02,1.5,2.84.37,3.71-.36.28-.64.72-.63.98.05.86-.94,1.95-1.67,1.82-.37-.06-1.29-.22-2.05-.36-1.19-.21-1.83-.12-4.58.65-3.26.91-4.25,1.34-4.21,1.83.01.15.35.25.74.22s1.89.19,3.32.5c3.49.75,8.95.46,10.66-.56,1.44-.86,3.92-3.78,4.67-5.49.33-.75.94-1.79,1.36-2.32l.77-.96-2.1-1.46c-2.05-1.42-4.23-2.31-6.39-2.59-1.29-.17-5.56.23-7.12.66h0Z"/>
    <path id="path1-3-1-94" class="cls-2" d="M456.52,223.45c-2.1-1.8-3.76-4.38-5.05-7.87-.35-.95-1.4-1.75-3.27-2.51-.76-.31-.27-1.86.8-2.51.44-.27.89-.63.99-.8.2-.33,1.17-.7,3.68-1.41.86-.24,1.91-.65,2.33-.9,1.77-1.06,3.31-1.63,5.98-2.21,4.14-.9,8.29-.32,11.48,1.6,1.75,1.06,5.4,4.14,6.22,5.27.39.53,1.57,1.72,2.62,2.63,1.05.91,2.45,2.28,3.12,3.04.66.76,2,1.95,2.96,2.64,1.26.91,1.78,1.44,1.82,1.89.09.85-.88,2.42-1.57,2.52-.31.05-.65.23-.75.4-.1.17-.1.55,0,.85.38,1.1-1.75,3.36-2.65,2.82-.62-.37-8.1-.74-11.86-.57-4.45.19-7,.09-8.71-.34-1.34-.34-6.8-3.36-8.15-4.52h0ZM466.07,223.95c1.52.56,3.68.77,5.44.55.81-.1,1.67-.14,1.92-.09.25.05,1.44-.05,2.64-.22,2.04-.29,2.16-.35,1.76-.85-.38-.47-1.13-.81-3.7-1.66-.43-.14-.75-.03-.98.35-.48.79-1.58,1.21-3.01,1.16-.67-.03-1.73-.04-2.35-.03-.95.02-1.16-.07-1.32-.54-.29-.83-.05-1.72.65-2.37.33-.31.55-.68.48-.81-.07-.13-1.02-.51-2.1-.84-1.09-.33-2.14-.71-2.33-.85-.2-.14-.52-.38-.73-.53-.98-.73.43-3.18,1.85-3.24.45-.02.94-.21,1.08-.43.46-.73,1.9-1.04,2.42-.51.26.26.92.93,1.46,1.48.85.87,1.42,1.16,4.1,2.14,3.18,1.16,4.24,1.38,4.49.96.08-.13-.13-.41-.47-.61-.34-.21-1.43-1.26-2.41-2.34-2.41-2.64-7.02-5.58-9-5.75-1.67-.14-5.39.79-6.99,1.75-.7.42-1.81.91-2.46,1.1l-1.19.34.86,2.41c.84,2.35,2.1,4.34,3.69,5.82.95.89,4.66,3.05,6.18,3.61h0Z"/>
    <path id="path1-3-1-5" class="cls-2" d="M470.46,194.35c-1.05-2.56-1.35-5.61-.91-9.31.12-1-.45-2.2-1.77-3.72-.54-.62.61-1.78,1.86-1.87.52-.04,1.08-.16,1.24-.26.33-.2,1.37-.09,3.92.42.88.17,2,.29,2.49.26,2.05-.14,3.68.06,6.33.76,4.1,1.08,7.53,3.49,9.49,6.65,1.08,1.74,2.92,6.15,3.14,7.52.11.65.62,2.24,1.14,3.53.52,1.29,1.15,3.14,1.39,4.12.25.98.89,2.64,1.43,3.7.71,1.38.93,2.09.77,2.51-.31.8-1.89,1.75-2.55,1.53-.3-.1-.68-.09-.85.01-.17.11-.35.45-.39.75-.16,1.15-3.09,2.2-3.64,1.3-.38-.62-6.88-4.35-10.3-5.91-4.05-1.86-6.28-3.11-7.6-4.27-1.04-.91-4.52-6.09-5.2-7.73h0ZM478.74,199.14c1.1,1.19,2.92,2.36,4.6,2.97.77.28,1.56.64,1.76.79.2.16,1.3.61,2.45,1.01,1.95.67,2.08.67,1.95.05-.12-.59-.64-1.23-2.54-3.16-.32-.32-.65-.36-1.03-.13-.78.49-1.96.36-3.21-.34-.59-.33-1.52-.82-2.08-1.09-.85-.41-1-.59-.93-1.09.12-.87.74-1.56,1.65-1.81.44-.12.8-.35.8-.5,0-.15-.67-.92-1.49-1.7-.82-.78-1.58-1.6-1.69-1.82-.11-.21-.29-.58-.4-.81-.54-1.09,1.83-2.64,3.13-2.04.41.19.93.24,1.16.11.74-.44,2.16-.06,2.39.65.11.35.4,1.25.63,1.99.36,1.16.74,1.68,2.68,3.77,2.31,2.48,3.14,3.16,3.57,2.9.13-.08.07-.42-.14-.76s-.7-1.77-1.08-3.18c-.94-3.45-3.7-8.17-5.4-9.21-1.43-.88-5.16-1.75-7.02-1.62-.81.05-2.02,0-2.69-.14l-1.21-.24-.33,2.54c-.32,2.47-.11,4.82.64,6.86.44,1.22,2.76,4.83,3.86,6.02h0Z"/>
    <path id="path1-3-1-16" class="cls-2" d="M525.01,198.92c2.77.04,5.69.96,8.91,2.83.87.51,2.2.45,4.12-.17.78-.25,1.4,1.26.99,2.45-.17.49-.28,1.05-.25,1.25.06.38-.45,1.29-1.92,3.44-.51.74-1.05,1.72-1.22,2.19-.68,1.94-1.5,3.36-3.19,5.52-2.61,3.34-6.17,5.55-9.85,6.11-2.02.31-6.8.27-8.15-.07-.64-.16-2.31-.31-3.7-.34-1.39-.03-3.34-.18-4.34-.34-1-.16-2.78-.22-3.97-.14-1.55.11-2.29.03-2.61-.28-.62-.6-.87-2.42-.41-2.94.21-.23.35-.59.32-.78-.03-.2-.27-.49-.54-.65-1-.6-.81-3.7.24-3.86.72-.11,6.7-4.62,9.49-7.15,3.3-2.99,5.33-4.55,6.91-5.31,1.25-.6,7.38-1.76,9.15-1.74h0ZM517.35,204.64c-1.52.54-3.32,1.76-4.54,3.06-.56.6-1.2,1.18-1.42,1.3-.23.12-1.08.96-1.89,1.86-1.38,1.53-1.44,1.65-.81,1.78.59.12,1.39-.1,3.9-1.09.42-.17.59-.46.53-.9-.14-.91.44-1.95,1.58-2.82.53-.41,1.35-1.08,1.82-1.48.72-.62.93-.69,1.37-.43.75.45,1.14,1.3,1.02,2.23-.06.45,0,.87.15.93.14.06,1.11-.26,2.15-.7,1.04-.45,2.1-.82,2.34-.84.24-.02.65-.04.9-.05,1.22-.07,1.71,2.72.65,3.68-.34.3-.59.76-.55,1.02.11.86-.8,2.01-1.53,1.94-.37-.03-1.3-.13-2.07-.2-1.21-.12-1.84.01-4.52.98-3.19,1.14-4.14,1.65-4.07,2.14.02.15.36.23.76.17s1.9.06,3.35.26c3.54.49,8.96-.19,10.59-1.34,1.38-.96,3.64-4.06,4.25-5.81.27-.77.81-1.86,1.19-2.42l.7-1.02-2.2-1.3c-2.14-1.27-4.39-1.99-6.56-2.11-1.3-.07-5.53.63-7.06,1.18h0Z"/>
    <path id="path2-4" class="cls-2" d="M525.48,291.52c.72-1.81,1.45-2.52,3.87-3.75,1.42-.72,2.32-.98,5.65-1.64,1.83-.36,4.85.27,9.34,1.95,4.47,1.67,6.65,2.32,7.93,2.33h.88s-.62,1.56-.62,1.56c-.34.85-1.01,1.91-1.48,2.36-.47.45-.93,1.07-1.02,1.38-.09.31-.77,1.1-1.52,1.74-.74.65-1.95,1.83-2.67,2.63-1.54,1.7-4.18,3.75-5.21,4.04-2.84.79-4.75.8-7.36.06-1.38-.4-3.77-1.86-4.87-2.99-.46-.48-1.35-1.76-2.41-3.48-.57-.93-1.25-3.19-1.2-3.98.02-.33.33-1.33.68-2.22h0ZM531.47,297.62c2.46,2.01,4.89,2.48,7.19,1.4,1.15-.55,5.24-4.09,5.41-4.7.16-.54-.71-1.08-3.34-2.09-3.29-1.26-4.58-1.52-6.09-1.22-1.52.3-1.42.76.28,1.25,1.78.51,2.33,1.26,2.12,2.87-.16,1.19-.27,1.35-1.29,1.92-.78.43-1.34.53-1.87.34-1.23-.46-3.43-.97-3.48-.81-.02.08.45.56,1.06,1.05h0Z"/>
    <path id="path2-4-9" class="cls-2" d="M517.98,287.05c-1.56-1.16-2.06-2.05-2.61-4.71-.33-1.56-.34-2.49-.11-5.89.13-1.86,1.52-4.62,4.31-8.52,2.78-3.88,3.96-5.82,4.31-7.05l.24-.84,1.33,1c.73.55,1.59,1.47,1.9,2.04.31.57.79,1.18,1.07,1.34.28.17.86,1.03,1.29,1.92.43.89,1.26,2.36,1.85,3.26,1.24,1.93,2.54,5.01,2.54,6.08.03,2.95-.46,4.79-1.86,7.12-.74,1.23-2.78,3.16-4.16,3.92-.58.32-2.05.85-3.99,1.42-1.04.31-3.41.38-4.15.13-.31-.11-1.2-.66-1.97-1.24h0ZM525.44,282.85c2.58-1.86,3.67-4.08,3.21-6.58-.23-1.26-2.59-6.12-3.13-6.45-.48-.29-1.23.4-2.88,2.68-2.07,2.85-2.65,4.03-2.76,5.57-.11,1.55.36,1.57,1.28.05.95-1.58,1.82-1.92,3.32-1.3,1.11.46,1.24.61,1.52,1.74.22.87.17,1.43-.16,1.89-.76,1.07-1.83,3.06-1.69,3.15.07.04.65-.29,1.29-.75h0Z"/>
    <path id="path2-4-8" class="cls-2" d="M409.84,432.76c-1.6,1.11-2.6,1.3-5.29.99-1.58-.18-2.48-.46-5.62-1.76-1.73-.71-3.9-2.91-6.71-6.78-2.8-3.86-4.27-5.6-5.32-6.32l-.72-.49,1.37-.95c.75-.52,1.9-1.04,2.54-1.15.64-.11,1.37-.38,1.61-.59.25-.21,1.25-.49,2.23-.62.98-.13,2.63-.45,3.68-.72,2.22-.57,5.56-.82,6.58-.49,2.8.91,4.4,1.95,6.16,4.01.93,1.09,2.11,3.64,2.41,5.18.12.66.16,2.21.09,4.23-.04,1.09-.72,3.36-1.19,3.98-.2.26-1.01.93-1.8,1.48h0ZM408.21,424.36c-.94-3.03-2.71-4.77-5.22-5.13-1.26-.18-6.62.52-7.11.93-.43.37,0,1.29,1.63,3.58,2.05,2.86,2.98,3.79,4.41,4.38,1.44.59,1.6.15.45-1.2-1.2-1.41-1.25-2.33-.18-3.56.78-.9.97-.98,2.13-.89.89.07,1.41.29,1.74.75.77,1.06,2.33,2.71,2.45,2.6.06-.06-.07-.71-.31-1.46h0Z"/>
    <path id="path2-4-8-3" class="cls-2" d="M416.64,436.4c-1.49-1.25-1.93-2.17-2.33-4.85-.23-1.58-.2-2.51.24-5.88.24-1.85,1.79-4.52,4.81-8.25,3-3.71,4.3-5.58,4.72-6.78l.29-.83,1.27,1.08c.7.59,1.5,1.56,1.77,2.15.28.59.72,1.22.99,1.4.27.18.8,1.08,1.17,1.99.38.91,1.12,2.43,1.65,3.37,1.13,2,2.24,5.15,2.18,6.22-.15,2.94-.74,4.76-2.27,7-.81,1.19-2.96,2.99-4.38,3.67-.6.29-2.1.73-4.06,1.18-1.06.25-3.43.18-4.15-.12-.3-.12-1.16-.73-1.89-1.35h0ZM424.32,432.65c2.68-1.7,3.9-3.86,3.6-6.38-.15-1.27-2.22-6.26-2.75-6.62-.47-.32-1.25.33-3.03,2.5-2.23,2.72-2.89,3.86-3.08,5.39-.2,1.54.27,1.59,1.27.12,1.05-1.52,1.93-1.81,3.39-1.1,1.08.52,1.2.68,1.41,1.82.16.88.08,1.44-.27,1.88-.82,1.02-2.01,2.95-1.87,3.04.07.05.67-.26,1.33-.68h0Z"/>
    <path id="path2-4-8-1" class="cls-2" d="M358.43,215.42c-1.6,1.11-2.6,1.3-5.29.99-1.58-.18-2.48-.46-5.62-1.76-1.73-.71-3.9-2.91-6.71-6.78-2.8-3.86-4.27-5.6-5.32-6.32l-.72-.49,1.37-.95c.75-.52,1.9-1.04,2.54-1.15.64-.11,1.37-.38,1.61-.59.25-.21,1.25-.49,2.23-.62.98-.13,2.63-.45,3.68-.72,2.22-.57,5.56-.82,6.58-.49,2.8.91,4.4,1.95,6.16,4.01.93,1.09,2.11,3.64,2.41,5.18.12.66.16,2.21.09,4.23-.04,1.09-.72,3.36-1.19,3.98-.2.26-1.01.93-1.8,1.48h0ZM356.8,207.02c-.94-3.03-2.71-4.77-5.22-5.13-1.26-.18-6.62.52-7.11.93-.43.37,0,1.29,1.63,3.58,2.05,2.86,2.98,3.79,4.41,4.38,1.44.59,1.6.15.45-1.2-1.2-1.41-1.25-2.33-.18-3.56.78-.9.97-.98,2.13-.89.89.07,1.41.29,1.74.75.77,1.06,2.33,2.71,2.45,2.6.06-.06-.07-.71-.31-1.46h0Z"/>
    <path id="path2-4-8-1-4" class="cls-2" d="M439.73,227.81c-1.6,1.11-2.6,1.3-5.29.99-1.58-.18-2.48-.46-5.62-1.76-1.73-.71-3.9-2.91-6.71-6.78-2.8-3.86-4.27-5.6-5.32-6.32l-.72-.49,1.37-.95c.75-.52,1.9-1.04,2.54-1.15.64-.11,1.37-.38,1.61-.59.25-.21,1.25-.49,2.23-.62.98-.13,2.63-.45,3.68-.72,2.22-.57,5.56-.82,6.58-.49,2.8.91,4.4,1.95,6.16,4.01.93,1.09,2.11,3.64,2.41,5.18.12.66.16,2.21.09,4.23-.04,1.09-.72,3.36-1.19,3.98-.2.26-1.01.93-1.8,1.48h0ZM438.1,219.41c-.94-3.03-2.71-4.77-5.22-5.13-1.26-.18-6.62.52-7.11.93-.43.37,0,1.29,1.63,3.58,2.05,2.86,2.98,3.79,4.41,4.38,1.44.59,1.6.15.45-1.2-1.2-1.41-1.25-2.33-.18-3.56.78-.9.97-.98,2.13-.89.89.07,1.41.29,1.74.75.77,1.06,2.33,2.71,2.45,2.6.06-.06-.07-.71-.31-1.46h0Z"/>
    <path id="path1-42-1" class="cls-2" d="M366.99,246.92c.6-1.32,1.04-4.22.98-6.47-.03-1.34.03-1.5,1.29-3.03,1.15-1.4,1.31-1.73,1.24-2.47l-.09-.85-1.36-.17c-1.15-.15-1.7.02-3.6,1.1-2.14,1.21-2.34,1.26-4.3,1.01-3.93-.49-7.73,1.76-8.39,4.96-.1.47-.39,1.5-.66,2.29-.96,2.87-1.47,4.61-1.54,5.25-.04.36-.93,2.42-1.99,4.58l-1.93,3.93.36,1.39c.41,1.59,1.16,2.3,1.65,1.55.18-.27.46-.39.64-.28.48.31,3.42-.24,4.02-.76.29-.24.99-.58,1.56-.76,1.28-.39,2.86-1.42,6.15-4.02,2.66-2.11,4.78-4.69,5.95-7.25h0ZM361.14,248.45c-.15,0,.11-.58.57-1.29,1.02-1.56,1.11-2.95.23-3.52-1.06-.69-1.95-.25-3.75,1.85-2.32,2.72-2.7,2.84-2.23.74.56-2.48,1.91-4.99,2.94-5.44.44-.19.94-.26,1.11-.16.17.11,1.01.26,1.89.34,1.5.13,1.6.18,1.77.85.1.39.13.77.06.84-.07.08-.21.63-.31,1.23-.1.6-.23,1.3-.29,1.55-.16.71-1.69,3.01-1.99,3h0ZM359.53,249.95c-.03-.13.1-.35.29-.48.2-.14.22-.05.05.24-.16.26-.31.37-.34.24h0Z"/>
    <path id="path1-42-1-6" class="cls-2" d="M343.95,314.02c.97,1.08,3.45,2.65,5.53,3.5,1.24.51,1.36.63,2.26,2.4.82,1.61,1.06,1.9,1.76,2.13l.81.26.7-1.17c.59-.99.66-1.57.44-3.74-.25-2.45-.21-2.65.8-4.35,2.03-3.4,1.5-7.78-1.17-9.67-.39-.28-1.22-.96-1.83-1.52-2.24-2.04-3.63-3.21-4.19-3.52-.31-.18-1.84-1.83-3.39-3.66l-2.82-3.34-1.42-.23c-1.62-.27-2.57.14-2.08.89.17.27.17.58,0,.7-.48.31-1.15,3.23-.92,3.99.11.36.14,1.14.06,1.74-.16,1.33.15,3.19,1.21,7.25.86,3.28,2.37,6.26,4.25,8.36h0ZM344.89,308.05c.06-.13.49.34.95,1.04,1.02,1.56,2.25,2.21,3.13,1.63,1.06-.69,1.01-1.68-.19-4.18-1.55-3.22-1.52-3.62.22-2.34,2.05,1.51,3.8,3.76,3.8,4.88,0,.48-.14.97-.3,1.08-.17.11-.65.82-1.07,1.59-.73,1.32-.81,1.39-1.49,1.28-.4-.06-.76-.19-.8-.29-.04-.09-.49-.45-1-.78-.51-.34-1.1-.74-1.3-.89-.58-.43-2.07-2.75-1.95-3.03h0ZM344.17,305.97c.13.03.28.23.32.45.05.25-.05.23-.24-.05-.18-.25-.21-.43-.08-.4h0Z"/>
    <path id="path1-42-1-8" class="cls-2" d="M515.63,376.38c-.32,1.41-.17,4.35.34,6.54.3,1.31.27,1.47-.65,3.23-.84,1.6-.94,1.96-.72,2.67l.26.82,1.36-.1c1.15-.09,1.66-.37,3.3-1.8,1.85-1.62,2.04-1.7,4.01-1.86,3.94-.31,7.21-3.28,7.21-6.55,0-.48.08-1.55.18-2.37.36-3.01.51-4.82.45-5.45-.04-.36.43-2.56,1.03-4.88l1.09-4.23-.63-1.29c-.72-1.47-1.6-2.02-1.93-1.18-.12.3-.38.48-.57.4-.53-.21-3.3.93-3.79,1.56-.23.3-.85.77-1.38,1.06-1.18.64-2.52,1.97-5.21,5.17-2.18,2.6-3.74,5.56-4.36,8.3h0ZM521.05,373.7c.15-.03.01.59-.3,1.38-.69,1.74-.5,3.11.48,3.5,1.18.46,1.96-.15,3.3-2.57,1.73-3.13,2.07-3.33,2.04-1.17-.05,2.54-.87,5.27-1.78,5.92-.4.28-.87.45-1.05.38-.18-.07-1.05-.05-1.92.05-1.49.17-1.6.14-1.91-.48-.18-.36-.28-.73-.23-.82.05-.09.08-.66.06-1.27-.02-.61-.03-1.32-.03-1.57.02-.72,1.05-3.29,1.34-3.34h0ZM522.33,371.9c.06.13-.03.36-.18.53-.17.18-.21.09-.1-.23.1-.29.23-.42.28-.3h0Z"/>
    <path id="path1-42-1-8-2" class="cls-2" d="M547.95,425.34c-1.45.05-4.25.94-6.24,1.99-1.19.63-1.35.64-3.29.19-1.76-.41-2.13-.41-2.76-.02l-.72.45.45,1.29c.38,1.09.77,1.51,2.58,2.74,2.03,1.38,2.16,1.54,2.82,3.41,1.3,3.74,5,6.15,8.17,5.32.47-.12,1.52-.31,2.34-.43,3-.41,4.79-.72,5.39-.95.34-.13,2.58-.24,4.99-.24h4.37s1.09-.95,1.09-.95c1.24-1.07,1.54-2.06.65-2.17-.32-.04-.56-.24-.53-.45.07-.56-1.74-2.96-2.47-3.27-.35-.15-.96-.63-1.37-1.07-.91-.98-2.54-1.94-6.33-3.73-3.07-1.45-6.32-2.21-9.13-2.11h0ZM551.92,429.9c.06.13-.57.16-1.41.06-1.85-.22-3.14.31-3.26,1.35-.15,1.25.64,1.86,3.32,2.54,3.47.88,3.75,1.16,1.65,1.67-2.47.6-5.32.5-6.18-.22-.37-.31-.65-.73-.63-.92.02-.2-.22-1.03-.53-1.84-.54-1.4-.54-1.51-.02-1.97.3-.26.63-.46.73-.43.1.03.66-.09,1.24-.26.59-.18,1.27-.37,1.52-.43.71-.17,3.44.18,3.57.45h0ZM553.98,430.69c-.11.09-.36.06-.56-.04-.22-.12-.14-.18.19-.15.31.03.47.11.36.2h0Z"/>
    <path id="path1-42-1-8-3" class="cls-2" d="M448.47,253.93c-.32,1.41-.17,4.35.34,6.54.3,1.31.27,1.47-.65,3.23-.84,1.6-.94,1.96-.72,2.67l.26.82,1.36-.1c1.15-.09,1.66-.37,3.3-1.8,1.85-1.62,2.04-1.7,4.01-1.86,3.94-.31,7.21-3.28,7.21-6.55,0-.48.08-1.55.18-2.37.36-3.01.51-4.82.45-5.45-.04-.36.43-2.56,1.03-4.88l1.09-4.23-.63-1.29c-.72-1.47-1.6-2.02-1.93-1.18-.12.3-.38.48-.57.4-.53-.21-3.3.93-3.79,1.56-.23.3-.85.77-1.38,1.06-1.18.64-2.52,1.97-5.21,5.17-2.18,2.6-3.74,5.56-4.36,8.3h0ZM453.89,251.25c.15-.03.01.59-.3,1.38-.69,1.74-.5,3.11.48,3.5,1.18.46,1.96-.15,3.3-2.57,1.73-3.13,2.07-3.33,2.04-1.17-.05,2.54-.87,5.27-1.78,5.92-.4.28-.87.45-1.05.38-.18-.07-1.05-.05-1.92.05-1.49.17-1.6.14-1.91-.48-.18-.36-.28-.73-.23-.82.05-.09.08-.66.06-1.27-.02-.61-.03-1.32-.03-1.57.02-.72,1.05-3.29,1.34-3.34h0ZM455.17,249.45c.06.13-.03.36-.18.53-.17.18-.21.09-.1-.23.1-.29.23-.42.28-.3h0Z"/>
    <path id="path1-42-1-8-38" class="cls-2" d="M498.8,246.61c-1.34-.54-4.26-.86-6.51-.71-1.34.09-1.5.03-3.08-1.16-1.45-1.09-1.78-1.24-2.52-1.13l-.85.12-.12,1.36c-.1,1.15.1,1.7,1.25,3.55,1.3,2.09,1.36,2.28,1.19,4.26-.32,3.94,2.09,7.65,5.31,8.17.48.08,1.52.33,2.31.56,2.91.84,4.67,1.28,5.31,1.31.36.02,2.46.83,4.66,1.8l4,1.76,1.37-.42c1.57-.47,2.25-1.26,1.47-1.72-.28-.16-.41-.45-.3-.63.29-.49-.39-3.41-.93-3.99-.26-.28-.63-.96-.82-1.53-.44-1.26-1.54-2.8-4.28-5.97-2.22-2.57-4.89-4.58-7.49-5.63h0ZM500.58,252.39c0,.15-.59-.08-1.31-.52-1.6-.95-2.99-.99-3.53-.08-.65,1.09-.17,1.95,2.01,3.66,2.81,2.21,2.96,2.58.83,2.2-2.5-.45-5.07-1.7-5.56-2.7-.21-.43-.3-.93-.2-1.1.1-.17.22-1.02.26-1.9.07-1.5.11-1.6.78-1.81.39-.12.76-.16.84-.09.08.07.64.19,1.24.26.61.08,1.31.18,1.56.22.71.13,3.08,1.56,3.08,1.86h0ZM502.15,253.93c-.13.03-.35-.09-.49-.27-.15-.2-.06-.22.24-.06.27.15.38.29.25.33h0Z"/>
    <path id="path3" class="cls-4" d="M452.57,554.72c-12.14-1.72-26.31-10.37-29.51-18.02-3.73-8.92.43-17.94,10.66-23.1,1.87-.94,5.99-3.73,9.16-6.19,3.17-2.46,8.95-6.09,12.86-8.05,6.22-3.14,7.13-3.36,7.36-1.8.15.98.62,9.89,1.05,19.8.44,9.99,1.26,18.49,1.84,19.07,1.6,1.6,8.44,1.53,10.04-.1,1.17-1.19,1.28-4.96.61-21.75-.44-11.17-.7-20.45-.57-20.62.13-.17,6.23,2.74,13.57,6.46,11.36,5.76,13.58,6.56,14.95,5.43,1.13-.94,1.44-2.35,1.05-4.77-.54-3.35-.5-3.4,1.68-1.99,4.09,2.66,9.77,12.15,11.5,19.22,2.49,10.18,1.32,17.5-3.52,22.07-10.88,10.27-41.73,17.32-62.73,14.35Z"/>
    <path id="path4" class="cls-5" d="M470.71,626.82c-11.72-1.71-26.08-5.53-28.4-7.55-1.98-1.72-2.83-4.46-4.89-15.8-1.37-7.54-3.47-17.73-4.66-22.65s-1.98-9.13-1.73-9.37,3.38.09,6.98.73,15,1.18,25.34,1.19c19.5.02,25.48-.72,48.25-5.99,5.59-1.29,10.27-2.24,10.41-2.1.14.14-.52,10.82-1.46,23.75-1.62,22.26-1.62,23.6.05,25.45,1.69,1.86,1.63,2.06-1.3,4.52-8.06,6.78-30.71,10.43-48.58,7.82h0Z"/>
  </g>
</svg>