<?xml version="1.0" encoding="UTF-8"?>
<svg id="Calque_1" data-name="Calque 1" xmlns="http://www.w3.org/2000/svg" xmlns:xlink="http://www.w3.org/1999/xlink" viewBox="0 0 1200 800">
  <defs>
    <style>
      .cls-1 {
        fill: #9a9cad;
      }

      .cls-2 {
        fill: none;
        stroke: #6b7280;
        stroke-width: 6px;
      }

      .cls-3 {
        fill: #fff;
        font-family: 'jgs_Font', jgs_Font;
        font-size: 70.62px;
      }

      .cls-3, .cls-4 {
        isolation: isolate;
      }

      .cls-5 {
        fill: url(#Dégradé_sans_nom);
      }

      .cls-6 {
        opacity: .6;
      }
    </style>
    <linearGradient id="Dégradé_sans_nom" data-name="Dégradé sans nom" x1="59.95" y1="1075.66" x2="60.95" y2="1074.66" gradientTransform="translate(-71940 860526) scale(1200 -800)" gradientUnits="userSpaceOnUse">
      <stop offset="0" stop-color="#1f2937"/>
      <stop offset="1" stop-color="#0b1020"/>
    </linearGradient>
  </defs>
  <rect class="cls-5" width="1200" height="800"/>
  <g class="cls-6">
    <rect class="cls-2" x="60" y="60" width="1080" height="680" rx="28" ry="28"/>
  </g>
  <g id="Calque_1-2" data-name="Calque 1-2">
    <g>
      <path class="cls-1" d="M349.38,413.07h221.68c9.45,0,17.1,7.66,17.1,17.1v44.13c0,9.45-7.66,17.1-17.1,17.1h-123.05c-9.45,0-17.1,7.66-17.1,17.1h0c0,9.45,7.66,17.1,17.1,17.1h107.26c9.45,0,17.1,7.66,17.1,17.1v44.13c0,9.45-7.66,17.1-17.1,17.1h-107.26c-9.45,0-17.1,7.66-17.1,17.1v39.85c0,9.45-7.66,17.1-17.1,17.1h-64.43c-9.45,0-17.1-7.66-17.1-17.1v-230.77c0-9.45,7.66-17.1,17.1-17.1v.03Z"/>
      <path class="cls-1" d="M628.16,412.66h221.68c9.45,0,17.1,7.66,17.1,17.1v44.13c0,9.45-7.66,17.1-17.1,17.1h-123.05c-9.45,0-17.1,7.66-17.1,17.1h0c0,9.45,7.66,17.1,17.1,17.1h107.26c9.45,0,17.1,7.66,17.1,17.1v44.13c0,9.45-7.66,17.1-17.1,17.1h-107.26c-9.45,0-17.1,7.66-17.1,17.1v39.85c0,9.45-7.66,17.1-17.1,17.1h-64.43c-9.45,0-17.1-7.66-17.1-17.1v-230.77c0-9.45,7.66-17.1,17.1-17.1v.03Z"/>
      <path class="cls-1" d="M349.59,122.5h64.43c9.45,0,17.1,7.66,17.1,17.1v39.85c0,9.45,7.66,17.1,17.1,17.1h107.26c9.45,0,17.1,7.66,17.1,17.1v44.13c0,9.45-7.66,17.1-17.1,17.1h-107.26c-9.45,0-17.1,7.66-17.1,17.1h0c0,9.45,7.66,17.1,17.1,17.1h123.05c9.45,0,17.1,7.66,17.1,17.1v44.13c0,9.45-7.66,17.1-17.1,17.1h-221.68c-9.45,0-17.1-7.66-17.1-17.1v-230.72c0-9.45,7.66-17.1,17.1-17.1h0Z"/>
      <path class="cls-1" d="M809.35,196.45h46.9c6.34,0,11.48,5.14,11.47,11.48l-.11,168.72c0,6.27-5.07,11.34-11.34,11.34h-233.35c-6.31,0-11.42-5.11-11.42-11.42v-242.69c0-6.54,5.35-11.89,11.89-11.89h163.12c6.35,0,11.48,5.14,11.47,11.49l-.08,51.48c0,6.35,5.13,11.49,11.47,11.49h0Z"/>
      <g class="cls-4">
        <text class="cls-3" transform="translate(633.67 365.44)"><tspan x="0" y="0">reader</tspan></text>
      </g>
    </g>
  </g>
</svg>