<?xml version="1.0" encoding="UTF-8"?>
<svg id="Calque_1" data-name="Calque 1" xmlns="http://www.w3.org/2000/svg" xmlns:xlink="http://www.w3.org/1999/xlink" viewBox="0 0 1200 800">
  <defs>
    <style>
      .cls-1 {
        fill: none;
        stroke: #6b7280;
        stroke-width: 6px;
      }

      .cls-2 {
        fill: maroon;
      }

      .cls-3 {
        fill: url(#Dégradé_sans_nom);
      }

      .cls-4 {
        opacity: .6;
      }

      .cls-5 {
        fill: #e8e8e8;
      }
    </style>
    <linearGradient id="Dégradé_sans_nom" data-name="Dégradé sans nom" x1="59.95" y1="1075.66" x2="60.95" y2="1074.66" gradientTransform="translate(-71940 860526) scale(1200 -800)" gradientUnits="userSpaceOnUse">
      <stop offset="0" stop-color="#1f2937"/>
      <stop offset="1" stop-color="#0b1020"/>
    </linearGradient>
  </defs>
  <rect class="cls-3" width="1200" height="800"/>
  <g class="cls-4">
    <rect class="cls-1" x="60" y="60" width="1080" height="680" rx="28" ry="28"/>
  </g>
  <g id="layer1">
    <path id="path2" class="cls-5" d="M364.02,563.15c1.79-2.11,3.27-3.99,3.29-4.19.02-.2,1.2-1.53,2.63-2.96,1.43-1.43,3.67-3.9,4.99-5.48,1.32-1.58,3.36-3.92,4.67-5.06,9.61-8.34,8.19-9.35,17.73-15.69,4.58-3.26,7.75-6.06,8.64-7.64l1.41-2.49,8.76.55c7.38.46,8.93.75,9.87,1.82.79.89.89,1.47.34,1.95-.97.85-9.79,1.6-11.42.96-.82-.32-1.52.05-2.21,1.14-.55.89-4.23,3.52-8.17,5.86-3.94,2.34-7.66,4.64-8.26,5.12-4.39,3.48-7.62,6.91-11.85,12.59-2.69,3.61-5.25,6.55-5.7,6.53-.45-.02-1.04.55-1.31,1.26-.27.7-1.97,2.68-3.77,4.39-3.64,3.45-4.01,4.47-2.06,5.68,2.16,1.33,34.05,5.8,37.9,5.31,2.28-.29,1.15-1.15,1.7-9.63.23-3.51-.33-9.6-.08-14.2l.39-7.25.69-2.09c.7-2.1,2.56-2.21,1.39-3.04-.36-.26-.62-1.19-.56-2.08.1-1.68,1.2-2.36,9.34-5.83,2.15-.91,4.34-2.02,4.87-2.47s1.28-.78,1.66-.76c.39.02,2.53-1.03,4.76-2.34,9.83-5.78,19.12-10.83,28.71-15.6,12.44-6.19,15.38-7.72,16.3-8.5.54-.45,2.16-1.6,3.61-2.55s3.04-2.06,3.54-2.47c1.24-1.03,9.19-1.11,20.23-.21,10.62.87,39,1.24,45.21.6,2.29-.24,6.18-.31,8.64-.15,2.46.15,8.36.2,13.12.12,4.75-.09,13.16-.2,18.67-.25,5.51-.05,13.14-.2,16.95-.33s10.6-.3,15.1-.38c4.65-.08,8.66-.49,9.28-.94.88-.64,1.07-1.74.96-5.33-.08-2.49-.15-7.48-.15-11.09,0-6.86-.94-9.5-3.12-8.81-1.68.53-18.65.5-28.71-.04-4.92-.27-10.36-.29-12.09-.05-1.72.24-7.96.46-13.85.48-5.89.03-17.24.07-25.22.1-7.98.03-14.99.2-15.57.39-.58.19-6.51.48-13.17.64-22.39.56-40.05,1.68-44.1,2.78-1.73.47-4.68.76-6.55.65-2.82-.17-3.79-.6-5.7-2.51-2.29-2.28-2.31-2.33-1.61-6.53.53-3.2.43-5.63-.41-9.94-1.66-8.58-1.26-11.86,1.92-15.53,1.43-1.65,2.64-3.56,2.68-4.24.14-2.28,4.03-5.29,12.54-9.7,2.27-1.18,7.33-5,11.24-8.5,3.91-3.5,8.56-7.23,10.34-8.31,5.13-3.1,17.32-11.97,17.36-12.64.08-1.24,2.9-.38,4.6,1.4,1.42,1.49,2.52,1.91,5.88,2.21,6.44.58,13.27.73,19.33.4,5.77-.31,9.83-.39,26.63-.47,5.51-.03,12.36-.19,15.22-.36,2.86-.17,9.23-.08,14.15.2,4.92.28,15.17.42,22.78.31,14.88-.22,15.57-.4,15.8-4.14.06-.97-.09-5.66-.32-10.42-.24-4.76-.36-13.01-.28-18.32.18-10.99-.04-15.99-1.42-33.25-.66-8.2-.67-8.29-3.15-20.92-3.18-16.18-4.32-19.27-7.17-19.44-1.15-.07-1.36.42-1.56,3.6-.3,4.89-2.57,7.96-6.4,8.67-1.97.36-3.87,1.58-6.81,4.35-2.24,2.12-5.06,4.67-6.26,5.67-6.51,5.43-8.99,7.63-11.33,10.09-2.51,2.63-2.6,2.9-3.11,8.97-.29,3.44-.93,7.27-1.43,8.51-1.14,2.85-1.66,19.74-.71,22.99.92,3.15-.28,5.03-5.36,8.31-2.16,1.4-5.76,4.01-7.98,5.79-8.7,6.98-11.47,8.79-17.29,11.33-3.32,1.45-7.43,2.75-9.14,2.9-1.71.15-3.7.75-4.43,1.33-1.23.98-1.54.96-4.29-.26-1.63-.72-4.58-2.7-6.55-4.38s-6.55-4.76-10.17-6.82-6.94-4.24-7.38-4.83c-.44-.6-.93-3.85-1.09-7.22-.17-3.38-.65-7.97-1.07-10.21s-.7-5.2-.61-6.57c.09-1.37-.26-5.64-.77-9.49-.51-3.85-1.03-8.21-1.17-9.69l-.25-2.69-3.24.16c-9.66.48-21.95,1.31-24.89,1.67-2.76.34-3.9.13-6.46-1.16q-3.67-1.86-3.95-12.91c-.11-4.57-.49-10.81-.83-13.87-.34-3.06-.93-8.69-1.31-12.52s-1.01-8.84-1.41-11.14c-.39-2.3-.92-6.22-1.17-8.71-.25-2.49-.77-6.71-1.15-9.4s-.83-7.84-.98-11.46-.52-10.17-.82-14.56c-.3-4.39-.62-11.87-.73-16.63-.1-4.76-.42-9.59-.71-10.75-.29-1.16-.84-5.08-1.22-8.71-.39-3.63-1.45-8.67-2.35-11.2-.91-2.53-2.34-7.12-3.17-10.21-.84-3.09-1.98-6.21-2.55-6.93-.9-1.14-.89-1.58.05-3.45.59-1.18,1.1-3.53,1.14-5.22.07-3.72.61-4.21,16.48-15.29,11.12-7.76,23.27-17.12,26.28-20.25,1.2-1.24,2.38-1.75,3.86-1.66,1.23.08,2.83-.45,3.78-1.24,1.57-1.3,2.42-1.33,17.14-.6,8.52.42,15.81.6,16.21.39.4-.21,7.63.04,16.07.57,8.44.53,18,.83,21.24.68,3.24-.15,10.42-.36,15.96-.45,9.69-.17,10.18-.11,12.8,1.44,2.27,1.34,2.89,2.21,3.66,5.14.82,3.1,1.16,3.54,2.84,3.65,1.05.06,2.5-.47,3.23-1.18,2.49-2.43,5.87-.88,6.57,3.02.21,1.19-.48,2.37-2.72,4.66l-3,3.06,1.97.59c1.08.33,5.8,1.5,10.48,2.6s10.34,2.54,12.58,3.2c2.24.66,6.36,1.87,9.16,2.7,16.01,4.72,39.97,16.63,51.8,25.75,14.11,10.87,30.75,27.57,34.36,34.47.72,1.37,2.84,4.38,4.72,6.68,3.23,3.96,6.72,9.35,9.35,14.44.65,1.25,2.23,3.9,3.51,5.88,7.06,10.89,19.29,41.15,21.48,53.15,1.92,10.53,3.06,18.65,2.94,20.96-.08,1.48.19,4.74.59,7.23,2.02,12.54,2.87,21.92,3.08,33.98.08,4.79.33,12.76.56,17.72.22,4.95.35,12.73.27,17.29-.07,4.55-.02,9.22.12,10.37.23,1.87.2,6.82-.14,23.82-.29,14.72-.31,23.77-.07,29.7.15,3.62.24,12.02.21,18.67-.14,25.42-.08,32.74.29,35.6.46,3.51.92,11.58.94,16.29.01,2.85.21,7.64.45,10.65.24,3.01.28,9.38.09,14.17-.31,8.07.82,25.4,1.97,30.26.27,1.16.43,2.57.35,3.13-.36,2.5.03,3.46,1.62,3.96,2.47.79,2.01,2.39-1.98,6.9-1.94,2.19-5.2,5.94-7.25,8.34-2.05,2.4-6.52,7.49-9.93,11.32-3.41,3.83-7.85,9.05-9.86,11.61-2.01,2.55-5.9,7.46-8.63,10.9-2.74,3.44-5.86,7.81-6.95,9.7-1.09,1.9-2.64,3.72-3.45,4.05-1.34.55-6.26.84-38.19,2.24-5.71.25-12.89.59-15.94.76-32.52,1.74-70.04,2.5-83.35,1.67-8.18-.51-27.4-.71-60.75-.63-28.39.06-51.01-.26-71.91-1.03-13.4-.49-36.92.28-39.21,1.29-.65.28-3.53.43-6.4.33-5.05-.18-5.28-.26-7.27-2.56-2.24-2.6-2.28-2.72-1.31-4.06,1.03-1.42-.24-4.87-1.99-5.43-.84-.27-4-.28-7.01-.04-6.14.5-37.83-.15-39.27-.81-.51-.23-1.85-2.08-2.98-4.1-1.99-3.57-2.04-3.93-1.85-12.74.11-5.04-.11-9.51-.5-10.07-.39-.55-.79-2.87-.91-5.15-.43-8.85-3.5-33.23-4.72-37.5-2.02-7.09-1.95-7.64,1.61-11.83h0ZM371.73,587.2c.56,4.21,1.2,9.69,1.41,12.18.21,2.48.69,6.4,1.07,8.7,1.31,7.99,1.74,13.31,1.22,14.96-.29.91-.2,3.85.19,6.53.56,3.85,1.14,5.3,2.72,6.9,1.9,1.93,2.36,2.05,8.81,2.45,8.7.54,31.94-.02,33-.79.6-.43.61-1.28.06-3.21-.42-1.44-.74-3.13-.72-3.75.09-2.57-2.66-3.2-19.61-4.52-3.33-.26-4.59-.66-5.6-1.81-.72-.81-2.73-2.26-4.46-3.22-2.8-1.54-3.42-2.34-5.41-7.07-2.42-5.72-3.66-12.26-2.81-14.8.29-.86,1.83-2.41,3.43-3.43,1.75-1.12,3.17-2.68,3.57-3.9.6-1.83,1.08-2.1,4.81-2.65,2.28-.34,6.41-.65,9.17-.7,9.61-.17,12.4-2.06,9.63-6.5-1.25-2.01-1.33-2.03-9.38-2.68-4.46-.36-11.19-1.27-14.94-2.03-3.75-.76-8.51-1.69-10.58-2.06-2.07-.37-4.48-.9-5.36-1.17-1.52-.48-1.6-.36-1.42,2.2.1,1.48.65,6.15,1.21,10.36ZM410.24,619.22c.58.27,2.59.58,4.45.7,3.89.24,3.88.27,2.8-6.25-.39-2.38-.95-6.21-1.24-8.51-.68-5.41-1.58-8.17-2.56-7.87-.43.13-.67.67-.54,1.2.13.53.19,3.86.13,7.4-.1,5.68-.29,6.6-1.57,7.85-2.49,2.42-3.11,4.73-1.48,5.48h0ZM418.49,566.96c.52,4.78,1.16,10.57,1.42,12.87.26,2.3.91,4.94,1.44,5.87.88,1.54,1.29,1.67,4.48,1.45,1.94-.14,4.08-.5,4.77-.82.69-.32,2.28-.52,3.54-.45,1.26.07,4.63-.17,7.51-.54,7.98-1.03,10.45-1.45,22.34-3.83,12.89-2.58,24.28-4.74,28.31-5.37,2.69-.42,8.03-1.33,11.87-2.03,10.38-1.88,17.93-3.04,19.88-3.06,8.55-.1,18.62-1.61,24.44-3.67,4.17-1.48,17.87-3.65,27.87-4.42,4.02-.31,10.67-1.45,23.39-4.02,4.23-.85,10.52-1.99,13.97-2.52,6.84-1.06,32.91-5.97,36.33-6.85,1.17-.3,5.88-1.11,10.46-1.81,4.59-.69,8.95-1.54,9.69-1.88.74-.34,4.18-.42,7.64-.18,8.62.6,16.35,3.28,22.42,7.77,2.54,1.88,5.37,3.87,6.29,4.42,6.42,3.82,15.09,19.06,16.11,28.32,1.06,9.64.77,15-1.01,18.93-.92,2.03-1.71,4.25-1.76,4.93-.09,1.41-2.88,6.35-4.28,7.59-.52.46-1.64,1.82-2.49,3.03-.85,1.21-3.36,3.31-5.58,4.68-2.21,1.37-5.19,3.27-6.62,4.23-1.45.97-5.73,2.49-9.68,3.44-3.89.93-8.89,2.2-11.1,2.83-2.97.84-6.14,1.06-12.14.82-4.47-.17-10-.1-12.3.17-2.3.27-8.85.66-14.56.87-23.86.89-36.19.58-77.25-1.97-26.27-1.63-45.82-2.53-53.73-2.46-6.84.05-17.11.13-22.82.17-6.41.04-19.64-.69-34.58-1.92-21.8-1.79-24.24-1.88-24.68-.92-.67,1.47.41,8.77,1.61,10.94.54.98,1.11,2.69,1.27,3.81.16,1.12.78,2.4,1.39,2.83,1.2.87,17.38.83,29.91-.07,3.82-.27,13.14-.15,20.71.27,7.57.42,17.81.72,22.76.66s15.82-.01,24.17.11c8.35.12,17.68.06,20.73-.13,3.05-.19,11.76-.24,19.35-.12,7.59.12,18.93.23,25.2.24,6.27.01,14.81.07,18.99.13,16.74.24,32.83.23,39.72-.03,12.21-.45,32.44-1.4,41.22-1.93,4.58-.27,12.37-.57,17.31-.66,8.51-.16,22.15-1.05,24.78-1.63.66-.15,1.54-1.25,1.96-2.45,1.6-4.64,3.21-61.78,2.74-96.65-.2-14.32-.36-17.54-1.31-25.3-.49-4.02-1.02-12.76-1.17-19.42-.33-14.44-1.03-25.46-2.07-32.6-.42-2.88-.9-8.04-1.07-11.46-.17-3.43-.59-8.74-.94-11.8-.35-3.06-1.04-9.79-1.52-14.95-.49-5.16-1.29-12.96-1.79-17.33-.5-4.37-1.03-10.62-1.17-13.89-.39-8.55-.94-14.45-1.42-15.37-.41-.76-.82-5.8-1.94-23.58-.68-10.81-2.16-20.77-4.46-29.93-.43-1.71-.75-3.55-.72-4.09.03-.54-.62-2.57-1.45-4.51-.83-1.94-2.18-5.96-2.99-8.92-.82-2.96-2.24-6.68-3.16-8.26s-2.83-5.58-4.25-8.9c-1.42-3.32-3.1-6.69-3.73-7.49-.63-.8-1.9-3.21-2.81-5.36-.91-2.15-2.42-5.19-3.35-6.77-.94-1.58-2.2-4.14-2.81-5.7-2.48-6.31-8.52-18.37-10.41-20.76-.35-.45-2.2-2.97-4.1-5.61-6.3-8.73-16.67-16.46-28.44-21.2-2.03-.82-6.7-3.04-10.39-4.95-7-3.62-11.58-5.61-17.83-7.76-2.05-.7-6.41-2.42-9.69-3.83-5.37-2.29-6.61-2.57-12.27-2.7-5.27-.13-6.97.14-10.44,1.6l-4.14,1.75.12,5.6c.07,3.08.36,9.03.64,13.23s.68,9.97.87,12.83c.19,2.86.4,6.92.46,9.01.23,7.83-.18,7.33,6.79,8.3,7.96,1.1,18.51,5.61,22.81,9.76.54.52,1.81,1.43,2.82,2.03,2.69,1.59,12.67,12.91,13.74,15.59.51,1.26,1.42,2.91,2.03,3.67,3.3,4.07,5.15,10.44,8.35,28.68,2.27,12.96,4.23,37.65,3.69,46.39-.33,5.28.15,28.57.62,30.57.17.73,1.12,2.9,2.09,4.82,2.05,4.03,2.09,4.82.42,7.61-1.47,2.46-2.29,13.89-1.54,21.7.43,4.54.34,5.19-.93,6.85-.77,1.01-1.77,2.43-2.22,3.16-.59.97-1.36,1.23-2.83.97-5.62-1-20.51-1.46-26.17-.81-3.44.4-9.55,1.03-13.56,1.42s-8.86.85-10.77,1.03c-1.91.19-6.44.49-10.06.69-3.62.19-8.15.52-10.06.74s-5.98.6-9.03.84-7.28.77-9.4,1.16c-3.55.65-15.09.8-37.68.46-4.93-.07-12.41.13-16.61.46-4.2.32-12.6.48-18.67.33l-11.04-.26-.3,1.71c-.39,2.18,4.34,16.11,5.83,17.18.8.58,3.06.68,7.92.35,8.41-.56,14.17-.85,31.4-1.57,7.43-.31,14.13-.67,14.9-.79.77-.12,7.93-.3,15.91-.4s17.94-.26,22.13-.36c4.19-.1,13.2-.16,20.04-.14,25.61.08,35.43-.02,42.41-.42,6.72-.39,7.28-.33,8.75.99,1.91,1.71,1.88,4.18-.11,6.99-1.9,2.69-2.51,8.34-1.86,17.42l.51,7.12,2.83,2.63c3.52,3.27,3.59,5.36.28,8.37-2.04,1.86-2.24,2.33-1.66,3.85.37.95.59,3.94.5,6.63-.16,4.92.38,8.8,2.05,14.67,1.09,3.82.98,7.24-.25,8.1-.5.35-2.09.93-3.53,1.3s-2.65.92-2.67,1.23c-.02.31-1.39,1.09-3.04,1.73-2.6,1.01-6.18,1.13-26.13.9-12.72-.15-34.28-.83-47.92-1.52-13.64-.69-28.8-1.13-33.69-.99-4.91.14-13.72-.21-19.64-.77-8.69-.83-13.29-.87-24.13-.23-7.36.44-13.66.94-13.99,1.12-.34.18-4.93.52-10.2.76-5.27.24-13.02.67-17.22.96-8.53.59-21.21.24-23.79-.66l-1.69-.59-.53,9.5c-.35,6.35-.22,12.38.42,18.19h0ZM424.59,610.06c.91,5.13,2.06,9.76,2.54,10.29,1.18,1.28,47,4.96,58.38,4.69,4.35-.11,11.8-.12,16.54-.03,4.74.09,14.22.22,21.05.28,13.86.13,29.34.88,59.92,2.92,11.35.76,23.29,1.23,26.53,1.05,3.24-.18,9.61-.11,14.15.15,8,.46,10.27.4,24.76-.71,7.3-.56,9.29-1.34,7-2.76-.75-.46-2.72-2.17-4.37-3.79-2.24-2.2-3.6-2.98-5.36-3.09-2.08-.13-2.5-.5-3.64-3.16-.71-1.66-2.33-4.79-3.61-6.96-2.31-3.93-5.52-14.74-5.96-20.11-.31-3.8,2.6-14.66,5.73-21.34,1.74-3.72,2.29-7.47,1.11-7.54-.41-.03-6.93,1.1-14.49,2.51-7.56,1.4-15.63,2.79-17.92,3.09s-6.23.99-8.73,1.54c-10.86,2.41-21.53,4.26-29.14,5.07-9.95,1.05-10.98,1.23-21.14,3.72-9.57,2.35-16.19,3.43-22.33,3.66-2.48.09-8.75.94-13.93,1.88-5.19.94-12.1,2.06-15.35,2.49s-6.48,1.02-7.15,1.33-1.91.51-2.73.46c-1.5-.09-4.53.49-14.93,2.88-3.08.71-8.71,1.75-12.51,2.31-3.8.56-7.14,1.15-7.41,1.29-.28.15-4.54.65-9.46,1.11-7.45.7-14.42,1.69-18.9,2.69-1.02.23-.93,1.16,1.38,14.1h0ZM439.07,533.27c3.8.16,15.97-.79,18.33-1.44.58-.16,3.08-.34,5.55-.4,2.47-.06,7.78-.39,11.79-.72,11.99-1,19.88-1.12,30.77-.48,5.68.33,15.29.46,21.36.27,7.82-.24,20.13.23,42.26,1.61,17.17,1.07,31.47,1.81,31.76,1.66.3-.16,3.31-.17,6.69-.04,3.39.14,10.97.15,16.86.03,10.08-.2,10.8-.31,12.32-1.88,1.06-1.09,1.52-2.21,1.34-3.26-.15-.88-.69-3.8-1.21-6.49-.51-2.69-.98-7.66-1.05-11.03-.15-8.13-.7-8.77-7.86-9.18-2.93-.16-10.63-.17-17.1-.02-16.46.39-36.93.7-48.75.74-5.51.02-13.29.17-17.29.33-4,.16-17.49-.31-29.98-1.04l-22.71-1.33-1.38,1.55c-.76.85-3.19,2.37-5.4,3.37-4.45,2.01-15.16,7.5-19.98,10.23q-3.85,2.18-8.8,4.17c-2.22.89-4.45,2.05-4.95,2.58-.5.53-2.15,1.5-3.68,2.17s-4.3,2.16-6.16,3.33-4.27,2.4-5.35,2.74c-3.29,1.02-1.95,2.34,2.58,2.53h0ZM472.27,181.41c.62,2.44,1.78,6.09,2.58,8.1.8,2.01,1.65,5.34,1.89,7.4.23,2.06.77,5.63,1.2,7.94.69,3.78.89,7.08,1.05,18.03.03,1.9.32,7.2.65,11.78s.81,12.38,1.07,17.34c.26,4.96.74,9.96,1.07,11.12s.85,4.92,1.16,8.36c.31,3.44,1.06,8.93,1.67,12.19.61,3.27,1.22,8.12,1.37,10.79.15,2.67.49,6.89.75,9.37.26,2.49.6,7.64.74,11.44.3,7.95.5,9.1,1.67,9.64.89.41,1.51.35,17.47-1.49,5.36-.62,14.88-1.3,21.16-1.52,6.28-.21,15.32-.61,20.09-.87,4.77-.26,12.4-.56,16.97-.65,10.64-.21,20.24-1.34,21.6-2.54,1.33-1.18,1.42-2.44.46-6.8-.42-1.9-.72-7.03-.68-11.4s-.24-10.29-.64-13.17-.84-8.03-.98-11.46c-.14-3.43-.53-11.54-.87-18.02-.34-6.48-.66-14.43-.7-17.66-.05-3.23-.4-8.07-.8-10.76-.39-2.68-.78-8.3-.85-12.49-.07-4.18-.47-10.58-.88-14.22-.41-3.63-.77-7.7-.8-9.03-.2-8.8-1.11-15.38-2.22-16.07-.76-.47-3.88-.62-8.67-.43-4.12.17-22.98-.41-41.93-1.28-39.1-1.8-52.14-1.68-54.62.51-1.32,1.17-1.32.52.01,5.81h0ZM477.49,166.21c8.21-1.37,18.68-1.38,45.11-.04,25.23,1.28,50.96,1.44,56.44.34,2.87-.57,11.2-6.18,16.5-11.11,1.86-1.73,5.7-4.71,8.53-6.63s5.84-4.31,6.69-5.33c1.43-1.7,1.48-1.98.59-3.54q-.96-1.69-13.56-2.27c-6.92-.32-28.24-1.31-47.38-2.21-27.48-1.29-35.2-1.46-36.74-.8-1.07.46-1.97,1.1-1.99,1.41-.02.32-1.73,1.57-3.8,2.8-2.07,1.22-5.4,3.59-7.41,5.26-6.65,5.55-11.77,9.57-14.21,11.16-8.87,5.79-14.36,10.45-13.5,11.43.12.14,2.24-.09,4.72-.5h0ZM489.73,434.01c2.85.05,7.67-.05,10.72-.22,8.1-.44,21.83-.5,35.59-.14,14.27.37,24.77-.05,47.79-1.94,9.36-.77,21.23-1.69,26.38-2.06s10.63-.91,12.17-1.22c1.54-.31,7.05-.51,12.24-.45,10.93.13,10.6.37,9.93-7.26-.21-2.48-.45-6.44-.52-8.8-.21-6.55-.63-6.8-11.22-6.51-4.78.13-12.49,0-17.14-.29-11.1-.69-26.62-.44-28.7.45-.91.39-2.16,1.75-2.78,3.01-1.13,2.29-1.14,2.3-4.71,1.65-12.02-2.17-34.57-4.68-37.71-4.21-4.65.7-14.06.04-15.65-1.09-1.08-.77-1.62-.7-3.3.48-1.11.77-4.34,2.33-7.19,3.48-6.26,2.51-9.23,4.47-17.78,11.7-3.61,3.05-8.12,6.65-10.03,8-2.46,1.74-3.43,2.87-3.35,3.9.11,1.35.48,1.46,5.29,1.53h0ZM537.83,379.36c.63.29,2.93,1.87,5.1,3.52,2.17,1.65,4.78,3.04,5.8,3.11,1.11.07,3.67-1.05,6.42-2.81,7.55-4.82,8.22-5.43,7.46-6.8-.58-1.03-1.89-1.26-9.41-1.61-8.81-.41-12.85.09-15.18,1.88-1.6,1.23-1.66,2.04-.19,2.71h0ZM594.29,285.31c.34,6.1.67,13.27.74,15.94.17,6.53.93,9.38,2.53,9.48.71.04,3.45-2.06,6.22-4.78,2.72-2.67,5.61-5.02,6.42-5.21.81-.19,2.29-1,3.29-1.81,1-.8,3.15-2.03,4.79-2.72s3.19-1.57,3.46-1.95c.27-.38-.05-2.04-.7-3.68-.65-1.64-1.23-4.86-1.29-7.14-.15-5.8-.88-10.05-1.92-11.18-.49-.53-3.66-2.42-7.04-4.19-7.45-3.9-14.03-5.3-16.14-3.44-1.45,1.28-1.44.72-.33,20.69ZM643.36,589.56c.39,1.92,1.44,5.56,2.33,8.09.89,2.52,2,5.91,2.46,7.52.52,1.8,2.51,4.86,5.17,7.92,5.69,6.57,6.26,7.04,12.79,10.69,7.32,4.09,11.64,4.82,19.24,3.25,3.08-.63,6.39-1.31,7.35-1.5,3.59-.72,8.09-3.28,12.53-7.14,5.83-5.07,6.45-6.02,8.77-13.37,1.56-4.92,1.89-7.09,1.79-11.42-.14-5.66-2.56-14.7-4.83-18.06-.71-1.04-2.56-3.84-4.11-6.22-2.3-3.51-4.23-5.3-10.26-9.52l-7.43-5.2-3.15.59c-1.73.32-7.28.63-12.33.67-10.71.1-13.37.88-18.8,5.54-5.82,5-8.07,8.12-10.85,15.08-1.17,2.93-1.48,9.05-.66,13.08h0ZM657.69,577.8c1.59-3.34,5.46-7.45,8.43-8.96,4.4-2.22,7.06-2.71,12.85-2.35,4.22.26,5.81.73,9.67,2.8,4.93,2.66,9.6,7.54,11.25,11.77.51,1.31,1.43,3.34,2.06,4.52,1.45,2.74,2.4,7.87,2.16,11.67-.14,2.3-.86,3.88-3.19,7-2.53,3.4-3.64,4.26-7.08,5.53-4.97,1.83-10.23,2.64-15.19,2.33-4.32-.27-12.76-4.51-15.47-7.77-2.42-2.92-5.27-9.06-6.09-13.12-.82-4.1-.52-11.11.59-13.43h0ZM664.36,592.24c2.19,6.96,9.03,12.67,15.59,13.03,4.18.23,10.55-.87,12.95-2.24,4.88-2.78,5.33-6.56,1.8-15.13-3.38-8.21-9.14-13.49-16.27-14.92-2.37-.48-3.82-.24-7.54,1.2-6.43,2.5-7.96,4.38-7.9,9.68.03,2.28.65,6.05,1.38,8.38h0ZM755.36,261.46c.36.26.68.16.7-.22.02-.38-.26-.9-.62-1.16-.36-.26-.68-.16-.7.22-.02.38.26.9.62,1.16h0ZM403.35,197.11c.83-2.02,2.84-5.85,6.74-12.83,2.71-4.85,4.51-7.33,5.64-7.77,3.88-1.49,7.06.23,6.87,3.71-.16,2.94,1.76,9.19,5.1,16.62,1.7,3.78,3.06,7.47,3.01,8.2-.1,1.68-2.42,2.76-4.51,2.1-1.05-.34-2.05-.13-2.88.61-1.1.97-1.26,1.97-1.21,7.4.04,3.45.23,8,.43,10.1s.45,7.87.55,12.81c.1,4.95.28,12.42.4,16.6.12,4.19.28,13.59.37,20.9.08,7.31.33,13.62.54,14.02.22.4,1.51.8,2.87.89,3.19.2,7.44,2.4,7.76,4.01.28,1.43-6.81,13.91-8.59,15.11-.65.43-2.52.71-4.17.6-2.72-.17-3.27-.53-6.02-3.9-1.66-2.04-4.7-5.71-6.75-8.15-4.13-4.92-4.43-6.86-1.2-7.77,1.48-.42,2.39-.25,3.79.69,3.48,2.36,3.67,1.65,3.79-13.48.11-14.86-.45-42.38-1.03-50.76-.2-2.86-.34-8.87-.32-13.34.02-4.48-.2-8.31-.5-8.52-.3-.21-1.54.05-2.75.59-5.31,2.34-10.25-2.9-7.96-8.45h0Z"/>
    <path id="path5" class="cls-2" d="M459.69,632.04c-2.63-.2-6.85-.54-9.38-.74-8.03-.66-15.15-1.17-17.66-1.26-1.34-.05-2.73-.12-3.09-.17-.36-.05-3.14-.27-6.17-.49-5.26-.39-5.54-.42-6.12-.62-1.9-.67-5.85-1.18-14.72-1.92-2.26-.19-4.46-.4-4.88-.47-1.66-.28-2.46-.65-3.38-1.58-.31-.32-.89-.82-1.27-1.11l-.7-.54,1.04-16.71,1.04-16.71.77-.09c2.02-.23,4.81-.42,7.04-.48,4.13-.12,6.13-.33,7.92-.84.75-.21.69-.21,4.54-.54,1.69-.15,4.12-.37,5.39-.5,2.16-.22,2.35-.22,2.88-.1.58.13.93.14,2.68.03,1.95-.12,3.96-.45,4.99-.81.94-.33,1.83-.44,3.69-.46,2.64-.02,4.74-.2,9.09-.77,6.55-.85,8.68-1.23,24.35-4.34,12.45-2.47,19.85-3.86,24.81-4.68,4.08-.67,7.25-1.21,11.75-2.01,7.87-1.4,12.38-2.14,15.96-2.63,2.39-.33,3.17-.39,6.15-.49,7.74-.27,16.06-1.61,21.92-3.52,2.54-.83,5.5-1.48,10.6-2.33,5.58-.93,11.07-1.61,17.73-2.2,4.26-.38,9.85-1.34,22.95-3.95,3.89-.77,8.62-1.64,12.17-2.23,1.61-.27,3.79-.63,4.86-.81,1.06-.18,1.96-.33,1.98-.33.03,0-.06,1.8-.2,3.99l-.25,3.99-1.78.32c-3.2.57-7.76,1.32-9.67,1.59-2.67.38-6.4,1.06-10.04,1.85-11.78,2.53-20.06,3.92-29.42,4.93-7.95.86-9.29,1.1-18.11,3.23-10.98,2.65-16.25,3.56-23.03,3.93-3.8.21-8.21.81-15.72,2.13-5.86,1.03-9.7,1.65-13.7,2.21-4.28.6-6.47,1.01-7.76,1.45-.77.26-1.85.43-2.53.39-1.42-.09-3.6.33-14.98,2.88-3.29.74-7.86,1.58-12.55,2.32-4.09.64-6.65,1.09-7.3,1.28-.57.16-2.95.45-7.39.9-7.9.8-11.76,1.28-15.88,1.95-2.45.4-5.1.93-5.46,1.09-.14.06-.73.13-1.3.16-.57.02-1.46.11-1.96.2-.51.08-1.39.2-1.96.26-1.36.14-2.47.3-3.16.46-.31.07-.66.14-.79.16-.14.02-.29.13-.38.29-.16.26-.17.58-.08,1.92.04.54.07,3.07.06,5.05,0,2.14-.14,5.26-.26,6.17-.22,1.65-.41,2.02-1.81,3.52-1.13,1.22-1.77,2.37-1.84,3.36-.06.77.15,1.25.67,1.56.71.43,3.78.82,6.92.88,1.23.02,4.05.14,6.27.26,3.32.18,4.17.24,4.77.38,4.68,1.07,30.29,3.34,46.1,4.08,6.93.32,8.66.37,12.43.31,6.62-.1,10.36-.09,20.47.07,1.98.03,6.89.1,10.91.14,11.08.13,12.62.16,18.55.37,8.36.29,13.49.56,35.53,1.91,14.36.88,24.73,1.48,26.99,1.56,5.94.22,9.04.27,10.99.18.89-.04,3.67-.1,3.94-.09h.2s-.3,4.44-.3,4.44l-.3,4.43-1.28-.02c-1.74-.03-8.5-.23-10.94-.32-6.43-.24-13.57-.63-35.4-1.91-27.04-1.59-37.92-2.15-47.24-2.43-5.58-.17-5.06-.17-20.18-.06-12.9.09-13.38.09-17.2-.03-4.06-.14-15.94-.83-21.55-1.26h0Z"/>
    <path id="path6" class="cls-2" d="M612.97,633.62l.27-4.36.55-.06c.3-.03,4.48.08,9.29.24,8.69.3,10.27.29,16.77-.12,9.24-.59,13.22-1,14.94-1.55.87-.28,1.9-.35,6.95-.47,3.26-.08,6.96-.21,8.22-.29,2.04-.12,2.4-.11,3.33.17.69.2,2.04.37,4.03.5,3.56.23,4.18.16,11.53-1.34,6.54-1.34,8.43-2.1,12.77-5.14,2.23-1.56,6.28-5.06,7.77-6.71,2.19-2.42,3.51-5.4,5.47-12.33.66-2.33,1.05-6.79.86-9.65-.32-4.68-2.03-11.5-3.8-15.18-.69-1.44-5.61-8.85-6.97-10.49-1.88-2.27-4.12-4.05-11.9-9.45l-4.14-2.87-2.21.38c-2.42.42-5.78.67-10.41.79-1.65.04-4.29.11-5.85.15-3.63.09-6.49.4-8.31.91-2.74.76-3.74.92-4.39.67-.47-.18-.68-.18-1.08-.01-.27.12-.88.24-1.34.27-1.72.12-6.33.75-11.08,1.5-2.7.43-5.14.75-5.44.72-.29-.03-1.39.09-2.43.26-1.84.3-18.13,3.18-18.73,3.32-.28.06-.28-.2-.05-3.89.23-3.62.27-3.96.54-4.02.16-.04,2.8-.51,5.86-1.06,7.56-1.35,19.06-3.54,23.89-4.56,2.18-.46,6.02-1.16,8.52-1.56,7-1.11,11.14-1.86,12.87-2.3,3.34-.87,10.02-.52,15.84.81,6.03,1.39,10.51,3.47,16.11,7.5,1.48,1.07,3.57,2.52,4.64,3.23,2.24,1.48,3.56,2.64,5.21,4.58,4.59,5.4,8.88,13.46,10.73,20.2.93,3.39,1.5,9.47,1.35,14.48-.12,3.89-.46,5.54-1.82,8.79-.54,1.29-1.18,3.07-1.41,3.95-.77,2.89-2.57,6.03-4.78,8.36-.41.43-1.26,1.44-1.89,2.25-1.57,2.02-3.51,3.54-8.6,6.78-5.88,3.74-7.59,4.44-15.58,6.39-2.28.56-5.75,1.42-7.71,1.92-5.2,1.33-6.53,1.45-14.34,1.26-5.01-.12-9.59-.05-11.94.17-7.6.73-25.44,1.34-37.7,1.29-2.34-.01-4.35-.02-4.46-.03-.16,0-.15-.99.06-4.37h0Z"/>
    <path id="path7" class="cls-2" d="M392.06,622.8c-.19-.14-1.12-.7-2.07-1.26-2.75-1.6-3.41-2.44-5.21-6.55-2.27-5.19-3.52-10.31-3.34-13.66.06-1.13.1-1.28.45-1.89.46-.79,1.89-2.12,3.31-3.07,1.84-1.23,3.17-2.67,3.62-3.93.36-1,.76-1.51,1.45-1.82.51-.23,2.37-.62,4-.83l.39-.05-1.04,16.67c-.57,9.17-1.08,16.66-1.12,16.66-.05,0-.24-.13-.43-.26h0Z"/>
    <path id="path8" class="cls-2" d="M396.81,599.25l-6.17,5.23"/>
    <path id="path9" d="M395.49,598.76c-.58.58-.98.94-1.47,1.6-.23.31-.42.65-.62.97-.45.72-.76,1.21-1.14,1.97-.16.33-.3.66-.45,1-.48,1.1-.82,2.29-.68,3.5.07.62.23,1.03.41,1.62.22.57.28.82.64,1.34.64.91,1.52,1.69,2.34,2.46,4.85,4.11,2.02.44,7.66,3.47,1.07.52,2.15,1,3.32,1.29.76.18,1.77.3,2.51-.01.28-.12.52-.29.79-.44,1.11-.54,2.13-1.28,2.94-2.2.17-.2.36-.39.48-.62.16-.3.24-.62.36-.94.34-1.12.53-2.28.76-3.43.12-.63.36-1.78.44-2.42.05-.42.07-.84.1-1.26,0-.42.03-.84.02-1.26-3.4-6.37-4.83-4.52-7.12-5.88-.33-.19-2.21.05-2.57-.07-1.03-.35-1.15-.18-1.15-.18h0s.62-.41,1.02-.41c.15,0,.28.09.42.13.52.17,1.04.3,1.56.47.97.31,1.94.63,2.87,1.04.35.15,1.36.7,1.04.49-15.49-6.86-15.46-.46-9.61-1.98-6.7,2.55-6.04,4.77-4.38,9.17-.23.01-.46.04-.7.04-.74-.02-1.45-.29-2.14-.5,5.6,5.67,2.89,2.56,9.39,6.43.13.08-.27-.13-.4-.21-.51-.3-.97-.67-1.47-.98-.68-.5-1.31-1.02-1.93-1.59-.35-.32-.73-.64-1.04-1-.15-.17-.27-.36-.41-.54-3-5.8,6.68-8.04,9.23-9.13,0,0-10.7-2.21-11.04-1.91h0Z"/>
    <path id="path10" class="cls-2" d="M419.79,309.54c-.59-.24-10.35-11.84-12.18-14.48-1.7-2.44-1.27-3.9,1.33-4.52.77-.18,1.72.04,2.7.64,2.08,1.26,3.28,1.17,3.83-.28.91-2.4.38-57.03-.78-80.92l-.26-5.3-1.47.29c-4.78.95-6.13.88-7.67-.42-1.82-1.53-2.6-4.06-1.97-6.33.55-1.97,8.05-15.93,10.15-18.89,1.58-2.22,3-3.05,5.23-3.05s3.3,1.27,3.77,4.91c.56,4.39,1.44,7.2,4.71,15.03,3.54,8.48,3.68,9.15,2.12,10.18-.89.58-1.69.7-3.07.47-1.61-.27-2.03-.15-3.05.87-1.14,1.14-1.18,1.4-1.18,6.93,0,3.16.2,9.21.45,13.45s.67,19.37.94,33.62c.27,14.25.61,26.49.75,27.19.21,1.03.58,1.32,1.97,1.56,4.76.81,8.09,2.43,8.41,4.09.27,1.41-5.57,12.03-7.9,14.36-.68.68-1.52.89-3.58.86-1.48-.02-2.94-.14-3.26-.27Z"/>
    <path id="path13" class="cls-2" d="M420.54,645.92c-.35-.35-.85-.59-1.46-.68-.73-.11-4.25-.09-5.89.03-2.14.16-4.38.21-9.31.21-11.39,0-26.58-.43-29.77-.85-.53-.07-.68-.11-.87-.25-.91-.64-3.53-4.9-4.17-6.78-.55-1.6-.6-2.72-.51-10.34.05-4.23,0-6.31-.17-8.05-.11-1.03-.18-1.36-.36-1.72-.42-.84-.7-2.59-.9-5.67-.15-2.36-.52-6.76-.68-7.98l-.03-.28h3.57c1.96,0,3.57.01,3.57.03,0,.16.49,3.58.76,5.31.46,2.94.72,4.86.93,6.74.28,2.53.32,3.15.32,4.99,0,1.66,0,1.78-.14,2.28-.4,1.51-.1,5.96.61,9.17.3,1.33.74,2.43,1.32,3.28.43.62,1.77,1.97,2.33,2.33,1.02.66,2.05.87,5.54,1.12,4.66.33,9.99.42,17.63.3,10.2-.17,16.72-.54,17.34-.99l.15-.11.13,1.44c.12,1.34.13,1.55.07,3.09-.05,1.43-.05,1.7.03,2,.05.19.09.48.09.65,0,.17.04.44.09.62.05.18.08.32.07.33,0,0-.13-.1-.27-.25h0Z"/>
    <path id="path14" class="cls-2" d="M420.57,645.9c-.22-.23-.75-.5-1.21-.63-.33-.09-.66-.1-2.8-.1-1.33,0-2.84.04-3.36.07-1.95.15-3.92.18-9.75.18-10.56,0-22.41-.29-27.72-.67-2.28-.17-2.39-.2-2.98-.88-.51-.6-1.64-2.29-2.32-3.48-.96-1.69-1.44-2.8-1.65-3.83-.23-1.14-.24-1.5-.22-8.06.02-6.38-.01-7.75-.2-9.44-.1-.88-.14-1.06-.38-1.66-.43-1.07-.64-2.47-.88-5.91-.2-2.92-.6-7.44-.67-7.78l-.03-.13h1.33c.73,0,2.33.02,3.55.04l2.22.04.31,2.17c.17,1.19.45,3.1.62,4.24.4,2.65.58,3.96.79,5.89.24,2.2.29,3.06.29,4.81,0,1.34-.02,1.6-.12,2.06-.1.42-.13.81-.15,1.92-.03,1.54.03,2.66.25,4.39.39,3.06.91,4.88,1.79,6.22.35.54,1.91,2.09,2.43,2.42.79.5,1.54.71,3.25.9,1.94.22,4.62.37,8.08.48,2.55.08,12.68.04,15.99-.06,8.5-.25,12.22-.51,13.15-.91.13-.06.14-.02.25,1.37.08.91.09,1.48.06,2.89-.04,1.77-.03,2.02.2,3.32.03.16.04.3.04.31,0,0-.09-.06-.18-.16h0Z"/>
    <path id="path15" class="cls-2" d="M420.51,645.86c-.3-.26-.66-.45-1.14-.58-.33-.09-.64-.1-2.77-.1-1.32,0-2.83.03-3.36.07-2.12.15-3.96.18-9.78.18-6.75,0-11.08-.06-17.45-.24-7.54-.21-11.91-.47-12.58-.73-.41-.16-1.2-1.15-2.23-2.8-1.21-1.93-2.04-3.61-2.33-4.74-.3-1.17-.31-1.38-.31-9.04,0-5.14-.03-7.33-.08-7.88-.13-1.35-.24-2.01-.45-2.53-.51-1.31-.64-2.21-.94-6.34-.23-3.21-.56-6.98-.65-7.41l-.03-.17,3.55.04c1.95.02,3.55.05,3.56.05,0,0,.05.35.11.77.09.68.23,1.63.95,6.45.3,2.03.47,3.29.66,5.05.24,2.17.29,3.03.29,4.8,0,1.38-.01,1.6-.13,2.13-.12.55-.13.74-.13,2.43,0,1.33.03,2.09.1,2.74.45,4.06,1.06,6.21,2.15,7.59.72.91,1.91,1.99,2.57,2.33,1.14.59,3.18.84,9.16,1.12,2.12.1,13.96.1,17.48,0,8.54-.24,12.49-.51,13.47-.91.13-.05.14-.02.25,1.37.07.84.09,1.62.08,3.01-.02,1.55,0,1.99.08,2.61.06.41.12.78.14.83.05.12.02.11-.24-.12h0Z"/>
    <path id="path16" class="cls-2" d="M366.88,603.45c-.45-.09-.45-.11-.78-3.27-.68-6.48-2.13-17.34-2.91-21.79-.19-1.09-.71-3.41-1.15-5.16-1.02-3.99-1.08-5.24-.32-6.74.27-.54,1.5-2.2,2.73-3.7,1.24-1.5,2.51-3.11,2.82-3.59s1.63-1.96,2.91-3.3,3.46-3.73,4.85-5.32c3.17-3.64,3.94-4.43,6.59-6.8,1.18-1.05,3.41-3.21,4.94-4.78,4.33-4.43,5.88-5.76,10.5-8.93,4.89-3.36,8.18-6.41,9.56-8.84l.87-1.54,1.01.1c.56.05,2.91.21,5.22.35,8.01.48,10.76.84,11.72,1.54.58.42,1.18,1.35,1.12,1.75-.03.2-.29.45-.63.61-1.38.66-7.71,1.24-10.15.94-.71-.09-1.33-.17-1.39-.17-.47-.06-.85.21-2.12,1.48-1.65,1.65-4.08,3.34-9.29,6.48-6.77,4.07-8.65,5.48-12.22,9.18-2.13,2.21-3.43,3.75-6.36,7.57-3.26,4.25-4.93,6.14-5.84,6.6-.53.27-.88.6-1.15,1.1-.61,1.11-1.37,2-3.99,4.68-2.3,2.36-3.13,3.46-3.13,4.19,0,.44.7,1.25,1.36,1.55,1.5.7,10.47,2.26,21.59,3.74,7.48,1,11.24,1.37,14.16,1.39l2.85.02v1.1c0,.61.08,1.15.17,1.21.09.06.17.58.17,1.16,0,.72.13,1.4.41,2.14.22.59.48,1.43.56,1.86.09.43.22.97.28,1.2.12.41.12.41-.46-.1-.88-.77-2.07-1-7.73-1.47-5.52-.46-12.39-1.39-16.43-2.23-.91-.19-4.18-.83-7.26-1.42s-6.31-1.26-7.16-1.48c-.85-.22-1.69-.41-1.86-.41-.84,0-.79,1.02.68,12.8.79,6.33,1.81,15.51,1.81,16.26,0,.16-5.74.21-6.56.05h0Z"/>
    <path id="path1" class="cls-5" d="M296.66,206.13c.06-.07.61-8.15,1.23-17.96.61-9.81,1.61-22.38,2.21-27.94.6-5.56,1.58-15.44,2.18-21.97,1.58-17.39,3.01-26.76,4.38-28.75,1.53-2.22,4.79-2.21,6.99.04,1.73,1.77,1.69,3.4-.45,16.04-.46,2.73-1.25,11.16-1.76,18.74-.51,7.58-1.37,17.57-1.92,22.19-2,16.95-3.76,81.96-2.75,101.61.23,4.44.26,13.6.07,20.34-.19,6.75-.21,16.42-.04,21.49.17,5.07.35,13.54.41,18.82.14,12.03,1.14,36.59,1.88,45.74.31,3.81.65,8.14.75,9.62,1.64,22.43,3.29,42.58,3.64,44.64.18,1.06.69,5.92,1.12,10.79.44,4.87,1.2,12.32,1.71,16.56.94,7.88,1.31,12.19,2.63,30.41.41,5.71,1.49,18.36,2.4,28.1.9,9.74,2,22.21,2.44,27.72s1.05,12.09,1.36,14.63c.31,2.54.65,7.05.76,10.01.11,2.96.42,9.71.69,14.99.27,5.29.46,13.24.44,17.67-.03,4.43.08,11,.25,14.59.47,10.22.51,11.97.6,23.82.04,6.12.19,12.17.33,13.44.14,1.27.39,3.7.56,5.39.17,1.69.67,6.2,1.12,10.02.45,3.82.95,9.7,1.11,13.09.34,7.07.55,8.88,1.11,9.5.71.78,15.37,1,25.05.38,5.15-.33,24.01-.45,41.9-.26,17.89.18,35.33.13,38.75-.13,3.42-.26,18.23-.1,32.9.35,14.67.45,29.38.79,32.67.75,19.24-.24,59.81.08,85.25.68,23.66.55,35.62.49,47.13-.25,10.4-.67,17.03-.98,23.6-1.11,7.62-.14,35.04-1.4,37.83-1.73,1.24-.15,6.8-.34,12.36-.43,5.56-.09,10.32-.28,10.57-.42.47-.26,22.29-.11,51.14.33,35.98.56,52.68.47,68.67-.37,31.83-1.66,38.76-.45,40.22,7.03.6,3.05-1.53,3.57-12.98,3.22-5.21-.16-14.03-.11-19.59.11-11.49.47-40.65.45-86.39-.05-26.95-.29-57.96.24-66.99,1.16-1.45.15-5.32.36-8.62.47-8.93.3-13.58.51-38.21,1.74-36.89,1.84-40.91,1.9-66.61.97-21.81-.79-49.43-.87-68.44-.21-3.5.12-17.3-.03-30.66-.35-13.36-.31-30.02-.51-37.01-.42-7,.08-14.07.12-15.71.08-1.64-.04-3.25.26-3.57.68-.36.46-.57.38-.55-.22.02-.68-.8-.87-2.79-.62-1.55.19-5.17.38-8.06.42-2.88.04-5.24.13-5.24.19,0,.06-1.69.2-3.75.31-2.58.14-3.39-.02-2.6-.5,1.4-.86,1.6-.86-8.98.07-9.55.84-17.76,1.22-28.47,1.33-3.91.04-10.31.3-14.23.57-6.32.44-11.54.49-20.22.18-2.22-.08-2.75-.45-3.38-2.37-.68-2.07-1.02-2.26-3.65-2.09-4.54.3-5.32-.25-5.25-3.69.04-1.67.39-3.22.79-3.46.4-.24.49-.84.21-1.35-.29-.51-.51-3-.5-5.53.03-5.41-.25-7.1-1.73-10.31-.6-1.31-1.06-3.53-1.01-4.95s-.25-2.94-.66-3.39c-.51-.56-.48-1.46.07-2.81.49-1.19.55-2.17.15-2.45-.37-.25-.4-3.53-.07-7.32.51-5.81.43-6.87-.54-6.9-.63-.02-1.13-.38-1.12-.81.01-.42.32-.76.68-.74,1.06.04,1.77-4.38,1.05-6.53-.44-1.31-.41-1.82.07-1.49.4.27.75-.04.77-.7.02-.66-.29-1.21-.71-1.22-.41-.01-.72-.91-.68-1.99.04-1.29.36-1.76.91-1.38.51.35.65.23.37-.28-.53-.96-.81-4.28-1.2-14.21-.21-5.49-.07-6.72.78-6.7.74.02.8-.15.19-.58-.49-.34-.94-3.55-1.05-7.51-.11-3.8-.32-11.06-.47-16.13-.15-5.07-.53-9.87-.86-10.66-.4-.98-.25-1.65.48-2.09.68-.41.8-.87.34-1.25-.4-.33-.74-1.92-.76-3.53-.02-1.61-.42-3.44-.89-4.06-.61-.8-.61-1.12-.01-1.1.46.02.85-.32.87-.74.01-.42-.47-.78-1.08-.8-.84-.03-.97-.61-.55-2.44.32-1.37.26-2.23-.14-2-.4.23-.56-2.44-.39-6.23.16-3.65.13-9.4-.08-12.79-.21-3.38-.52-8.58-.69-11.54-.17-2.96-.6-5.79-.97-6.29-.43-.59-.32-1.01.31-1.21.79-.24.79-.55,0-1.6-.54-.71-.96-3.12-.94-5.34.02-2.44-.37-4.39-.98-4.92-.74-.64-.78-1.02-.14-1.39,1.29-.76,1.17-3.46-.18-4.05-.94-.41-.97-.63-.15-1.13.73-.45.79-.8.21-1.23-.91-.67-.84-4.2.09-4.85.33-.23.14-1.42-.43-2.65-.57-1.22-.83-2.52-.59-2.89.7-1.08.95-7.46.29-7.48-.33-.01-.39-.35-.13-.75.26-.4.17-2.09-.21-3.76-.38-1.66-.73-5.4-.8-8.3-.06-2.9-.45-6.26-.86-7.47-.41-1.21-.54-2.51-.3-2.89.25-.38.18-.7-.16-.71-.33-.01-.59-2.29-.57-5.06.02-2.77-.24-5.46-.59-5.97-.34-.51-.63-3.16-.65-5.89-.01-2.73-.23-5.33-.48-5.77-.25-.45-.47-1.16-.48-1.58,0-.42-.22-2.16-.48-3.85-.25-1.7-.48-5.55-.51-8.55-.03-3.01-.21-5.78-.4-6.15-.2-.38-.34-2.59-.33-4.91.03-3.82-.25-8.07-.53-8.08-.12,0-.31-3.96-.6-12.87-.11-3.27-.47-6.57-.8-7.32-.33-.75-.59-3.31-.59-5.68,0-2.37-.4-5.93-.9-7.9-.57-2.22-.64-3.75-.18-4.01.89-.52.74-4.11-.23-5.56-.38-.58-.66-4.21-.61-8.08.05-3.87.03-7.04-.03-7.04-.06,0,0-3.63.13-8.06.13-4.43-.09-8.49-.48-9.04-.49-.67-.46-.98.09-.96.54.02.75-1.82.63-5.54-.41-12.54-.47-17.73-.31-30.91.18-15.47.24-32.55.17-50.27-.04-11.35.32-32.98.55-33.24h0ZM316.6,100.74c1.04-1.36,2.16-1.44,15.57-1.09,7.95.21,16.64.11,19.33-.2,2.69-.32,13.1-.34,23.15-.05,10.04.29,20.65.26,23.56-.07,28.96-3.29,53.5-3.74,106.33-1.98,20.09.67,35.5.85,39.63.45,8.15-.78,131.57,3.84,169.2,6.33,13.34.88,37.86,2.43,54.49,3.43,16.63,1,37.95,2.45,47.39,3.22,24.33,1.98,44.66,3.35,61.94,4.17,13.55.64,15.17.58,17.46-.67,2.78-1.52,5.36-1.16,7.09.96.66.82,1.15,3.75,1.31,7.77.13,3.55.47,6.85.75,7.32,1.08,1.84,1.35,38.59.6,84.14-.24,14.97-.35,27.4-.23,27.63.12.22.08,11.28-.09,24.57-.17,13.29-.18,24.4-.03,24.69.15.29.25,6.85.21,14.59-.04,7.74.11,14.59.33,15.23.69,1.96-5.56,183.22-6.49,188.6-.48,2.73-1.18,9.96-1.57,16.06-2.62,41.02-3.81,66.44-3.91,82.92-.06,10.42-.69,31.95-1.4,47.84-1.26,28.02-1.34,28.92-2.85,29.93-.86.57-2.48.9-3.6.73-1.87-.29-2.07-.66-2.42-4.55-.21-2.33-.14-7.16.16-10.74,1.11-13.35,2.04-40.02,2-57.12-.08-32.33,2.47-88,4.99-108.83,1.04-8.59,1.34-23.82.8-41.04-.13-4.02-.13-8.16-.02-9.21,1.13-10.29,2.75-49.16,3.01-72.43.11-10.13.39-27.91.61-39.51.22-11.6.31-23.86.19-27.24-.31-8.83-.29-22.68.06-43.75.17-10.13.18-20.49.02-23.03-.16-2.54-.08-14.8.19-27.24.8-38,.96-57.44.54-68.3-.22-5.71-.46-14.52-.55-19.59-.08-5.07-.41-9.58-.73-10.03-.36-.51-7.16-1.13-17.97-1.65-9.57-.46-17.57-.96-17.78-1.1-.21-.15-9.43-.8-20.48-1.45-11.05-.65-20.35-1.36-20.66-1.58-.32-.22-16.29-1.32-35.5-2.44-19.21-1.13-36.94-2.21-39.4-2.41-21.17-1.68-53.87-3.26-115-5.56-58.24-2.19-74.53-2.58-86.7-2.06-11.45.49-20.98.31-40.37-.75-15.18-.83-28.85-1.19-34-.91-4.74.26-15.18.43-23.2.38-15.78-.09-25.36.38-37.09,1.82-4.5.55-17.25.87-31.82.79-13.37-.07-26.67.13-29.56.46-10.88,1.22-22.87-.11-26.27-2.9-2.42-1.99-2.62-2.74-1.22-4.56h0Z"/>
  </g>
</svg>