<?xml version="1.0" encoding="UTF-8"?>
<svg id="Calque_1" data-name="Calque 1" xmlns="http://www.w3.org/2000/svg" xmlns:xlink="http://www.w3.org/1999/xlink" viewBox="0 0 1200 800">
  <defs>
    <style>
      .cls-1 {
        fill: none;
        stroke: #6b7280;
        stroke-width: 6px;
      }

      .cls-2 {
        fill: maroon;
      }

      .cls-3 {
        fill: url(#Dégradé_sans_nom);
      }

      .cls-4 {
        opacity: .6;
      }

      .cls-5 {
        fill: #497fce;
      }

      .cls-6 {
        fill: #e8e8e8;
      }

      .cls-7 {
        fill: #052;
      }
    </style>
    <linearGradient id="Dégradé_sans_nom" data-name="Dégradé sans nom" x1="59.95" y1="1075.66" x2="60.95" y2="1074.66" gradientTransform="translate(-71940 860526) scale(1200 -800)" gradientUnits="userSpaceOnUse">
      <stop offset="0" stop-color="#1f2937"/>
      <stop offset="1" stop-color="#0b1020"/>
    </linearGradient>
  </defs>
  <rect class="cls-3" width="1200" height="800"/>
  <g class="cls-4">
    <rect class="cls-1" x="60" y="60" width="1080" height="680" rx="28" ry="28"/>
  </g>
  <g id="layer1">
    <path id="path1" class="cls-6" d="M291.15,203.71c.06-.07.62-8.27,1.24-18.22.62-9.95,1.63-22.7,2.24-28.34.61-5.64,1.61-15.66,2.21-22.28,1.61-17.63,3.06-27.15,4.45-29.17,1.55-2.26,4.86-2.24,7.08.04,1.76,1.8,1.71,3.45-.45,16.27-.47,2.77-1.27,11.32-1.79,19.01-.52,7.69-1.39,17.82-1.95,22.51-2.03,17.19-3.82,83.14-2.79,103.06.23,4.5.26,13.79.07,20.63-.19,6.84-.21,16.65-.04,21.8.17,5.14.36,13.73.42,19.09.14,12.2,1.16,37.11,1.91,46.39.31,3.86.65,8.26.76,9.76,1.67,22.75,3.34,43.19,3.7,45.28.19,1.08.7,6,1.14,10.94.44,4.94,1.22,12.5,1.73,16.8.95,7.99,1.33,12.36,2.67,30.85.42,5.8,1.51,18.62,2.43,28.5.92,9.88,2.03,22.53,2.47,28.11.44,5.58,1.06,12.26,1.38,14.84.31,2.58.66,7.15.77,10.15.11,3,.43,9.84.7,15.21.27,5.36.47,13.43.44,17.92-.03,4.5.08,11.16.25,14.8.48,10.37.52,12.14.6,24.16.04,6.21.19,12.35.33,13.64.14,1.29.39,3.75.57,5.47.17,1.72.68,6.29,1.14,10.16.45,3.87.96,9.84,1.12,13.27.34,7.17.56,9.01,1.12,9.64.72.79,15.58,1.01,25.41.38,5.23-.33,24.35-.45,42.5-.27,18.15.19,35.83.13,39.3-.13,3.47-.26,18.49-.1,33.37.36,14.88.46,29.8.8,33.13.76,19.51-.25,60.67.08,86.47.69,24,.56,36.13.5,47.81-.26,10.55-.68,17.28-1,23.94-1.12,7.73-.15,35.54-1.42,38.38-1.76,1.26-.15,6.9-.35,12.53-.43,5.64-.09,10.46-.28,10.73-.42.47-.26,22.6-.12,51.87.34,36.49.57,53.44.48,69.65-.37,32.28-1.69,39.31-.46,40.8,7.13.61,3.09-1.56,3.62-13.16,3.26-5.29-.17-14.23-.11-19.87.11-11.66.47-41.24.45-87.63-.05-27.34-.3-58.79.25-67.95,1.18-1.47.15-5.4.36-8.74.48-9.06.31-13.78.52-38.76,1.77-37.42,1.87-41.49,1.93-67.56.98-22.13-.8-50.14-.89-69.41-.21-3.55.12-17.54-.03-31.09-.35-13.55-.32-30.44-.51-37.54-.43-7.1.08-14.27.12-15.94.08-1.67-.04-3.29.27-3.62.69-.36.47-.58.38-.56-.22.02-.69-.81-.88-2.83-.63-1.57.19-5.25.38-8.17.43-2.92.04-5.32.13-5.32.19,0,.06-1.71.2-3.8.32-2.62.14-3.44-.02-2.64-.51,1.42-.87,1.63-.87-9.11.07-9.69.85-18.01,1.24-28.88,1.35-3.97.04-10.46.3-14.44.58-6.41.45-11.71.49-20.51.18-2.26-.08-2.79-.45-3.43-2.41-.69-2.1-1.03-2.3-3.7-2.12-4.61.3-5.4-.26-5.32-3.74.04-1.69.4-3.27.8-3.51.41-.24.5-.86.21-1.37-.29-.52-.52-3.04-.5-5.61.03-5.49-.26-7.2-1.76-10.46-.61-1.33-1.07-3.58-1.02-5.02.05-1.43-.25-2.98-.67-3.44-.51-.56-.49-1.49.07-2.85.5-1.21.56-2.2.15-2.48-.38-.26-.41-3.58-.07-7.43.52-5.89.43-6.97-.55-7-.64-.02-1.15-.39-1.13-.82.02-.43.33-.77.69-.75,1.07.04,1.79-4.44,1.07-6.63-.44-1.33-.42-1.84.07-1.51.41.28.76-.04.78-.71.02-.67-.3-1.22-.72-1.24-.42-.01-.73-.92-.69-2.02.05-1.31.36-1.79.92-1.4.51.35.66.24.37-.29-.54-.97-.82-4.34-1.22-14.42-.22-5.57-.07-6.82.79-6.8.75.02.81-.15.19-.58-.5-.35-.95-3.6-1.07-7.62-.11-3.85-.32-11.22-.47-16.36-.15-5.14-.54-10.01-.87-10.81-.4-.99-.25-1.67.49-2.12.68-.42.81-.89.34-1.27-.41-.34-.75-1.95-.77-3.58-.02-1.64-.42-3.49-.9-4.12-.61-.82-.62-1.14-.01-1.12.47.02.86-.32.88-.75.02-.43-.48-.8-1.09-.82-.85-.03-.98-.62-.55-2.48.32-1.39.26-2.26-.14-2.02-.4.24-.57-2.47-.4-6.32.17-3.7.13-9.54-.08-12.97s-.53-8.7-.7-11.7c-.17-3-.61-5.88-.98-6.38-.43-.59-.32-1.03.32-1.22.8-.25.8-.56,0-1.62-.54-.73-.97-3.16-.95-5.42.02-2.48-.37-4.45-1-4.99-.75-.65-.79-1.03-.14-1.41,1.31-.77,1.19-3.51-.19-4.11-.95-.41-.98-.64-.15-1.15.74-.45.8-.81.21-1.25-.92-.68-.85-4.26.09-4.92.33-.24.14-1.44-.44-2.68-.57-1.24-.85-2.56-.6-2.93.71-1.1.96-7.56.29-7.58-.34-.01-.4-.36-.13-.76.27-.41.17-2.12-.21-3.81-.38-1.69-.74-5.48-.81-8.42-.06-2.94-.46-6.35-.87-7.58-.42-1.23-.55-2.55-.3-2.93.25-.38.18-.71-.16-.72-.34-.01-.6-2.32-.58-5.13.02-2.81-.25-5.53-.6-6.05-.35-.52-.64-3.21-.66-5.97-.01-2.77-.23-5.4-.49-5.86-.26-.45-.47-1.17-.48-1.6,0-.43-.23-2.19-.49-3.91-.26-1.72-.49-5.62-.52-8.67-.03-3.05-.21-5.86-.41-6.24-.2-.39-.35-2.63-.33-4.98.03-3.87-.25-8.18-.54-8.19-.12,0-.31-4.02-.61-13.06-.11-3.32-.47-6.66-.81-7.42-.34-.76-.6-3.36-.59-5.77,0-2.41-.4-6.01-.91-8.01-.58-2.25-.65-3.8-.19-4.07.9-.53.75-4.17-.23-5.64-.39-.58-.67-4.27-.62-8.2.05-3.92.03-7.14-.03-7.14-.06,0,0-3.68.13-8.17.13-4.49-.09-8.62-.49-9.17-.5-.68-.47-.99.09-.97.55.02.76-1.85.63-5.62-.42-12.72-.47-17.98-.32-31.35.18-15.69.24-33.01.17-50.99-.04-11.52.32-33.45.56-33.72h0ZM311.37,96.81c1.06-1.38,2.19-1.46,15.79-1.1,8.06.21,16.88.12,19.61-.21,2.72-.32,13.29-.35,23.48-.05,10.19.29,20.94.26,23.9-.07,29.37-3.33,54.27-3.8,107.85-2.01,20.38.68,36.01.86,40.2.46,8.27-.79,133.45,3.89,171.62,6.42,13.53.9,38.4,2.46,55.26,3.48s38.49,2.49,48.06,3.27c24.67,2.01,45.3,3.4,62.83,4.23,13.74.65,15.39.59,17.71-.68,2.82-1.54,5.44-1.18,7.19.98.67.83,1.17,3.81,1.33,7.88.14,3.6.48,6.94.76,7.42,1.1,1.87,1.36,39.14.61,85.34-.25,15.19-.35,27.8-.23,28.02.12.22.08,11.44-.09,24.92-.17,13.48-.18,24.75-.03,25.05.16.29.25,6.95.21,14.8-.04,7.85.11,14.8.34,15.45.7,1.99-5.63,185.84-6.59,191.3-.48,2.77-1.2,10.1-1.6,16.29-2.65,41.61-3.87,67.39-3.96,84.1-.06,10.57-.7,32.41-1.42,48.53-1.27,28.42-1.36,29.33-2.9,30.36-.87.58-2.51.91-3.65.74-1.89-.29-2.1-.67-2.46-4.61-.21-2.36-.14-7.27.16-10.89,1.13-13.54,2.07-40.59,2.03-57.93-.08-32.79,2.51-89.25,5.07-110.38,1.06-8.71,1.35-24.16.81-41.63-.13-4.07-.14-8.28-.02-9.34,1.15-10.44,2.79-49.87,3.06-73.47.12-10.27.4-28.31.62-40.07.23-11.77.31-24.2.19-27.63-.32-8.96-.3-23,.06-44.38.17-10.27.18-20.78.02-23.36-.16-2.57-.08-15.01.19-27.63.81-38.55.97-58.26.55-69.27-.22-5.79-.47-14.73-.56-19.87-.09-5.14-.42-9.72-.74-10.17-.36-.51-7.26-1.15-18.23-1.67-9.7-.47-17.82-.97-18.04-1.12-.22-.15-9.56-.81-20.77-1.47-11.21-.66-20.64-1.38-20.96-1.6-.32-.22-16.52-1.33-36.01-2.48-19.48-1.14-37.47-2.24-39.96-2.44-21.48-1.7-54.64-3.3-116.64-5.63-59.07-2.22-75.6-2.61-87.94-2.09-11.61.49-21.28.31-40.94-.76-15.4-.84-29.26-1.21-34.49-.92-4.81.26-15.4.44-23.53.39-16.01-.09-25.72.38-37.62,1.85-4.57.56-17.5.88-32.27.8-13.56-.07-27.05.14-29.99.46-11.03,1.23-23.2-.11-26.64-2.94-2.45-2.02-2.65-2.78-1.24-4.62h0Z"/>
    <path id="path2" class="cls-5" d="M754.24,211.14c2.24,1.43,2.45,2.7.87,5.17-.84,1.31-1.44,3.69-1.85,7.39-.67,6-.59,30.76.1,31.51.24.26,4.42.36,9.29.23,8.28-.22,33.29-.74,46.41-.96,3.19-.05,9.92-.1,14.95-.11,15.29-.02,14.05.22,14.03-2.63-.01-2.06.33-2.76,2.16-4.4l2.18-1.96,3.42,2.03c1.88,1.12,5.58,3.01,8.22,4.22,2.64,1.2,6,3.09,7.47,4.2,2.23,1.69,2.69,2.39,2.78,4.27.19,4.09-3.4,7.01-10.52,8.54-1.22.26-3.26.7-4.53.97-2.83.61-5.3-.44-5.25-2.24.07-2.79-.46-2.96-9.74-3.1-10.79-.16-11.34-.16-26.76.09-6.88.11-16.5.23-21.37.27-4.87.04-9.4.15-10.07.25-1.1.16-4.28.25-17.73.45-2.35.04-8.67.08-14.04.1-5.37.02-11.83.2-14.36.4-2.52.21-7.06.44-10.09.52-8.15.21-21.65.76-24.45.99-9.83.81-51.58-.51-118.85-3.77-36.74-1.78-49.37-1.58-82.13,1.31-7.59.67-24.51.84-28.13.29-5.45-.83-8.76-4.77-6.09-7.24,1.22-1.13,1.21-1.42-.09-1.78-.61-.17-.02-.46,1.4-.69,1.35-.22,2.63-.64,2.83-.93.22-.31,1.62-.2,3.35.26,1.63.44,4.37.67,6.08.53,3.85-.33,6.39-.46,13.4-.7,8-.27,15.21-.99,15.86-1.58.33-.3.21-1.36-.29-2.56-.53-1.27-.89-4.96-.97-9.68-.13-8.06-.62-20.39-1.01-25.13-.22-2.67-.09-2.96,2.24-5.1,2.21-2.03,2.75-2.24,5.07-1.99,1.53.17,2.46.05,2.27-.3-.18-.33.28-.73,1.04-.91,2.66-.61,5.52-.16,7.51,1.17,2.19,1.47,2.15,1.23,1.99,10.4-.13,7.58.61,23.26,1.15,24.4.26.54.59,2.88.74,5.19l.28,4.21,3.77-.24c3.34-.21,11.11-.19,36.56.13,3.94.05,7.2-.09,7.23-.31.03-.22-.03-2.11-.13-4.21-.1-2.1-.25-10.85-.31-19.44-.09-12.15.06-16.11.7-17.82.86-2.32,1.3-2.6,2.34-1.48.71.77,4.49-.67,4.53-1.73.01-.33.4-.58.85-.56.46.02,1.57-.5,2.46-1.16l1.63-1.19,2.55,1.56c2.27,1.39,2.54,1.79,2.38,3.63-1.12,13.42-1.79,29.65-1.49,35.89.2,4.2.46,7.75.58,7.88.11.13,7.54.73,16.5,1.35,11.77.8,16.53.93,17.14.46.66-.51.8-1.93.63-6.5-.12-3.22-.19-6.12-.16-6.46.03-.33.4-5.68.83-11.87.92-13.38,2.09-19.89,3.73-20.68.62-.3,1.41-.36,1.75-.13.34.23,1.31-.17,2.14-.89,1.33-1.16,1.95-1.26,5.22-.84,5.02.65,6.06,1.71,5.59,5.77-1.77,15.22-2.82,30.04-2.55,35.98l.31,6.72,18.23.85c14.18.66,18.35.68,18.74.09.28-.41.53-5.42.55-11.13.02-5.7.43-15.65.92-22.1.73-9.77,1.06-11.94,1.98-12.99.77-.88,1.35-1.08,1.94-.67,2.22,1.55,5.06,2.05,7.5,1.32,2.12-.64,2.76-.59,4.87.34,3.8,1.68,4.52,2.63,3.72,4.88-.37,1.05-.94,2.36-1.26,2.91-.69,1.17-2.46,36.73-1.87,37.37.22.24,5.99.06,12.82-.39,6.83-.45,15.79-.88,19.9-.94l7.48-.12v-2.5c.01-1.37.5-10.83,1.09-21.01.85-14.59,1.28-18.79,2.01-19.82.72-1.02,1.75-1.36,4.67-1.56,2.06-.14,4.27-.51,4.92-.82,1.8-.88,6.22-.42,8.22.85h0Z"/>
    <path id="path1-2" class="cls-5" d="M397.06,157.12c.61,1.31.59,2.03-.17,5.28-.93,3.94-2.32,7.07-3.13,7.04-2.02-.07-1.43-8.22.89-12.22,1.17-2.02,1.5-2.03,2.41-.1h0ZM367.81,159.11c.34.22,1.41,2.1,2.36,4.16.96,2.06,1.98,3.91,2.28,4.1,1.03.67.49,1.83-.82,1.78-1.56-.06-3.03-2.04-4.11-5.52-.85-2.76-.7-5.17.29-4.52h0ZM427.07,164.54c-1.65.83-3.09,1.7-3.19,1.94-.11.24-.51.42-.9.41-.39-.01-1.76.76-3.05,1.73-1.29.96-3.03,2.06-3.86,2.44-.84.38-2.14,1.25-2.9,1.93-1.41,1.26-2.77,1.5-3.96.71-.98-.65,2.17-3.41,5.6-4.9,1.54-.67,3.17-1.5,3.63-1.84,1-.76,9.96-4,10.94-3.96.38.01-.65.71-2.3,1.54ZM341.78,171.47c3.39,1.01,8.89,3.99,10.12,5.48.48.59,1.02,1.52,1.19,2.08.17.56.81,1.43,1.41,1.95.72.61.91,1.09.54,1.4-.88.74-3.54-.37-5.62-2.34-1.05-.99-3.66-2.72-5.81-3.84-2.15-1.12-4.08-2.45-4.28-2.94-.31-.74-.65-2.8-.44-2.67.03.02,1.34.42,2.9.89h0ZM436.37,178.39c-.63.41-1.79.89-2.58,1.05-.79.16-1.44.46-1.45.67-.04,1.15-12.25,4.11-13.14,3.18-.34-.35-.34-.72-.01-.98.99-.8,12.52-3.94,16.17-4.4,2.03-.26,2.08-.23,1.01.48h0ZM332.65,187.84c6.98,2.63,12.69,5.73,11.87,6.46-.74.66-6.99-.14-10.3-1.33-2.34-.84-3.83-1.76-4.9-3.03-2.6-3.09-1.36-3.87,3.33-2.1ZM437.88,202.64l2.38.68-5.09.19c-2.8.11-7.5.57-10.44,1.03-3.57.55-5.65.66-6.26.32-1.31-.74-.51-2.03,1.21-1.97.8.03,1.64-.11,1.87-.32.49-.44,1.03-.48,8.35-.55,3.4-.03,6.55.21,7.99.62h0ZM337.1,204.04c5.26.62,7.49,2.06,4.99,3.24-1.82.86-6.52.35-9.08-.98-3.97-2.07-2.27-3.01,4.1-2.26h0ZM423.58,219.86c.88.15,2.63.57,3.9.94l2.31.67-1.83.86c-3.44,1.61-14.91.42-14.83-1.54,0-.26,1.3-.57,2.86-.69,1.56-.12,3.55-.29,4.42-.37.87-.08,2.3-.03,3.17.12h0ZM342.16,218.12c5.55.57,9.1,1.51,10,2.64.63.79-1.04.93-8.8.69-3.64-.11-6.83-1.23-7.74-2.7-.44-.71.02-1.4.85-1.26.35.06,2.91.34,5.69.63ZM397.59,181.09c4.06,1.18,5.24,1.82,8.47,4.62,2.8,2.42,3.47,4.18,3.36,8.83-.06,2.53-.37,3.77-1.27,5.13-.66.99-1.31,2.54-1.46,3.44-.14.9-.65,2.03-1.12,2.5-.47.47-1.05,1.49-1.28,2.26-.23.77-.61,1.4-.84,1.39-.23,0-.84.72-1.36,1.63-.52.9-1.82,2.74-2.89,4.08-1.07,1.34-1.97,2.87-1.99,3.41-.02.54-.28.97-.57.95-.29,0-.55.27-.56.62-.02.35-1.02,1.51-2.24,2.57-1.22,1.06-2.22,2.2-2.24,2.55-.02.34-1.38,1.71-3.04,3.05-3.53,2.83-3.92,3.47-2.8,4.63.64.66.73,1.45.4,3.46-.84,5.21-1.26,6.71-2.11,7.57-.47.48-.92,1.73-1,2.77-.13,1.69-.38,1.99-2.29,2.74-1.18.46-2.49.83-2.91.83-.42,0-1.84.44-3.15,1-1.77.75-2.53.85-2.96.41-.32-.33-.39-.59-.15-.59.23,0-.16-1.04-.88-2.34-1.18-2.12-1.26-2.7-.85-5.83.25-1.92.46-4.12.46-4.9,0-.78.37-2.18.82-3.11.77-1.61.56-3.08-.57-3.98-.19-.15-.47-.64-.62-1.1-.15-.46-1.19-1.29-2.29-1.84-3.29-1.66-6.1-5.33-7.3-9.55-.33-1.15-.85-2.26-1.16-2.47-.36-.25-.46-2.48-.25-6.2.36-6.64.56-7.94,1.51-9.48.37-.61.69-1.55.71-2.1.02-.55.36-1.24.74-1.52.39-.29.79-1.29.89-2.22.11-.99.67-2.06,1.34-2.56.64-.47,1.01-.87.84-.87-.53-.02,4.23-4.17,6.44-5.62,2.13-1.4,6.65-3.28,10.44-4.35,3.64-1.03,11.81-.9,15.76.24h0ZM383.39,186.06c-5.54,1.18-12.38,5.17-12.47,7.28-.01.33-.48,1.04-1.03,1.58-.56.53-1.35,2.23-1.77,3.77-2.8,10.36-2.94,12.46-1.13,16.44.6,1.31,1.12,2.66,1.16,3,.1.83,3.27,5.43,3.75,5.45,1.25.05,2.82-5.85,1.68-6.26-.34-.12-.25-.65.23-1.43.42-.68.72-1.76.67-2.4-.12-1.45,5.25-6.43,7.4-6.87,1.71-.35,5.14.72,7.53,2.33,1.9,1.29,2.06,2.49.72,5.73-.46,1.11-.74,2.11-.64,2.22.45.46,2.44-.45,2.46-1.13.02-.41.36-.73.76-.71.8.03,2.62-3.66,2.69-5.44.02-.61.27-1.24.55-1.39.28-.15.69-.96.91-1.8.23-.84.57-1.52.77-1.51.2,0,.41-.51.47-1.14.06-.64.46-2.54.89-4.22,1.12-4.42.86-8.48-.67-10.49-2.34-3.08-8.61-4.33-14.92-2.99h0ZM379.26,213.72c-1.26,1.81-1.59,3.62-.75,4.16.7.45,2.81-.6,2.45-1.22-.16-.28.14-.49.67-.47.71.02.79-.09.29-.42-.49-.33-.52-.79-.1-1.75,1.1-2.5-.87-2.74-2.56-.3h0Z"/>
    <path id="path1-2-8" class="cls-7" d="M401.4,340.97c.61,1.31.59,2.03-.17,5.28-.93,3.94-2.32,7.07-3.13,7.04-2.02-.07-1.43-8.22.89-12.22,1.17-2.02,1.5-2.03,2.41-.1h0ZM372.15,342.96c.34.22,1.41,2.1,2.36,4.16.96,2.06,1.98,3.91,2.28,4.1,1.03.67.49,1.83-.82,1.78-1.56-.06-3.03-2.04-4.11-5.52-.85-2.76-.7-5.17.29-4.52h0ZM431.41,348.39c-1.65.83-3.09,1.7-3.19,1.94-.11.24-.51.42-.9.41-.39-.02-1.76.76-3.05,1.73-1.29.96-3.03,2.06-3.86,2.44-.84.38-2.14,1.25-2.9,1.93-1.41,1.26-2.77,1.5-3.96.71-.98-.65,2.17-3.41,5.6-4.9,1.54-.67,3.17-1.5,3.63-1.84,1-.76,9.96-4,10.94-3.96.38.02-.65.71-2.3,1.54ZM346.12,355.32c3.39,1.01,8.89,3.99,10.12,5.48.48.59,1.02,1.52,1.19,2.08.17.56.81,1.43,1.41,1.95.72.61.91,1.09.54,1.4-.88.74-3.54-.37-5.62-2.34-1.05-.99-3.66-2.72-5.81-3.84-2.15-1.12-4.08-2.45-4.28-2.94-.31-.74-.65-2.8-.44-2.67.03.02,1.34.42,2.9.89ZM440.71,362.24c-.63.41-1.79.89-2.58,1.05-.79.16-1.44.46-1.45.67-.04,1.15-12.25,4.11-13.14,3.18-.34-.35-.34-.72-.01-.98.99-.8,12.52-3.94,16.17-4.4,2.03-.26,2.08-.23,1.01.48h0ZM336.99,371.69c6.98,2.63,12.69,5.73,11.87,6.46-.74.66-6.99-.14-10.3-1.33-2.34-.84-3.83-1.76-4.9-3.03-2.6-3.09-1.36-3.87,3.33-2.1h0ZM442.22,386.49l2.38.68-5.09.19c-2.8.11-7.5.57-10.44,1.03-3.57.55-5.65.66-6.26.32-1.31-.74-.51-2.03,1.21-1.97.8.03,1.64-.11,1.87-.32.49-.44,1.03-.48,8.35-.55,3.4-.03,6.55.21,7.99.62h0ZM341.44,387.89c5.26.62,7.49,2.06,4.99,3.24-1.82.86-6.52.35-9.08-.98-3.97-2.07-2.27-3.01,4.1-2.26h0ZM427.92,403.72c.88.15,2.63.57,3.9.94l2.31.67-1.83.86c-3.44,1.61-14.91.42-14.83-1.54,0-.26,1.3-.57,2.86-.69,1.56-.12,3.55-.29,4.42-.37.87-.08,2.3-.03,3.17.12ZM346.5,401.97c5.55.57,9.1,1.51,10,2.64.63.79-1.04.93-8.8.69-3.64-.11-6.83-1.23-7.74-2.7-.44-.71.02-1.4.85-1.26.35.06,2.91.34,5.69.63ZM401.93,364.94c4.06,1.18,5.24,1.82,8.47,4.62,2.8,2.42,3.47,4.18,3.36,8.83-.06,2.53-.37,3.77-1.27,5.13-.66.99-1.31,2.54-1.46,3.44-.14.9-.65,2.03-1.12,2.5-.47.47-1.05,1.49-1.28,2.26-.23.77-.61,1.4-.84,1.39-.23,0-.84.72-1.36,1.63-.52.9-1.82,2.74-2.89,4.08s-1.97,2.87-1.99,3.41c-.02.54-.28.97-.57.95-.29,0-.55.27-.56.62-.02.35-1.02,1.51-2.24,2.57-1.22,1.06-2.22,2.2-2.24,2.55-.02.34-1.38,1.71-3.04,3.05-3.53,2.83-3.92,3.47-2.8,4.63.64.66.73,1.45.4,3.46-.84,5.21-1.26,6.71-2.11,7.57-.47.48-.92,1.73-1,2.77-.13,1.69-.38,1.99-2.29,2.74-1.18.46-2.49.83-2.91.83-.42,0-1.84.44-3.15,1-1.77.75-2.53.85-2.96.41-.32-.33-.39-.59-.15-.59.23,0-.16-1.04-.88-2.34-1.18-2.12-1.26-2.7-.85-5.83.25-1.92.46-4.12.46-4.9,0-.78.37-2.18.82-3.11.77-1.61.56-3.08-.57-3.98-.19-.15-.47-.64-.62-1.1-.15-.46-1.19-1.29-2.29-1.84-3.29-1.66-6.1-5.33-7.3-9.55-.33-1.15-.85-2.26-1.16-2.47-.36-.25-.46-2.48-.25-6.2.36-6.64.56-7.94,1.51-9.48.37-.61.69-1.55.71-2.1.02-.55.36-1.24.74-1.52.39-.29.79-1.29.89-2.22.11-.99.67-2.06,1.34-2.56.64-.47,1.01-.87.84-.87-.53-.02,4.23-4.17,6.44-5.62,2.13-1.4,6.65-3.28,10.44-4.35,3.64-1.03,11.81-.9,15.76.24h0ZM387.73,369.91c-5.54,1.18-12.38,5.17-12.47,7.28-.01.33-.48,1.04-1.03,1.58-.56.53-1.35,2.23-1.77,3.77-2.8,10.36-2.94,12.46-1.13,16.44.6,1.31,1.12,2.66,1.16,3,.1.83,3.27,5.43,3.75,5.45,1.25.04,2.82-5.85,1.68-6.26-.34-.12-.25-.65.23-1.43.42-.68.72-1.76.67-2.4-.12-1.45,5.25-6.43,7.4-6.87,1.71-.35,5.14.72,7.53,2.33,1.9,1.29,2.06,2.49.72,5.73-.46,1.11-.74,2.11-.64,2.22.45.46,2.44-.45,2.46-1.13.02-.41.36-.73.76-.71.8.03,2.62-3.66,2.69-5.44.02-.61.27-1.24.55-1.39.28-.15.69-.96.91-1.8.23-.84.57-1.52.77-1.51.2,0,.41-.51.47-1.14.06-.64.46-2.54.89-4.22,1.12-4.42.86-8.48-.67-10.49-2.34-3.08-8.61-4.33-14.92-2.99h0ZM383.6,397.57c-1.26,1.81-1.59,3.62-.75,4.16.7.45,2.81-.6,2.45-1.22-.16-.28.14-.49.67-.47.71.02.79-.09.29-.42-.49-.33-.52-.79-.1-1.75,1.1-2.5-.87-2.74-2.56-.3h0Z"/>
    <path id="path1-2-6" class="cls-2" d="M410.65,501.29c.61,1.31.59,2.03-.17,5.28-.93,3.94-2.32,7.07-3.13,7.04-2.02-.07-1.43-8.22.89-12.22,1.17-2.02,1.5-2.03,2.41-.1h0ZM381.4,503.27c.34.22,1.41,2.1,2.36,4.16.96,2.06,1.98,3.91,2.28,4.1,1.03.67.49,1.83-.82,1.78-1.56-.06-3.03-2.04-4.11-5.52-.85-2.76-.7-5.17.29-4.52h0ZM440.66,508.7c-1.65.83-3.09,1.7-3.19,1.94-.11.24-.51.42-.9.41-.39-.02-1.76.76-3.05,1.73-1.29.96-3.03,2.06-3.86,2.44-.84.38-2.14,1.25-2.9,1.93-1.41,1.26-2.77,1.5-3.96.71-.98-.65,2.17-3.41,5.6-4.9,1.54-.67,3.17-1.5,3.63-1.84,1-.76,9.96-4,10.94-3.96.38.02-.65.71-2.3,1.54ZM355.37,515.63c3.39,1.01,8.89,3.99,10.12,5.48.48.59,1.02,1.52,1.19,2.08.17.56.81,1.43,1.41,1.95.72.61.91,1.09.54,1.4-.88.74-3.54-.37-5.62-2.34-1.05-.99-3.66-2.72-5.81-3.84-2.15-1.12-4.08-2.45-4.28-2.94-.31-.74-.65-2.8-.44-2.67.03.02,1.34.42,2.9.89ZM449.96,522.55c-.63.41-1.79.89-2.58,1.05-.79.16-1.44.46-1.45.67-.04,1.15-12.25,4.11-13.14,3.18-.34-.35-.34-.72-.01-.98.99-.8,12.52-3.94,16.17-4.4,2.03-.26,2.08-.23,1.01.48h0ZM346.25,532c6.98,2.63,12.69,5.73,11.87,6.46-.74.66-6.99-.14-10.3-1.33-2.34-.84-3.83-1.76-4.9-3.03-2.6-3.09-1.36-3.87,3.33-2.1h0ZM451.47,546.8l2.38.68-5.09.19c-2.8.11-7.5.57-10.44,1.03-3.57.55-5.65.66-6.26.32-1.31-.74-.51-2.03,1.21-1.97.8.03,1.64-.11,1.87-.32.49-.44,1.03-.48,8.35-.55,3.4-.03,6.55.21,7.99.62h0ZM350.69,548.2c5.26.62,7.49,2.06,4.99,3.24-1.82.86-6.52.35-9.08-.98-3.97-2.07-2.27-3.01,4.1-2.26ZM437.17,564.03c.88.15,2.63.57,3.9.94l2.31.67-1.83.86c-3.44,1.61-14.91.42-14.83-1.54,0-.26,1.3-.57,2.86-.69,1.56-.12,3.55-.29,4.42-.37.87-.08,2.3-.03,3.17.12h0ZM355.75,562.28c5.55.57,9.1,1.51,10,2.64.63.79-1.04.93-8.8.69-3.64-.11-6.83-1.23-7.74-2.7-.44-.71.02-1.4.85-1.26.35.06,2.91.34,5.69.63ZM411.18,525.25c4.06,1.18,5.24,1.82,8.47,4.62,2.8,2.42,3.47,4.18,3.36,8.83-.06,2.53-.37,3.77-1.27,5.13-.66.99-1.31,2.54-1.46,3.44-.14.9-.65,2.03-1.12,2.5-.47.47-1.05,1.49-1.28,2.26-.23.77-.61,1.4-.84,1.39-.23,0-.84.72-1.36,1.63-.52.9-1.82,2.74-2.89,4.08s-1.97,2.87-1.99,3.41c-.02.54-.28.97-.57.95-.29,0-.55.27-.56.62-.02.35-1.02,1.51-2.24,2.57-1.22,1.06-2.22,2.2-2.24,2.55-.02.34-1.38,1.71-3.04,3.05-3.53,2.83-3.92,3.47-2.8,4.63.64.66.73,1.45.4,3.46-.84,5.21-1.26,6.71-2.11,7.57-.47.48-.92,1.73-1,2.77-.13,1.69-.38,1.99-2.29,2.74-1.18.46-2.49.83-2.91.83-.42,0-1.84.44-3.15,1-1.77.75-2.53.85-2.96.41-.32-.33-.39-.59-.15-.59.23,0-.16-1.04-.88-2.34-1.18-2.12-1.26-2.7-.85-5.83.25-1.92.46-4.12.46-4.9,0-.78.37-2.18.82-3.11.77-1.61.56-3.08-.57-3.98-.19-.15-.47-.64-.62-1.1-.15-.46-1.19-1.29-2.29-1.84-3.29-1.66-6.1-5.33-7.3-9.55-.33-1.15-.85-2.26-1.16-2.47-.36-.25-.46-2.48-.25-6.2.36-6.64.56-7.94,1.51-9.48.37-.61.69-1.55.71-2.1.02-.55.36-1.24.74-1.52.39-.29.79-1.29.89-2.22.11-.99.67-2.06,1.34-2.56.64-.47,1.01-.87.84-.87-.53-.02,4.23-4.17,6.44-5.62,2.13-1.4,6.65-3.28,10.44-4.35,3.64-1.03,11.81-.9,15.76.24h0ZM396.98,530.22c-5.54,1.18-12.38,5.17-12.47,7.28-.01.33-.48,1.04-1.03,1.58-.56.53-1.35,2.23-1.77,3.77-2.8,10.36-2.94,12.46-1.13,16.44.6,1.31,1.12,2.66,1.16,3,.1.83,3.27,5.43,3.75,5.45,1.25.05,2.82-5.85,1.68-6.26-.34-.12-.25-.65.23-1.43.42-.68.72-1.76.67-2.4-.12-1.45,5.25-6.43,7.4-6.87,1.71-.35,5.14.72,7.53,2.33,1.9,1.29,2.06,2.49.72,5.73-.46,1.11-.74,2.11-.64,2.22.45.46,2.44-.45,2.46-1.13.02-.41.36-.73.76-.71.8.03,2.62-3.66,2.69-5.44.02-.61.27-1.24.55-1.39.28-.15.69-.96.91-1.8.23-.84.57-1.52.77-1.51.2,0,.41-.51.47-1.14.06-.64.46-2.54.89-4.22,1.12-4.42.86-8.48-.67-10.49-2.34-3.08-8.61-4.33-14.92-2.99h0ZM392.85,557.88c-1.26,1.81-1.59,3.62-.75,4.16.7.45,2.81-.6,2.45-1.22-.16-.28.14-.49.67-.47.71.02.79-.09.29-.42-.49-.33-.52-.79-.1-1.75,1.1-2.5-.87-2.74-2.56-.3h0Z"/>
    <path id="path1-25" class="cls-2" d="M816.86,544.23c2.08,2.3,2.13,2.48,2.19,7.99.03,3.1.42,6.61.87,7.8,1.03,2.75.97,4.12-.21,5.03-.52.4-.96,1.24-.99,1.87-.04,1.08.33,1.13,6.22.93,3.44-.12,10.31-.07,15.25.11,8.01.3,8.99.22,9.03-.69.02-.56-.74-1.62-1.69-2.35-2.75-2.12-6.75-7.59-6.03-8.26.9-.83,8.82,1.25,11.87,3.12,4.43,2.72,4.81,2.93,9.47,5.28,6.29,3.16,11.18,14.27-4.01,18.53-1.27.36-2.32.9-2.33,1.21-.01.31-.55.54-1.2.52-.65-.02-1.56.31-2.03.75-.47.44-1.89,1.13-3.15,1.53s-2.3.89-2.31,1.08c0,.19-1.11.2-2.45.03-3.15-.42-4.56-2.26-3.16-4.11.51-.68.94-1.59.96-2.03.02-.44.64-1.57,1.39-2.5,2.63-3.29,2.16-3.37-14.63-2.39-7.63.44-11.8.61-19.56.79-3.53.08-8.89.28-11.92.44-3.03.16-12.88.05-21.91-.24-9.02-.29-16.63-.4-16.91-.24-.28.16-8.95-.04-19.26-.44-12.83-.5-21.57-.53-27.63-.12-14.65,1.01-21.11,1.27-33.92,1.41-22.18.24-33.53.54-37.9,1-2.37.25-11.17.36-19.54.26-8.89-.11-19.17.14-24.71.62-5.22.45-15.4.89-22.62.99-12.85.17-17.45.44-36.69,2.13-5.22.46-13.62,1-18.66,1.21-5.04.21-11.79.7-14.99,1.1-3.2.4-9.81.78-14.68.86-4.87.08-11.26.36-14.2.62-5.8.52-8.57.06-13.41-2.23-1.95-.92-2.78-1.68-2.75-2.5.05-1.3,2.76-2.42,5.62-2.31.93.03,3.02-.15,4.65-.4,1.63-.26,4.55-.72,6.49-1.02,1.94-.3,3.54-.72,3.54-.92,0-.2-.37-.83-.85-1.39s-.92-2.52-1-4.34c-.07-1.82-.4-3.41-.72-3.53-.32-.12-.41-1.4-.19-2.85.22-1.44.13-2.81-.2-3.02-.33-.22-.41-1.63-.17-3.18.32-2.15.16-3.16-.71-4.46-3.3-4.91-2.51-5.69,5.41-5.41,3.57.13,7.64,0,9.05-.26,4.63-.89,14.89-1.88,20.61-2,3.08-.06,13.6-.74,23.36-1.51,9.76-.77,20.64-1.58,24.17-1.8,3.53-.22,10-.67,14.38-1,4.38-.33,12.46-.72,17.97-.87,5.51-.15,10.27-.43,10.58-.61,1.33-.75,3.89.81,6.85,4.18,3.53,4.02,4.89,7.58,3.61,9.47-.42.63-1.19,3.85-1.71,7.16-1.34,8.6-2,8.15,12,8.13,6.22,0,12.82-.2,14.68-.43,1.85-.23,5.85-.47,8.87-.54,3.02-.07,6.6-.23,7.95-.35,1.35-.13,7.52-.18,13.72-.11,6.2.06,13.07-.06,15.27-.27,2.2-.21,8.27-.68,13.48-1.03,15.4-1.04,14.5-.71,12.13-4.49-1.23-1.97-1.33-2.72-.96-7.06.23-2.67.73-5.37,1.1-6.01.49-.85.44-1.64-.19-2.99-1.98-4.21-.51-5.47,6.6-5.65,2.18-.06,5.07-.22,6.42-.36,1.35-.14,3.96-.33,5.81-.42,1.85-.09,4.46-.22,5.81-.29,1.35-.07,4.51-.23,7.03-.34,2.52-.11,6.93-.44,9.79-.72,3.29-.32,16.35-.12,35.5.56l30.3,1.07,2.13,2.35Z"/>
    <path id="path1-6" class="cls-7" d="M794.18,378.24c.43.37,1.16,1.39,1.63,2.28.47.88,1.95,3.41,3.29,5.61,2.8,4.6,3.19,8.31,1.06,10.18-.92.81-1.29,2.13-1.6,5.73l-.41,4.68,3.07-.14c1.69-.08,6.91-.15,11.61-.16,4.7-.01,10.75-.19,13.44-.4,2.69-.21,8.45-.27,12.79-.14,4.34.13,8.04.11,8.21-.05.17-.16-.77-1.49-2.09-2.95-1.32-1.46-3.1-3.48-3.96-4.47l-1.56-1.81,1.28-1.1c1.54-1.33,2.76-1.36,3.73-.1.4.52,1.32.97,2.05.99.73.03,1.58.29,1.89.58.31.29,1.51.92,2.66,1.39,3.28,1.33,5.08,2.23,14.42,7.23,8.16,4.37,8.8,4.84,9.92,7.32,1.42,3.13,1.13,4.59-1.61,8.17-3.24,4.22-11.68,8.33-14.14,6.89-.58-.34-1.63-.64-2.33-.66-1.59-.06-6.01-3.17-5.97-4.2.02-.42-.48-.92-1.11-1.11-.63-.19-1.48-1.13-1.9-2.09-1.02-2.32-3.26-2.96-9.58-2.75-2.86.1-7.8.2-10.99.22-8.77.06-14.17.29-22.92.98-16.32,1.28-18.45,1.39-22.15,1.21-2.08-.1-4.01-.07-4.27.08-.75.41-5.1.71-15.47,1.05-5.21.17-13.32.55-18.03.85-4.71.3-10.22.64-12.23.77-2.02.12-7.1.23-11.3.25-4.2.01-9.97.31-12.84.67-6.56.82-15.59,1.39-23.86,1.53-6.76.11-13.3.7-26.33,2.38-1.85.24-8.04.41-13.74.38-5.7-.03-11.2.07-12.21.21-1.01.15-6.9.07-13.09-.17-6.19-.24-13.05-.21-15.26.06-2.2.27-9.36.54-15.91.59-22.28.18-33.88.45-38.48.89-2.53.24-7.5.35-11.06.23-3.56-.12-7.96.02-9.78.3-1.82.29-6.6.5-10.63.47-8.95-.06-17.72.54-20.14,1.36-.99.34-2.23.43-2.75.21-.52-.22-5.47-.7-10.99-1.06-18.36-1.19-25.11-2.61-26.84-5.63-.36-.63-1-1.16-1.43-1.18-.99-.04-.94-1.53.08-2.3.96-.73,6.94-1.01,19.47-.92,5.23.04,10.11-.12,10.83-.36,1.24-.4,1.26-.54.48-2.2-.46-.97-.81-2.56-.77-3.53.04-.97-.22-1.77-.58-1.78-.35-.01-.44-.33-.19-.71.25-.38-.05-1.08-.66-1.57-.71-.56-.88-1.04-.47-1.3.81-.51,1.15-3.3.34-2.84-.81.46-.68-1.18.16-1.96.46-.43.49-.77.08-1.04-.4-.27-.29-.96.3-2.01.65-1.14.73-1.83.29-2.4-.44-.57-.31-1.61.47-3.63.99-2.58,1-2.92.15-3.93-.68-.81-.76-1.39-.27-2.18.59-.96,1.74-1.04,11.22-.76,5.81.17,11.4.18,12.41.02,6.04-.96,16.31-1.1,20.67-.27,2.53.48,5.85.74,7.38.57,1.52-.17,4.06-.07,5.62.23,2.55.48,3.33,1.07,7.45,5.64l4.6,5.1-.62,7.35c-.34,4.04-.71,8.03-.82,8.86l-.2,1.52,6.4.16c7.98.2,26.45-.19,31.76-.66,2.19-.19,8.44-.19,13.88.02,6.24.24,9.91.15,9.92-.24,0-.34-.35-2.14-.79-4-.86-3.6-.61-20.11.32-21.49.27-.4.71-2.62.98-4.93l.49-4.2,2.77-.71c1.53-.39,4.44-.66,6.47-.58,2.03.07,5.31-.11,7.28-.39,1.97-.29,6.63-.49,10.35-.45,3.72.04,8.71-.03,11.09-.16,3.14-.16,5.03.05,6.91.8,1.42.56,3.2,1.05,3.95,1.08.9.03,2.08,1.04,3.45,2.95,1.15,1.59,2.86,3.51,3.8,4.26.94.75,1.74,1.64,1.78,1.98.04.34.45,2.13.91,3.98.7,2.8.7,3.94.01,6.71-1.21,4.84-1.43,6.66-1.18,9.55.27,3.03.59,3.16,6.5,2.73,2.36-.17,5.52-.4,7.04-.49,3.58-.23,6.59-.51,8.88-.81,3.5-.47,7.38-.69,14.37-.84,9.31-.19,11.17-.26,16.04-.59q4.12-.28,4.19-2.18c.03-1.04-.16-3.02-.42-4.4-.26-1.38-.5-5.59-.53-9.37-.03-3.77-.19-7.81-.36-8.97-.18-1.18.08-3.28.58-4.77l.9-2.67,5.23-.18c2.87-.1,8.4-.49,12.27-.87,3.87-.38,12.81-.59,19.85-.46,7.04.13,15.47.26,18.72.3,3.47.03,6.23.33,6.69.73h0ZM788.71,407.03c-.01.34.53.63,1.2.66.67.03,1.23-.23,1.24-.56.01-.34-.53-.63-1.2-.66-.67-.03-1.23.23-1.24.56h0Z"/>
  </g>
</svg>